<svg width="20" height="20" viewBox="0 0 20 20" fill="none" xmlns="http://www.w3.org/2000/svg">
<circle cx="10" cy="10" r="10" fill="#03A337" fill-opacity="0.93"/>
<path d="M15.7565 7.24174L10.3165 14.3248C10.1868 14.4899 9.99332 14.5981 9.77961 14.6251C9.5659 14.6521 9.34986 14.5955 9.18004 14.4681L5.29536 11.4882C4.95256 11.225 4.89705 10.745 5.17138 10.4161C5.44571 10.0872 5.94598 10.0339 6.28878 10.2971C8.07794 11.6705 10.6416 11.3338 12.0154 9.54493L14.477 6.33968C14.6392 6.10603 14.9222 5.97686 15.2135 6.00343C15.5049 6.03001 15.7574 6.20804 15.8709 6.46684C15.9843 6.72564 15.9404 7.02334 15.7565 7.24174Z" fill="white"/>
</svg>
