<?xml version="1.0" encoding="UTF-8" standalone="no"?>
<!DOCTYPE svg PUBLIC "-//W3C//DTD SVG 1.1//EN" "http://www.w3.org/Graphics/SVG/1.1/DTD/svg11.dtd">
<svg xmlns="http://www.w3.org/2000/svg" version="1.1" viewBox="0.00 0.00 290.00 643.00">
<g stroke-width="2.00" fill="none" stroke-linecap="butt">
<path stroke="#7f7f7e" vector-effect="non-scaling-stroke" d="
  M 274.92 13.53
  L 263.99 12.17"
/>
<path stroke="#a1a1a2" vector-effect="non-scaling-stroke" d="
  M 263.99 12.17
  Q 260.50 8.64 256.42 7.87"
/>
<path stroke="#353535" vector-effect="non-scaling-stroke" d="
  M 256.42 7.87
  Q 249.63 3.25 239.74 1.34
  Q 235.99 0.61 234.04 1.88"
/>
<path stroke="#a1a1a2" vector-effect="non-scaling-stroke" d="
  M 234.04 1.88
  Q 227.88 1.65 221.34 1.93
  Q 220.58 1.96 220.23 1.68
  Q 219.74 1.27 219.78 0.51"
/>
<path stroke="#b6b7b6" vector-effect="non-scaling-stroke" d="
  M 263.99 12.17
  L 270.16 19.19
  A 4.15 4.11 -16.9 0 0 272.78 20.57
  L 280.01 21.43
  Q 280.60 21.50 280.88 22.01
  Q 281.76 23.57 283.02 24.56"
/>
<path stroke="#a1a1a2" vector-effect="non-scaling-stroke" d="
  M 286.09 31.98
  Q 284.44 27.62 276.64 28.09
  Q 275.99 28.13 274.49 27.28"
/>
<path stroke="#b6b7b6" vector-effect="non-scaling-stroke" d="
  M 274.49 27.28
  Q 270.63 21.00 265.47 14.78
  Q 264.63 13.77 261.31 11.12
  A 0.25 0.24 37.8 0 0 260.96 11.16
  L 260.79 11.36
  A 0.07 0.06 35.9 0 0 260.81 11.45
  Q 266.18 15.67 269.54 22.00
  Q 272.54 27.64 274.12 32.97"
/>
<path stroke="#a1a1a2" vector-effect="non-scaling-stroke" d="
  M 274.12 32.97
  L 274.49 34.79"
/>
<path stroke="#b6b7b6" vector-effect="non-scaling-stroke" d="
  M 274.49 34.79
  Q 274.27 35.92 274.94 36.16
  Q 275.36 36.30 275.34 36.75
  Q 275.28 38.60 276.14 42.50
  Q 276.82 45.55 275.18 51.78"
/>
<path stroke="#6c6d6d" vector-effect="non-scaling-stroke" d="
  M 256.42 7.87
  C 259.49 10.90 262.96 14.00 265.32 17.24
  C 272.62 27.25 275.16 39.37 275.18 51.78"
/>
<path stroke="#4a4a49" vector-effect="non-scaling-stroke" d="
  M 275.18 51.78
  L 274.54 63.91"
/>
<path stroke="#6c6d6d" vector-effect="non-scaling-stroke" d="
  M 234.04 1.88
  Q 244.64 2.36 250.92 5.82
  Q 266.18 14.22 271.53 32.63
  Q 273.59 39.70 273.63 42.38
  Q 273.80 52.95 274.54 63.91"
/>
<path stroke="#b6b7b6" vector-effect="non-scaling-stroke" d="
  M 274.54 63.91
  Q 276.85 63.46 277.85 63.81
  A 0.38 0.37 16.9 0 0 278.34 63.55
  L 278.41 63.28"
/>
<path stroke="#e2e3e3" vector-effect="non-scaling-stroke" d="
  M 278.41 63.28
  L 278.63 63.61
  Q 278.91 64.00 279.38 64.05
  L 289.45 65.09"
/>
<path stroke="#e2e3e3" vector-effect="non-scaling-stroke" d="
  M 289.51 70.12
  Q 284.33 68.28 278.47 68.77"
/>
<path stroke="#a1a1a2" vector-effect="non-scaling-stroke" d="
  M 278.47 68.77
  Q 278.01 67.98 277.01 68.60"
/>
<path stroke="#b6b7b6" vector-effect="non-scaling-stroke" d="
  M 277.01 68.60
  L 273.90 68.29"
/>
<path stroke="#a1a1a2" vector-effect="non-scaling-stroke" d="
  M 273.90 68.29
  L 274.00 574.56"
/>
<path stroke="#b6b7b6" vector-effect="non-scaling-stroke" d="
  M 274.00 574.56
  Q 275.89 574.90 276.83 574.45"
/>
<path stroke="#a1a1a2" vector-effect="non-scaling-stroke" d="
  M 276.83 574.45
  Q 277.22 574.51 277.49 574.53
  A 0.83 0.83 0.0 0 0 278.41 573.70
  L 278.43 271.04"
/>
<path stroke="#e2e3e3" vector-effect="non-scaling-stroke" d="
  M 278.43 271.04
  Q 278.82 279.51 278.55 288.00
  C 278.53 288.72 278.88 289.34 278.88 290.01
  Q 278.90 305.91 278.87 321.80
  C 278.87 324.14 279.20 326.45 279.45 328.74
  Q 279.49 329.10 279.73 329.36
  Q 279.96 329.61 279.72 329.81
  Q 279.29 330.18 279.33 330.74
  Q 279.53 333.90 279.19 337.04
  A 0.07 0.06 -3.3 0 0 279.27 337.11
  Q 279.41 337.08 279.54 337.11
  Q 279.92 337.22 279.77 337.58
  Q 278.90 339.81 279.64 342.20
  Q 279.87 342.96 280.65 343.19
  Q 280.96 343.29 280.77 343.54
  Q 280.65 343.71 280.51 343.68
  Q 279.88 343.56 279.87 344.20
  Q 279.87 345.43 280.71 346.28
  Q 281.16 346.73 280.53 346.82
  Q 279.84 346.92 279.82 347.65
  Q 279.77 349.34 280.55 350.46
  Q 280.73 350.71 280.44 350.61
  Q 280.39 350.60 280.34 350.61
  Q 280.00 350.68 279.93 351.01
  Q 279.52 352.94 280.72 354.29
  Q 281.07 354.69 280.57 354.87
  Q 279.93 355.10 280.13 355.75
  Q 280.22 356.06 280.54 356.12
  Q 280.82 356.18 280.88 356.48
  Q 280.92 356.67 280.74 356.74
  Q 280.60 356.80 280.50 356.90
  Q 280.19 357.20 280.32 357.60
  L 281.13 360.28
  Q 281.29 360.80 281.80 360.61
  Q 282.66 360.30 283.50 360.51
  Q 283.99 360.63 284.40 360.93
  Q 284.91 361.30 285.52 361.12
  Q 285.96 360.98 285.91 361.44
  Q 285.81 362.48 286.52 363.22
  Q 286.78 363.49 287.06 363.24
  Q 287.25 363.06 287.34 362.82
  Q 287.50 362.36 287.67 362.82
  Q 287.75 363.03 287.56 363.18
  A 0.41 0.40 -41.6 0 0 287.52 363.80
  Q 287.73 364.01 288.01 364.09
  Q 288.45 364.21 288.62 363.78
  Q 288.81 363.27 289.50 362.79"
/>
<path stroke="#e2e3e3" vector-effect="non-scaling-stroke" d="
  M 281.29 621.50
  Q 281.40 620.06 282.18 619.05
  A 1.05 1.05 0.0 0 0 281.23 617.37
  L 272.35 618.41"
/>
<path stroke="#6c6d6d" vector-effect="non-scaling-stroke" d="
  M 272.35 618.41
  Q 276.56 608.98 277.61 598.56"
/>
<path stroke="#a1a1a2" vector-effect="non-scaling-stroke" d="
  M 277.61 598.56
  Q 278.73 589.19 278.33 579.82
  Q 278.31 579.28 277.78 579.20
  Q 277.41 579.14 276.90 579.34"
/>
<path stroke="#b6b7b6" vector-effect="non-scaling-stroke" d="
  M 276.90 579.34
  Q 275.93 579.19 275.10 579.38"
/>
<path stroke="#6c6d6d" vector-effect="non-scaling-stroke" d="
  M 275.10 579.38
  Q 274.81 579.38 274.62 579.31
  Q 274.29 579.18 274.13 579.49
  Q 273.92 579.89 273.92 580.24
  Q 274.10 588.62 273.83 596.34
  Q 272.94 621.57 253.70 635.42
  C 251.47 637.03 249.27 637.86 246.75 638.83
  Q 246.61 638.88 246.66 639.03
  L 246.66 639.03
  Q 246.70 639.16 246.83 639.13
  C 260.59 635.76 270.25 621.45 273.26 608.49
  Q 275.28 599.81 275.19 590.27"
/>
<path stroke="#b6b7b6" vector-effect="non-scaling-stroke" d="
  M 275.19 590.27
  Q 275.49 590.09 275.76 590.10
  Q 275.89 590.11 275.96 590.21
  Q 276.04 590.32 276.04 590.45"
/>
<path stroke="#a1a1a2" vector-effect="non-scaling-stroke" d="
  M 276.04 590.45
  L 276.14 595.27"
/>
<path stroke="#6c6d6d" vector-effect="non-scaling-stroke" d="
  M 276.14 595.27
  Q 276.07 597.08 276.08 598.66
  Q 276.09 600.51 275.59 602.09
  Q 275.09 603.69 274.98 605.45
  C 274.90 606.72 274.31 608.18 273.98 609.48
  Q 270.73 622.13 262.72 630.21
  Q 259.80 633.16 262.98 630.49
  Q 265.30 628.56 267.82 625.55"
/>
<path stroke="#e2e3e3" vector-effect="non-scaling-stroke" d="
  M 267.82 625.55
  Q 273.49 622.72 279.24 622.89
  Q 279.72 622.90 280.01 622.51
  Q 280.53 621.79 281.29 621.50"
/>
<path stroke="#6c6d6d" vector-effect="non-scaling-stroke" d="
  M 276.02 628.27
  L 276.59 627.15
  Q 276.89 626.57 276.24 626.64
  L 268.05 627.56
  Q 267.53 627.62 267.14 627.97
  L 259.72 634.81"
/>
<path stroke="#a1a1a2" vector-effect="non-scaling-stroke" d="
  M 259.72 634.81
  Q 254.20 638.19 252.50 638.69
  Q 248.55 639.84 244.65 641.45"
/>
<path stroke="#b6b7b6" vector-effect="non-scaling-stroke" d="
  M 30.68 9.99
  Q 32.98 10.19 35.30 9.21"
/>
<path stroke="#a1a1a2" vector-effect="non-scaling-stroke" d="
  M 287.36 35.66
  Q 285.06 34.10 284.00 34.15
  Q 280.08 34.31 276.68 33.37"
/>
<path stroke="#7f7f7e" vector-effect="non-scaling-stroke" d="
  M 274.49 27.28
  Q 274.33 29.82 276.68 33.37"
/>
<path stroke="#b6b7b6" vector-effect="non-scaling-stroke" d="
  M 276.68 33.37
  Q 275.15 33.72 275.83 34.85
  A 2.13 2.10 -63.1 0 1 276.12 35.76
  Q 276.22 37.27 276.96 40.76
  Q 278.86 49.80 278.35 61.95"
/>
<path stroke="#c0c0bf" vector-effect="non-scaling-stroke" d="
  M 278.35 61.95
  Q 278.62 62.54 278.41 63.28"
/>
<path stroke="#7f7f7e" vector-effect="non-scaling-stroke" d="
  M 274.49 34.79
  Q 274.63 34.89 274.77 34.87
  Q 274.99 34.84 275.02 34.62
  Q 275.27 33.26 274.12 32.97"
/>
<path stroke="#767676" vector-effect="non-scaling-stroke" d="
  M 272.35 618.41
  L 267.82 625.55"
/>
<path stroke="#353535" vector-effect="non-scaling-stroke" d="
  M 271.97 632.07
  Q 266.56 634.62 259.72 634.81"
/>
<path stroke="#7f7f7e" vector-effect="non-scaling-stroke" d="
  M 273.90 68.29
  Q 276.00 68.45 275.51 69.25
  C 275.73 79.14 275.39 90.04 275.49 98.92
  C 275.71 121.21 275.39 143.40 275.40 165.64
  Q 275.44 265.27 275.64 361.64
  Q 275.64 361.96 275.50 362.26
  Q 275.38 362.52 275.38 362.76
  Q 275.37 465.18 275.33 567.59
  Q 275.33 569.01 275.16 570.29
  Q 274.95 571.81 275.38 573.28
  Q 275.53 573.82 275.21 574.24
  Q 274.87 574.68 274.00 574.56"
/>
<path stroke="#888989" vector-effect="non-scaling-stroke" d="
  M 216.52 0.63
  C 216.22 1.44 215.64 2.04 214.73 2.04
  Q 205.26 2.06 196.23 2.62
  C 188.43 3.10 180.26 2.99 172.29 3.49
  C 162.77 4.08 152.27 3.97 142.58 4.44
  Q 124.39 5.30 107.88 5.68
  C 93.54 6.00 79.30 6.80 64.76 7.17
  C 54.78 7.42 45.00 7.73 35.30 9.21"
/>
<path stroke="#666665" vector-effect="non-scaling-stroke" d="
  M 35.30 9.21
  Q 34.16 9.29 33.44 8.97"
/>
<path stroke="#ababab" vector-effect="non-scaling-stroke" d="
  M 278.47 68.77
  L 278.43 271.04"
/>
<path stroke="#7f7f7e" vector-effect="non-scaling-stroke" d="
  M 277.01 68.60
  L 276.83 574.45"
/>
<path stroke="#353535" vector-effect="non-scaling-stroke" d="
  M 277.61 598.56
  Q 277.01 596.32 276.14 595.27"
/>
<path stroke="#4a4a49" vector-effect="non-scaling-stroke" d="
  M 275.10 579.38
  L 275.19 590.27"
/>
<path stroke="#7f7f7e" vector-effect="non-scaling-stroke" d="
  M 276.90 579.34
  C 276.65 582.80 277.15 587.20 276.04 590.45"
/>
<path stroke="#e2e3e3" vector-effect="non-scaling-stroke" d="
  M 289.40 60.81
  L 288.99 55.50
  Q 288.93 54.67 288.19 55.05
  Q 288.07 55.11 287.97 55.21
  Q 287.79 55.39 287.53 55.39
  Q 287.05 55.39 287.09 55.14
  Q 287.18 54.48 286.54 54.30
  Q 283.22 53.36 279.75 53.51
  Q 279.35 53.79 278.90 53.67
  Q 278.48 53.56 278.48 53.99
  L 278.35 61.95"
/>
<path stroke="#a1a1a2" vector-effect="non-scaling-stroke" d="
  M 13.90 25.62
  Q 9.41 29.77 7.11 37.15"
/>
<path stroke="#6c6d6d" vector-effect="non-scaling-stroke" d="
  M 7.11 37.15
  Q 5.11 41.46 4.38 46.00
  Q 2.63 56.77 3.15 71.51
  C 3.25 74.20 3.12 76.86 3.11 79.52
  Q 2.88 318.11 3.04 565.15
  C 3.04 566.29 3.31 567.36 3.26 568.50
  Q 2.68 579.88 3.69 591.24
  Q 4.28 597.97 6.48 604.24"
/>
<path stroke="#a1a1a2" vector-effect="non-scaling-stroke" d="
  M 6.48 604.24
  Q 6.44 605.79 7.48 606.98"
/>
<path stroke="#6c6d6d" vector-effect="non-scaling-stroke" d="
  M 7.48 606.98
  Q 7.67 607.16 7.69 607.38"
/>
<path stroke="#a1a1a2" vector-effect="non-scaling-stroke" d="
  M 7.69 607.38
  Q 8.60 610.76 10.85 613.45"
/>
<path stroke="#6c6d6d" vector-effect="non-scaling-stroke" d="
  M 10.85 613.45
  Q 16.39 621.96 25.11 626.99"
/>
<path stroke="#a1a1a2" vector-effect="non-scaling-stroke" d="
  M 25.11 626.99
  Q 27.06 628.52 29.80 628.74"
/>
<path stroke="#b6b7b6" vector-effect="non-scaling-stroke" d="
  M 29.80 628.74
  Q 29.68 628.82 29.60 628.90
  Q 29.36 629.15 29.66 629.32
  Q 31.49 630.37 33.40 630.11"
/>
<path stroke="#a1a1a2" vector-effect="non-scaling-stroke" d="
  M 33.40 630.11
  Q 37.13 631.65 41.34 631.49"
/>
<path stroke="#6c6d6d" vector-effect="non-scaling-stroke" d="
  M 41.34 631.49
  C 45.98 632.59 51.70 631.99 56.53 632.23
  Q 62.39 632.53 67.51 632.72
  Q 138.37 635.34 214.51 638.20
  C 231.38 638.83 248.65 639.85 261.08 626.41
  C 271.03 615.63 273.04 601.28 273.04 586.36
  Q 273.04 322.15 273.07 58.08
  Q 273.07 49.65 272.28 42.83
  C 270.59 28.16 263.35 14.45 249.80 8.50
  Q 240.31 4.34 228.43 4.47
  Q 222.13 4.54 216.00 4.77
  Q 135.45 7.75 47.00 10.91
  Q 34.16 11.36 24.40 16.61
  Q 18.43 19.83 13.90 25.62"
/>
<path stroke="#353535" vector-effect="non-scaling-stroke" d="
  M 41.34 631.49
  L 34.00 629.99"
/>
<path stroke="#4a4a49" vector-effect="non-scaling-stroke" d="
  M 34.00 629.99
  L 29.80 628.74"
/>
<path stroke="#353535" vector-effect="non-scaling-stroke" d="
  M 29.80 628.74
  Q 27.44 627.03 25.11 626.99"
/>
<path stroke="#353535" vector-effect="non-scaling-stroke" d="
  M 10.85 613.45
  Q 10.21 610.19 7.69 607.38"
/>
<path stroke="#353535" vector-effect="non-scaling-stroke" d="
  M 7.48 606.98
  Q 7.65 605.37 6.48 604.24"
/>
<path stroke="#353535" vector-effect="non-scaling-stroke" d="
  M 7.11 37.15
  L 13.90 25.62"
/>
<path stroke="#7f7f7e" vector-effect="non-scaling-stroke" d="
  M 34.00 629.99
  Q 33.66 629.95 33.40 630.11"
/>
<path stroke="#4a4a49" vector-effect="non-scaling-stroke" d="
  M 163.75 26.76
  Q 164.47 27.69 165.44 27.12
  Q 166.09 26.75 165.97 26.16
  Q 165.85 25.61 165.32 25.81
  Q 164.49 26.12 163.75 26.76"
/>
<path stroke="#4a4a49" vector-effect="non-scaling-stroke" d="
  M 163.75 26.76
  Q 163.89 26.18 163.83 25.68
  Q 163.77 25.01 163.13 25.22
  Q 162.60 25.39 162.24 25.91
  A 0.57 0.57 0.0 0 0 162.74 26.81
  L 163.75 26.76"
/>
<path stroke="#c0c0bf" vector-effect="non-scaling-stroke" d="
  M 284.26 241.72
  Q 286.70 241.29 283.18 237.67"
/>
<path stroke="#929292" vector-effect="non-scaling-stroke" d="
  M 283.18 237.67
  L 283.19 167.31"
/>
<path stroke="#e2e3e3" vector-effect="non-scaling-stroke" d="
  M 283.19 167.31
  Q 283.75 166.92 283.71 166.07"
/>
<path stroke="#929292" vector-effect="non-scaling-stroke" d="
  M 283.71 166.07
  Q 284.51 165.19 284.38 164.17
  Q 284.29 163.46 283.57 163.48
  C 281.84 163.52 280.58 165.25 280.70 166.94
  C 280.87 169.46 280.46 171.82 280.52 174.32
  Q 280.93 193.76 280.74 213.00
  Q 280.62 225.30 280.57 237.39
  Q 280.57 239.24 281.24 240.33
  Q 282.46 242.28 284.26 241.72"
/>
<path stroke="#888989" vector-effect="non-scaling-stroke" d="
  M 283.71 166.07
  Q 282.69 165.94 282.29 166.30
  Q 281.81 166.73 282.46 166.74
  Q 283.63 166.75 283.19 167.31"
/>
<path stroke="#666665" vector-effect="non-scaling-stroke" d="
  M 283.18 237.67
  Q 281.10 237.98 284.26 241.72"
/>
</g>
<path fill="#6a6969" d="
  M 274.92 13.53
  L 263.99 12.17
  Q 260.50 8.64 256.42 7.87
  Q 249.63 3.25 239.74 1.34
  Q 235.99 0.61 234.04 1.88
  Q 227.88 1.65 221.34 1.93
  Q 220.58 1.96 220.23 1.68
  Q 219.74 1.27 219.78 0.51
  Q 234.11 -0.42 252.24 2.58
  Q 265.87 4.82 274.92 13.53
  Z"
/>
<path fill="#383838" d="
  M 216.52 0.63
  C 216.22 1.44 215.64 2.04 214.73 2.04
  Q 205.26 2.06 196.23 2.62
  C 188.43 3.10 180.26 2.99 172.29 3.49
  C 162.77 4.08 152.27 3.97 142.58 4.44
  Q 124.39 5.30 107.88 5.68
  C 93.54 6.00 79.30 6.80 64.76 7.17
  C 54.78 7.42 45.00 7.73 35.30 9.21
  Q 34.16 9.29 33.44 8.97
  Q 41.71 6.86 50.25 6.55
  Q 133.39 3.53 216.52 0.63
  Z"
/>
<path fill="#d8d9da" d="
  M 216.52 0.63
  L 219.78 0.51
  Q 219.74 1.27 220.23 1.68
  Q 220.58 1.96 221.34 1.93
  Q 227.88 1.65 234.04 1.88
  Q 244.64 2.36 250.92 5.82
  Q 266.18 14.22 271.53 32.63
  Q 273.59 39.70 273.63 42.38
  Q 273.80 52.95 274.54 63.91
  Q 276.85 63.46 277.85 63.81
  A 0.38 0.37 16.9 0 0 278.34 63.55
  L 278.41 63.28
  L 278.63 63.61
  Q 278.91 64.00 279.38 64.05
  L 289.45 65.09
  L 289.51 70.12
  Q 284.33 68.28 278.47 68.77
  Q 278.01 67.98 277.01 68.60
  L 273.90 68.29
  L 274.00 574.56
  Q 275.89 574.90 276.83 574.45
  Q 277.22 574.51 277.49 574.53
  A 0.83 0.83 0.0 0 0 278.41 573.70
  L 278.43 271.04
  Q 278.82 279.51 278.55 288.00
  C 278.53 288.72 278.88 289.34 278.88 290.01
  Q 278.90 305.91 278.87 321.80
  C 278.87 324.14 279.20 326.45 279.45 328.74
  Q 279.49 329.10 279.73 329.36
  Q 279.96 329.61 279.72 329.81
  Q 279.29 330.18 279.33 330.74
  Q 279.53 333.90 279.19 337.04
  A 0.07 0.06 -3.3 0 0 279.27 337.11
  Q 279.41 337.08 279.54 337.11
  Q 279.92 337.22 279.77 337.58
  Q 278.90 339.81 279.64 342.20
  Q 279.87 342.96 280.65 343.19
  Q 280.96 343.29 280.77 343.54
  Q 280.65 343.71 280.51 343.68
  Q 279.88 343.56 279.87 344.20
  Q 279.87 345.43 280.71 346.28
  Q 281.16 346.73 280.53 346.82
  Q 279.84 346.92 279.82 347.65
  Q 279.77 349.34 280.55 350.46
  Q 280.73 350.71 280.44 350.61
  Q 280.39 350.60 280.34 350.61
  Q 280.00 350.68 279.93 351.01
  Q 279.52 352.94 280.72 354.29
  Q 281.07 354.69 280.57 354.87
  Q 279.93 355.10 280.13 355.75
  Q 280.22 356.06 280.54 356.12
  Q 280.82 356.18 280.88 356.48
  Q 280.92 356.67 280.74 356.74
  Q 280.60 356.80 280.50 356.90
  Q 280.19 357.20 280.32 357.60
  L 281.13 360.28
  Q 281.29 360.80 281.80 360.61
  Q 282.66 360.30 283.50 360.51
  Q 283.99 360.63 284.40 360.93
  Q 284.91 361.30 285.52 361.12
  Q 285.96 360.98 285.91 361.44
  Q 285.81 362.48 286.52 363.22
  Q 286.78 363.49 287.06 363.24
  Q 287.25 363.06 287.34 362.82
  Q 287.50 362.36 287.67 362.82
  Q 287.75 363.03 287.56 363.18
  A 0.41 0.40 -41.6 0 0 287.52 363.80
  Q 287.73 364.01 288.01 364.09
  Q 288.45 364.21 288.62 363.78
  Q 288.81 363.27 289.50 362.79
  Q 289.56 529.63 289.47 586.75
  C 289.46 598.73 287.95 610.92 281.29 621.50
  Q 281.40 620.06 282.18 619.05
  A 1.05 1.05 0.0 0 0 281.23 617.37
  L 272.35 618.41
  Q 276.56 608.98 277.61 598.56
  Q 278.73 589.19 278.33 579.82
  Q 278.31 579.28 277.78 579.20
  Q 277.41 579.14 276.90 579.34
  Q 275.93 579.19 275.10 579.38
  Q 274.81 579.38 274.62 579.31
  Q 274.29 579.18 274.13 579.49
  Q 273.92 579.89 273.92 580.24
  Q 274.10 588.62 273.83 596.34
  Q 272.94 621.57 253.70 635.42
  C 251.47 637.03 249.27 637.86 246.75 638.83
  Q 246.61 638.88 246.66 639.03
  L 246.66 639.03
  Q 246.70 639.16 246.83 639.13
  C 260.59 635.76 270.25 621.45 273.26 608.49
  Q 275.28 599.81 275.19 590.27
  Q 275.49 590.09 275.76 590.10
  Q 275.89 590.11 275.96 590.21
  Q 276.04 590.32 276.04 590.45
  L 276.14 595.27
  Q 276.07 597.08 276.08 598.66
  Q 276.09 600.51 275.59 602.09
  Q 275.09 603.69 274.98 605.45
  C 274.90 606.72 274.31 608.18 273.98 609.48
  Q 270.73 622.13 262.72 630.21
  Q 259.80 633.16 262.98 630.49
  Q 265.30 628.56 267.82 625.55
  Q 273.49 622.72 279.24 622.89
  Q 279.72 622.90 280.01 622.51
  Q 280.53 621.79 281.29 621.50
  L 276.02 628.27
  L 276.59 627.15
  Q 276.89 626.57 276.24 626.64
  L 268.05 627.56
  Q 267.53 627.62 267.14 627.97
  L 259.72 634.81
  Q 254.20 638.19 252.50 638.69
  Q 248.55 639.84 244.65 641.45
  Q 235.71 643.07 227.75 642.78
  Q 143.83 639.76 62.62 636.87
  Q 48.25 636.36 40.73 635.43
  Q 18.94 632.73 7.81 613.81
  C 1.82 603.63 0.30 591.03 0.30 579.00
  Q 0.24 324.98 0.26 64.00
  Q 0.26 55.16 1.72 46.45
  C 4.04 32.69 11.12 20.94 22.96 13.42
  Q 26.33 11.28 30.68 9.99
  Q 32.98 10.19 35.30 9.21
  C 45.00 7.73 54.78 7.42 64.76 7.17
  C 79.30 6.80 93.54 6.00 107.88 5.68
  Q 124.39 5.30 142.58 4.44
  C 152.27 3.97 162.77 4.08 172.29 3.49
  C 180.26 2.99 188.43 3.10 196.23 2.62
  Q 205.26 2.06 214.73 2.04
  C 215.64 2.04 216.22 1.44 216.52 0.63
  Z
  M 13.90 25.62
  Q 9.41 29.77 7.11 37.15
  Q 5.11 41.46 4.38 46.00
  Q 2.63 56.77 3.15 71.51
  C 3.25 74.20 3.12 76.86 3.11 79.52
  Q 2.88 318.11 3.04 565.15
  C 3.04 566.29 3.31 567.36 3.26 568.50
  Q 2.68 579.88 3.69 591.24
  Q 4.28 597.97 6.48 604.24
  Q 6.44 605.79 7.48 606.98
  Q 7.67 607.16 7.69 607.38
  Q 8.60 610.76 10.85 613.45
  Q 16.39 621.96 25.11 626.99
  Q 27.06 628.52 29.80 628.74
  Q 29.68 628.82 29.60 628.90
  Q 29.36 629.15 29.66 629.32
  Q 31.49 630.37 33.40 630.11
  Q 37.13 631.65 41.34 631.49
  C 45.98 632.59 51.70 631.99 56.53 632.23
  Q 62.39 632.53 67.51 632.72
  Q 138.37 635.34 214.51 638.20
  C 231.38 638.83 248.65 639.85 261.08 626.41
  C 271.03 615.63 273.04 601.28 273.04 586.36
  Q 273.04 322.15 273.07 58.08
  Q 273.07 49.65 272.28 42.83
  C 270.59 28.16 263.35 14.45 249.80 8.50
  Q 240.31 4.34 228.43 4.47
  Q 222.13 4.54 216.00 4.77
  Q 135.45 7.75 47.00 10.91
  Q 34.16 11.36 24.40 16.61
  Q 18.43 19.83 13.90 25.62
  Z"
/>
<path fill="#000000" d="
  M 256.42 7.87
  C 259.49 10.90 262.96 14.00 265.32 17.24
  C 272.62 27.25 275.16 39.37 275.18 51.78
  L 274.54 63.91
  Q 273.80 52.95 273.63 42.38
  Q 273.59 39.70 271.53 32.63
  Q 266.18 14.22 250.92 5.82
  Q 244.64 2.36 234.04 1.88
  Q 235.99 0.61 239.74 1.34
  Q 249.63 3.25 256.42 7.87
  Z"
/>
<path fill="#000000" d="
  M 41.34 631.49
  L 34.00 629.99
  L 29.80 628.74
  Q 27.44 627.03 25.11 626.99
  Q 16.39 621.96 10.85 613.45
  Q 10.21 610.19 7.69 607.38
  Q 7.67 607.16 7.48 606.98
  Q 7.65 605.37 6.48 604.24
  Q 4.28 597.97 3.69 591.24
  Q 2.68 579.88 3.26 568.50
  C 3.31 567.36 3.04 566.29 3.04 565.15
  Q 2.88 318.11 3.11 79.52
  C 3.12 76.86 3.25 74.20 3.15 71.51
  Q 2.63 56.77 4.38 46.00
  Q 5.11 41.46 7.11 37.15
  L 13.90 25.62
  Q 18.43 19.83 24.40 16.61
  Q 34.16 11.36 47.00 10.91
  Q 135.45 7.75 216.00 4.77
  Q 222.13 4.54 228.43 4.47
  Q 240.31 4.34 249.80 8.50
  C 263.35 14.45 270.59 28.16 272.28 42.83
  Q 273.07 49.65 273.07 58.08
  Q 273.04 322.15 273.04 586.36
  C 273.04 601.28 271.03 615.63 261.08 626.41
  C 248.65 639.85 231.38 638.83 214.51 638.20
  Q 138.37 635.34 67.51 632.72
  Q 62.39 632.53 56.53 632.23
  C 51.70 631.99 45.98 632.59 41.34 631.49
  Z
  M 163.75 26.76
  Q 164.47 27.69 165.44 27.12
  Q 166.09 26.75 165.97 26.16
  Q 165.85 25.61 165.32 25.81
  Q 164.49 26.12 163.75 26.76
  Q 163.89 26.18 163.83 25.68
  Q 163.77 25.01 163.13 25.22
  Q 162.60 25.39 162.24 25.91
  A 0.57 0.57 0.0 0 0 162.74 26.81
  L 163.75 26.76
  Z"
/>
<path fill="#d8d9da" d="
  M 263.99 12.17
  L 270.16 19.19
  A 4.15 4.11 -16.9 0 0 272.78 20.57
  L 280.01 21.43
  Q 280.60 21.50 280.88 22.01
  Q 281.76 23.57 283.02 24.56
  L 286.09 31.98
  Q 284.44 27.62 276.64 28.09
  Q 275.99 28.13 274.49 27.28
  Q 270.63 21.00 265.47 14.78
  Q 264.63 13.77 261.31 11.12
  A 0.25 0.24 37.8 0 0 260.96 11.16
  L 260.79 11.36
  A 0.07 0.06 35.9 0 0 260.81 11.45
  Q 266.18 15.67 269.54 22.00
  Q 272.54 27.64 274.12 32.97
  L 274.49 34.79
  Q 274.27 35.92 274.94 36.16
  Q 275.36 36.30 275.34 36.75
  Q 275.28 38.60 276.14 42.50
  Q 276.82 45.55 275.18 51.78
  C 275.16 39.37 272.62 27.25 265.32 17.24
  C 262.96 14.00 259.49 10.90 256.42 7.87
  Q 260.50 8.64 263.99 12.17
  Z"
/>
<path fill="#949492" d="
  M 33.44 8.97
  Q 34.16 9.29 35.30 9.21
  Q 32.98 10.19 30.68 9.99
  L 33.44 8.97
  Z"
/>
<path fill="#949492" d="
  M 274.49 27.28
  Q 274.33 29.82 276.68 33.37
  Q 275.15 33.72 275.83 34.85
  A 2.13 2.10 -63.1 0 1 276.12 35.76
  Q 276.22 37.27 276.96 40.76
  Q 278.86 49.80 278.35 61.95
  Q 278.62 62.54 278.41 63.28
  L 278.34 63.55
  A 0.38 0.37 16.9 0 1 277.85 63.81
  Q 276.85 63.46 274.54 63.91
  L 275.18 51.78
  Q 276.82 45.55 276.14 42.50
  Q 275.28 38.60 275.34 36.75
  Q 275.36 36.30 274.94 36.16
  Q 274.27 35.92 274.49 34.79
  Q 274.63 34.89 274.77 34.87
  Q 274.99 34.84 275.02 34.62
  Q 275.27 33.26 274.12 32.97
  Q 272.54 27.64 269.54 22.00
  Q 266.18 15.67 260.81 11.45
  A 0.07 0.06 35.9 0 1 260.79 11.36
  L 260.96 11.16
  A 0.25 0.24 37.8 0 1 261.31 11.12
  Q 264.63 13.77 265.47 14.78
  Q 270.63 21.00 274.49 27.28
  Z"
/>
<path fill="#949492" d="
  M 263.99 12.17
  L 274.92 13.53
  Q 279.94 18.19 283.02 24.56
  Q 281.76 23.57 280.88 22.01
  Q 280.60 21.50 280.01 21.43
  L 272.78 20.57
  A 4.15 4.11 -16.9 0 1 270.16 19.19
  L 263.99 12.17
  Z"
/>
<path fill="#949492" d="
  M 163.75 26.76
  L 162.74 26.81
  A 0.57 0.57 0.0 0 1 162.24 25.91
  Q 162.60 25.39 163.13 25.22
  Q 163.77 25.01 163.83 25.68
  Q 163.89 26.18 163.75 26.76
  Z"
/>
<path fill="#6a6969" d="
  M 13.90 25.62
  L 7.11 37.15
  Q 9.41 29.77 13.90 25.62
  Z"
/>
<path fill="#949492" d="
  M 163.75 26.76
  Q 164.49 26.12 165.32 25.81
  Q 165.85 25.61 165.97 26.16
  Q 166.09 26.75 165.44 27.12
  Q 164.47 27.69 163.75 26.76
  Z"
/>
<path fill="#6a6969" d="
  M 274.49 27.28
  Q 275.99 28.13 276.64 28.09
  Q 284.44 27.62 286.09 31.98
  L 287.36 35.66
  Q 285.06 34.10 284.00 34.15
  Q 280.08 34.31 276.68 33.37
  Q 274.33 29.82 274.49 27.28
  Z"
/>
<path fill="#6a6969" d="
  M 274.12 32.97
  Q 275.27 33.26 275.02 34.62
  Q 274.99 34.84 274.77 34.87
  Q 274.63 34.89 274.49 34.79
  L 274.12 32.97
  Z"
/>
<path fill="#d8d9da" d="
  M 276.68 33.37
  Q 280.08 34.31 284.00 34.15
  Q 285.06 34.10 287.36 35.66
  Q 289.84 47.84 289.40 60.81
  L 288.99 55.50
  Q 288.93 54.67 288.19 55.05
  Q 288.07 55.11 287.97 55.21
  Q 287.79 55.39 287.53 55.39
  Q 287.05 55.39 287.09 55.14
  Q 287.18 54.48 286.54 54.30
  Q 283.22 53.36 279.75 53.51
  Q 279.35 53.79 278.90 53.67
  Q 278.48 53.56 278.48 53.99
  L 278.35 61.95
  Q 278.86 49.80 276.96 40.76
  Q 276.22 37.27 276.12 35.76
  A 2.13 2.10 -63.1 0 0 275.83 34.85
  Q 275.15 33.72 276.68 33.37
  Z"
/>
<path fill="#ebecec" d="
  M 289.40 60.81
  L 289.45 65.09
  L 279.38 64.05
  Q 278.91 64.00 278.63 63.61
  L 278.41 63.28
  Q 278.62 62.54 278.35 61.95
  L 278.48 53.99
  Q 278.48 53.56 278.90 53.67
  Q 279.35 53.79 279.75 53.51
  Q 283.22 53.36 286.54 54.30
  Q 287.18 54.48 287.09 55.14
  Q 287.05 55.39 287.53 55.39
  Q 287.79 55.39 287.97 55.21
  Q 288.07 55.11 288.19 55.05
  Q 288.93 54.67 288.99 55.50
  L 289.40 60.81
  Z"
/>
<path fill="#6a6969" d="
  M 273.90 68.29
  Q 276.00 68.45 275.51 69.25
  C 275.73 79.14 275.39 90.04 275.49 98.92
  C 275.71 121.21 275.39 143.40 275.40 165.64
  Q 275.44 265.27 275.64 361.64
  Q 275.64 361.96 275.50 362.26
  Q 275.38 362.52 275.38 362.76
  Q 275.37 465.18 275.33 567.59
  Q 275.33 569.01 275.16 570.29
  Q 274.95 571.81 275.38 573.28
  Q 275.53 573.82 275.21 574.24
  Q 274.87 574.68 274.00 574.56
  L 273.90 68.29
  Z"
/>
<path fill="#949492" d="
  M 273.90 68.29
  L 277.01 68.60
  L 276.83 574.45
  Q 275.89 574.90 274.00 574.56
  Q 274.87 574.68 275.21 574.24
  Q 275.53 573.82 275.38 573.28
  Q 274.95 571.81 275.16 570.29
  Q 275.33 569.01 275.33 567.59
  Q 275.37 465.18 275.38 362.76
  Q 275.38 362.52 275.50 362.26
  Q 275.64 361.96 275.64 361.64
  Q 275.44 265.27 275.40 165.64
  C 275.39 143.40 275.71 121.21 275.49 98.92
  C 275.39 90.04 275.73 79.14 275.51 69.25
  Q 276.00 68.45 273.90 68.29
  Z"
/>
<path fill="#6a6969" d="
  M 278.47 68.77
  L 278.43 271.04
  L 278.41 573.70
  A 0.83 0.83 0.0 0 1 277.49 574.53
  Q 277.22 574.51 276.83 574.45
  L 277.01 68.60
  Q 278.01 67.98 278.47 68.77
  Z"
/>
<path fill="#ebecec" d="
  M 289.51 70.12
  L 289.50 362.79
  Q 288.81 363.27 288.62 363.78
  Q 288.45 364.21 288.01 364.09
  Q 287.73 364.01 287.52 363.80
  A 0.41 0.40 -41.6 0 1 287.56 363.18
  Q 287.75 363.03 287.67 362.82
  Q 287.50 362.36 287.34 362.82
  Q 287.25 363.06 287.06 363.24
  Q 286.78 363.49 286.52 363.22
  Q 285.81 362.48 285.91 361.44
  Q 285.96 360.98 285.52 361.12
  Q 284.91 361.30 284.40 360.93
  Q 283.99 360.63 283.50 360.51
  Q 282.66 360.30 281.80 360.61
  Q 281.29 360.80 281.13 360.28
  L 280.32 357.60
  Q 280.19 357.20 280.50 356.90
  Q 280.60 356.80 280.74 356.74
  Q 280.92 356.67 280.88 356.48
  Q 280.82 356.18 280.54 356.12
  Q 280.22 356.06 280.13 355.75
  Q 279.93 355.10 280.57 354.87
  Q 281.07 354.69 280.72 354.29
  Q 279.52 352.94 279.93 351.01
  Q 280.00 350.68 280.34 350.61
  Q 280.39 350.60 280.44 350.61
  Q 280.73 350.71 280.55 350.46
  Q 279.77 349.34 279.82 347.65
  Q 279.84 346.92 280.53 346.82
  Q 281.16 346.73 280.71 346.28
  Q 279.87 345.43 279.87 344.20
  Q 279.88 343.56 280.51 343.68
  Q 280.65 343.71 280.77 343.54
  Q 280.96 343.29 280.65 343.19
  Q 279.87 342.96 279.64 342.20
  Q 278.90 339.81 279.77 337.58
  Q 279.92 337.22 279.54 337.11
  Q 279.41 337.08 279.27 337.11
  A 0.07 0.06 -3.3 0 1 279.19 337.04
  Q 279.53 333.90 279.33 330.74
  Q 279.29 330.18 279.72 329.81
  Q 279.96 329.61 279.73 329.36
  Q 279.49 329.10 279.45 328.74
  C 279.20 326.45 278.87 324.14 278.87 321.80
  Q 278.90 305.91 278.88 290.01
  C 278.88 289.34 278.53 288.72 278.55 288.00
  Q 278.82 279.51 278.43 271.04
  L 278.47 68.77
  Q 284.33 68.28 289.51 70.12
  Z
  M 284.26 241.72
  Q 286.70 241.29 283.18 237.67
  L 283.19 167.31
  Q 283.75 166.92 283.71 166.07
  Q 284.51 165.19 284.38 164.17
  Q 284.29 163.46 283.57 163.48
  C 281.84 163.52 280.58 165.25 280.70 166.94
  C 280.87 169.46 280.46 171.82 280.52 174.32
  Q 280.93 193.76 280.74 213.00
  Q 280.62 225.30 280.57 237.39
  Q 280.57 239.24 281.24 240.33
  Q 282.46 242.28 284.26 241.72
  Z"
/>
<path fill="#383838" d="
  M 283.71 166.07
  Q 282.69 165.94 282.29 166.30
  Q 281.81 166.73 282.46 166.74
  Q 283.63 166.75 283.19 167.31
  L 283.18 237.67
  Q 281.10 237.98 284.26 241.72
  Q 282.46 242.28 281.24 240.33
  Q 280.57 239.24 280.57 237.39
  Q 280.62 225.30 280.74 213.00
  Q 280.93 193.76 280.52 174.32
  C 280.46 171.82 280.87 169.46 280.70 166.94
  C 280.58 165.25 281.84 163.52 283.57 163.48
  Q 284.29 163.46 284.38 164.17
  Q 284.51 165.19 283.71 166.07
  Z"
/>
<path fill="#d8d9da" d="
  M 283.71 166.07
  Q 283.75 166.92 283.19 167.31
  Q 283.63 166.75 282.46 166.74
  Q 281.81 166.73 282.29 166.30
  Q 282.69 165.94 283.71 166.07
  Z"
/>
<path fill="#949492" d="
  M 283.18 237.67
  Q 286.70 241.29 284.26 241.72
  Q 281.10 237.98 283.18 237.67
  Z"
/>
<path fill="#000000" d="
  M 275.10 579.38
  L 275.19 590.27
  Q 275.28 599.81 273.26 608.49
  C 270.25 621.45 260.59 635.76 246.83 639.13
  Q 246.70 639.16 246.66 639.03
  L 246.66 639.03
  Q 246.61 638.88 246.75 638.83
  C 249.27 637.86 251.47 637.03 253.70 635.42
  Q 272.94 621.57 273.83 596.34
  Q 274.10 588.62 273.92 580.24
  Q 273.92 579.89 274.13 579.49
  Q 274.29 579.18 274.62 579.31
  Q 274.81 579.38 275.10 579.38
  Z"
/>
<path fill="#949492" d="
  M 275.10 579.38
  Q 275.93 579.19 276.90 579.34
  C 276.65 582.80 277.15 587.20 276.04 590.45
  Q 276.04 590.32 275.96 590.21
  Q 275.89 590.11 275.76 590.10
  Q 275.49 590.09 275.19 590.27
  L 275.10 579.38
  Z"
/>
<path fill="#6a6969" d="
  M 276.90 579.34
  Q 277.41 579.14 277.78 579.20
  Q 278.31 579.28 278.33 579.82
  Q 278.73 589.19 277.61 598.56
  Q 277.01 596.32 276.14 595.27
  L 276.04 590.45
  C 277.15 587.20 276.65 582.80 276.90 579.34
  Z"
/>
<path fill="#000000" d="
  M 277.61 598.56
  Q 276.56 608.98 272.35 618.41
  L 267.82 625.55
  Q 265.30 628.56 262.98 630.49
  Q 259.80 633.16 262.72 630.21
  Q 270.73 622.13 273.98 609.48
  C 274.31 608.18 274.90 606.72 274.98 605.45
  Q 275.09 603.69 275.59 602.09
  Q 276.09 600.51 276.08 598.66
  Q 276.07 597.08 276.14 595.27
  Q 277.01 596.32 277.61 598.56
  Z"
/>
<path fill="#6a6969" d="
  M 6.48 604.24
  Q 7.65 605.37 7.48 606.98
  Q 6.44 605.79 6.48 604.24
  Z"
/>
<path fill="#6a6969" d="
  M 7.69 607.38
  Q 10.21 610.19 10.85 613.45
  Q 8.60 610.76 7.69 607.38
  Z"
/>
<path fill="#ebecec" d="
  M 281.29 621.50
  Q 280.53 621.79 280.01 622.51
  Q 279.72 622.90 279.24 622.89
  Q 273.49 622.72 267.82 625.55
  L 272.35 618.41
  L 281.23 617.37
  A 1.05 1.05 0.0 0 1 282.18 619.05
  Q 281.40 620.06 281.29 621.50
  Z"
/>
<path fill="#000000" d="
  M 276.02 628.27
  Q 274.32 630.48 271.97 632.07
  Q 266.56 634.62 259.72 634.81
  L 267.14 627.97
  Q 267.53 627.62 268.05 627.56
  L 276.24 626.64
  Q 276.89 626.57 276.59 627.15
  L 276.02 628.27
  Z"
/>
<path fill="#6a6969" d="
  M 25.11 626.99
  Q 27.44 627.03 29.80 628.74
  Q 27.06 628.52 25.11 626.99
  Z"
/>
<path fill="#949492" d="
  M 29.80 628.74
  L 34.00 629.99
  Q 33.66 629.95 33.40 630.11
  Q 31.49 630.37 29.66 629.32
  Q 29.36 629.15 29.60 628.90
  Q 29.68 628.82 29.80 628.74
  Z"
/>
<path fill="#6a6969" d="
  M 33.40 630.11
  Q 33.66 629.95 34.00 629.99
  L 41.34 631.49
  Q 37.13 631.65 33.40 630.11
  Z"
/>
<path fill="#6a6969" d="
  M 271.97 632.07
  C 264.09 638.44 254.73 640.76 244.65 641.45
  Q 248.55 639.84 252.50 638.69
  Q 254.20 638.19 259.72 634.81
  Q 266.56 634.62 271.97 632.07
  Z"
/>
</svg>
