<?xml version="1.0" encoding="UTF-8" standalone="no"?>
<!DOCTYPE svg PUBLIC "-//W3C//DTD SVG 1.1//EN" "http://www.w3.org/Graphics/SVG/1.1/DTD/svg11.dtd">
<svg xmlns="http://www.w3.org/2000/svg" version="1.1" viewBox="0.00 0.00 241.00 637.00">
<g stroke-width="2.00" fill="none" stroke-linecap="butt">
<path stroke="#777777" vector-effect="non-scaling-stroke" d="
  M 228.47 12.83
  Q 219.63 11.64 210.04 11.86"
/>
<path stroke="#9a9a9a" vector-effect="non-scaling-stroke" d="
  M 210.04 11.86
  Q 208.36 10.17 207.93 11.19"
/>
<path stroke="#313030" vector-effect="non-scaling-stroke" d="
  M 207.93 11.19
  C 204.62 6.50 198.76 3.37 193.50 1.42
  Q 190.98 0.49 189.16 1.60"
/>
<path stroke="#9a9a9a" vector-effect="non-scaling-stroke" d="
  M 189.16 1.60
  L 174.06 1.02"
/>
<path stroke="#696a6a" vector-effect="non-scaling-stroke" d="
  M 189.16 1.60
  C 204.71 4.59 212.86 16.18 216.33 30.90
  Q 218.16 38.62 218.14 44.68"
/>
<path stroke="#9a9a9a" vector-effect="non-scaling-stroke" d="
  M 218.14 44.68
  L 218.55 62.18"
/>
<path stroke="#dcddde" vector-effect="non-scaling-stroke" d="
  M 218.55 62.18
  Q 217.70 61.89 216.48 62.02"
/>
<path stroke="#696a6a" vector-effect="non-scaling-stroke" d="
  M 216.48 62.02
  Q 216.57 57.68 216.23 47.01
  C 215.66 29.06 208.36 7.28 187.88 5.01
  Q 182.80 4.44 177.75 4.74
  Q 153.88 6.13 130.06 7.54"
/>
<path stroke="#afb0b1" vector-effect="non-scaling-stroke" d="
  M 130.06 7.54
  Q 126.26 7.18 122.87 7.84
  Q 121.76 8.06 122.89 8.12
  Q 123.27 8.14 123.70 8.00"
/>
<path stroke="#696a6a" vector-effect="non-scaling-stroke" d="
  M 123.70 8.00
  L 34.81 13.43"
/>
<path stroke="#afb0b1" vector-effect="non-scaling-stroke" d="
  M 34.81 13.43
  Q 27.98 13.66 32.39 14.14"
/>
<path stroke="#696a6a" vector-effect="non-scaling-stroke" d="
  M 32.39 14.14
  L 27.75 15.06"
/>
<path stroke="#9a9a9a" vector-effect="non-scaling-stroke" d="
  M 27.75 15.06
  Q 25.08 14.78 24.56 16.12"
/>
<path stroke="#696a6a" vector-effect="non-scaling-stroke" d="
  M 24.56 16.12
  Q 15.55 19.91 10.32 28.29
  C 2.02 41.59 1.46 58.46 2.03 73.75
  C 2.13 76.45 1.87 79.07 1.87 81.75
  Q 1.89 326.11 1.95 570.47
  C 1.95 577.69 2.39 584.40 3.74 591.20
  C 5.74 601.35 11.08 612.67 20.07 617.94
  Q 22.01 619.08 24.04 620.14
  Q 26.09 621.22 28.55 621.75
  Q 34.98 623.14 42.00 623.22
  Q 43.97 623.24 46.44 623.80"
/>
<path stroke="#9a9a9a" vector-effect="non-scaling-stroke" d="
  M 46.44 623.80
  L 53.61 624.19"
/>
<path stroke="#696a6a" vector-effect="non-scaling-stroke" d="
  M 53.61 624.19
  Q 53.69 624.10 54.00 624.12
  Q 115.35 627.87 176.70 631.63
  C 189.25 632.40 200.19 630.22 207.67 619.16
  Q 213.34 610.77 214.98 600.99
  Q 217.11 588.28 216.40 573.78"
/>
<path stroke="#dcddde" vector-effect="non-scaling-stroke" d="
  M 216.40 573.78
  L 218.39 573.80"
/>
<path stroke="#afb0b1" vector-effect="non-scaling-stroke" d="
  M 218.39 573.80
  L 218.26 591.17"
/>
<path stroke="#696a6a" vector-effect="non-scaling-stroke" d="
  M 218.26 591.17
  Q 218.08 607.01 210.69 619.94
  Q 207.38 625.74 201.18 629.87"
/>
<path stroke="#9a9a9a" vector-effect="non-scaling-stroke" d="
  M 201.18 629.87
  Q 195.29 634.00 189.50 634.72
  Q 182.35 635.61 172.87 634.62
  Q 168.67 634.19 164.26 634.13
  Q 159.73 634.07 155.60 633.51
  C 151.19 632.91 146.91 633.26 142.61 632.87
  Q 137.03 632.36 131.30 632.07
  Q 125.86 631.79 119.98 631.37
  Q 114.83 631.00 108.96 631.05
  C 107.99 631.06 107.22 630.61 106.27 630.55
  Q 92.55 629.68 81.73 629.08
  Q 77.80 628.86 73.79 628.51
  Q 69.80 628.18 65.82 628.17"
/>
<path stroke="#afb0b1" vector-effect="non-scaling-stroke" d="
  M 65.82 628.17
  Q 59.71 627.92 53.75 627.13
  Q 49.50 626.57 45.79 627.56"
/>
<path stroke="#9a9a9a" vector-effect="non-scaling-stroke" d="
  M 41.21 627.12
  L 23.71 623.53"
/>
<path stroke="#afb0b1" vector-effect="non-scaling-stroke" d="
  M 22.14 13.67
  Q 23.14 14.16 24.56 12.88"
/>
<path stroke="#9a9a9a" vector-effect="non-scaling-stroke" d="
  M 24.56 12.88
  Q 32.19 10.16 40.24 9.79
  Q 45.16 9.57 45.22 9.56
  Q 72.72 7.67 83.51 7.08
  Q 99.79 6.19 120.02 5.09
  Q 122.02 4.98 123.75 4.82
  C 130.81 4.17 137.12 4.01 143.75 3.53
  Q 156.73 2.61 169.78 1.69"
/>
<path stroke="#696a6a" vector-effect="non-scaling-stroke" d="
  M 207.93 11.19
  L 211.22 15.78
  Q 211.51 16.20 211.54 16.71
  Q 211.57 17.27 211.98 17.63
  Q 212.35 17.95 212.56 18.39
  Q 218.52 30.85 219.03 44.71"
/>
<path stroke="#313030" vector-effect="non-scaling-stroke" d="
  M 219.03 44.71
  Q 218.64 44.94 218.14 44.68"
/>
<path stroke="#777777" vector-effect="non-scaling-stroke" d="
  M 24.56 12.88
  Q 23.93 12.83 24.00 12.57"
/>
<path stroke="#737474" vector-effect="non-scaling-stroke" d="
  M 216.48 62.02
  L 216.49 67.04"
/>
<path stroke="#696a6a" vector-effect="non-scaling-stroke" d="
  M 216.49 67.04
  L 216.51 568.97"
/>
<path stroke="#737474" vector-effect="non-scaling-stroke" d="
  M 216.51 568.97
  L 216.40 573.78"
/>
<path stroke="#313030" vector-effect="non-scaling-stroke" d="
  M 53.61 624.19
  Q 50.15 623.23 46.44 623.80"
/>
<path stroke="#313030" vector-effect="non-scaling-stroke" d="
  M 24.56 16.12
  L 27.75 15.06"
/>
<path stroke="#464747" vector-effect="non-scaling-stroke" d="
  M 32.39 14.14
  Q 33.85 13.98 34.81 13.43"
/>
<path stroke="#464747" vector-effect="non-scaling-stroke" d="
  M 123.70 8.00
  L 130.06 7.54"
/>
<path stroke="#464747" vector-effect="non-scaling-stroke" d="
  M 129.12 27.26
  L 129.00 26.31
  Q 128.89 25.46 128.38 26.14
  Q 127.92 26.75 128.15 27.47
  Q 128.25 27.80 128.58 27.71
  L 128.87 27.64
  A 0.35 0.35 0.0 0 0 129.12 27.26"
/>
<path stroke="#464747" vector-effect="non-scaling-stroke" d="
  M 130.89 26.59
  Q 130.54 25.81 130.03 26.50
  Q 129.53 27.18 129.83 27.73
  Q 130.22 28.42 130.74 27.83
  Q 131.21 27.31 130.89 26.59"
/>
<path stroke="#afb0b1" vector-effect="non-scaling-stroke" d="
  M 210.04 11.86
  L 216.40 19.47"
/>
<path stroke="#dcddde" vector-effect="non-scaling-stroke" d="
  M 216.40 19.47
  Q 216.07 19.13 215.82 19.11
  Q 215.30 19.06 215.41 19.58
  L 215.66 20.71"
/>
<path stroke="#696a6a" vector-effect="non-scaling-stroke" d="
  M 215.66 20.71
  Q 214.56 19.11 213.62 17.44
  Q 213.52 17.27 213.34 17.36
  L 213.34 17.37
  Q 213.16 17.47 213.25 17.64
  Q 215.30 21.51 217.47 25.33"
/>
<path stroke="#9a9a9a" vector-effect="non-scaling-stroke" d="
  M 217.47 25.33
  Q 217.08 27.34 217.88 28.80"
/>
<path stroke="#c3c4c5" vector-effect="non-scaling-stroke" d="
  M 217.88 28.80
  Q 218.23 31.72 219.46 33.99"
/>
<path stroke="#afb0b1" vector-effect="non-scaling-stroke" d="
  M 219.46 33.99
  Q 219.27 34.93 219.50 35.99
  Q 220.64 41.27 219.84 46.62
  Q 219.79 46.98 219.29 46.74"
/>
<path stroke="#9a9a9a" vector-effect="non-scaling-stroke" d="
  M 219.29 46.74
  L 219.03 44.71"
/>
<path stroke="#a0a1a2" vector-effect="non-scaling-stroke" d="
  M 235.40 24.57
  Q 234.58 23.56 234.10 23.45"
/>
<path stroke="#b9babb" vector-effect="non-scaling-stroke" d="
  M 234.10 23.45
  Q 233.22 21.86 231.82 20.65
  Q 231.44 20.32 230.94 20.29
  L 216.40 19.47"
/>
<path stroke="#737474" vector-effect="non-scaling-stroke" d="
  M 215.66 20.71
  Q 217.05 24.50 219.50 24.86"
/>
<path stroke="#313030" vector-effect="non-scaling-stroke" d="
  M 219.50 24.86
  Q 220.43 26.16 217.47 25.33"
/>
<path stroke="#cdcecf" vector-effect="non-scaling-stroke" d="
  M 234.10 23.45
  Q 235.22 25.51 234.61 26.37"
/>
<path stroke="#a4a4a4" vector-effect="non-scaling-stroke" d="
  M 234.61 26.37
  Q 233.94 25.42 233.38 25.37
  Q 228.63 24.96 219.50 24.86"
/>
<path stroke="#c3c4c5" vector-effect="non-scaling-stroke" d="
  M 238.26 33.93
  Q 229.50 33.08 223.00 33.13
  Q 221.84 33.14 221.12 32.99
  Q 220.63 32.88 220.37 32.93
  Q 219.61 33.07 219.91 33.69"
/>
<path stroke="#a0a1a2" vector-effect="non-scaling-stroke" d="
  M 219.91 33.69
  L 219.46 33.99"
/>
<path stroke="#8b8b8b" vector-effect="non-scaling-stroke" d="
  M 217.88 28.80
  Q 218.35 28.21 218.12 27.45
  Q 217.81 26.38 218.61 27.15
  Q 219.63 28.14 220.73 28.23
  Q 227.06 28.70 232.86 28.85
  Q 234.17 28.88 235.34 29.37
  Q 235.82 29.57 235.80 29.05
  Q 235.74 27.56 234.61 26.37"
/>
<path stroke="#dcddde" vector-effect="non-scaling-stroke" d="
  M 240.03 63.38
  Q 239.58 58.00 239.42 52.75
  Q 239.28 47.98 239.26 43.23
  Q 239.25 41.75 238.71 40.36
  Q 238.21 39.06 237.97 37.78
  A 0.86 0.86 0.0 0 0 237.16 37.07
  L 220.30 36.35"
/>
<path stroke="#afb0b1" vector-effect="non-scaling-stroke" d="
  M 220.30 36.35
  L 219.91 33.69"
/>
<path stroke="#b9babb" vector-effect="non-scaling-stroke" d="
  M 220.30 36.35
  Q 222.54 50.06 221.98 62.31
  Q 221.95 62.86 221.42 62.72
  Q 220.93 62.58 220.27 62.11"
/>
<path stroke="#777777" vector-effect="non-scaling-stroke" d="
  M 220.27 62.11
  L 219.29 46.74"
/>
<path stroke="#dcddde" vector-effect="non-scaling-stroke" d="
  M 240.25 67.96
  Q 239.14 68.02 239.14 68.62
  Q 239.01 92.74 239.08 149.25
  Q 239.09 160.25 239.16 171.25
  Q 239.25 185.00 239.10 198.75
  Q 239.10 198.93 239.24 199.02
  Q 239.39 199.12 239.39 199.26
  Q 239.37 209.51 239.37 219.48
  Q 239.37 219.76 239.24 220.02
  Q 239.08 220.34 239.08 220.71
  Q 239.15 284.61 239.08 348.80
  Q 239.07 358.67 239.44 367.73
  Q 239.46 368.22 238.97 368.21
  Q 238.12 368.19 237.38 368.70
  A 0.26 0.26 0.0 0 1 236.97 368.52
  L 236.07 362.45
  Q 236.01 362.07 235.64 362.14
  L 235.22 362.21
  Q 235.00 362.25 235.03 362.47
  C 235.30 364.56 235.67 366.42 235.62 368.59
  Q 235.23 387.63 235.37 406.94
  A 0.26 0.26 0.0 0 1 235.01 407.18
  Q 233.20 406.34 231.72 407.39
  Q 231.52 407.53 231.39 407.32
  Q 231.28 407.13 231.36 407.06
  Q 231.82 406.69 231.22 406.59
  Q 230.05 406.41 228.86 406.22
  Q 228.37 406.14 228.26 405.66
  Q 227.58 402.71 226.27 399.94
  C 226.01 399.39 226.06 398.57 226.38 398.04
  Q 226.62 397.65 226.54 397.19
  Q 225.55 391.47 225.67 385.93
  Q 225.71 384.23 224.68 382.71
  Q 224.09 381.84 223.09 382.14
  Q 222.60 382.28 222.39 381.70
  Q 222.23 381.28 222.55 380.95
  L 222.76 380.75
  Q 223.30 380.21 222.54 380.08
  Q 222.36 380.05 222.11 380.04"
/>
<path stroke="#a4a4a4" vector-effect="non-scaling-stroke" d="
  M 222.11 380.04
  L 222.07 67.85
  A 0.75 0.74 29.5 0 0 221.96 67.46
  Q 221.46 66.63 221.07 67.51"
/>
<path stroke="#cdcecf" vector-effect="non-scaling-stroke" d="
  M 221.07 67.51
  L 220.33 67.70"
/>
<path stroke="#a4a4a4" vector-effect="non-scaling-stroke" d="
  M 220.33 67.70
  Q 219.62 66.69 218.56 67.37"
/>
<path stroke="#dcddde" vector-effect="non-scaling-stroke" d="
  M 218.56 67.37
  Q 217.18 67.53 216.49 67.04"
/>
<path stroke="#a4a4a4" vector-effect="non-scaling-stroke" d="
  M 218.55 62.18
  Q 218.57 62.78 219.25 62.78
  Q 219.99 62.79 220.27 62.11"
/>
<path stroke="#cdcecf" vector-effect="non-scaling-stroke" d="
  M 227.10 163.42
  Q 225.67 164.95 225.69 167.50
  Q 225.84 182.68 225.79 234.75
  Q 225.79 235.55 226.91 236.94"
/>
<path stroke="#a4a4a4" vector-effect="non-scaling-stroke" d="
  M 226.91 236.94
  Q 227.39 238.37 229.08 239.17"
/>
<path stroke="#cdcecf" vector-effect="non-scaling-stroke" d="
  M 229.08 239.17
  Q 230.60 240.51 232.84 238.58
  Q 233.27 238.20 232.78 237.90
  L 230.02 236.20"
/>
<path stroke="#b9babb" vector-effect="non-scaling-stroke" d="
  M 230.02 236.20
  Q 229.05 234.68 229.03 233.75
  Q 228.93 228.72 228.91 223.72"
/>
<path stroke="#cdcecf" vector-effect="non-scaling-stroke" d="
  M 228.91 223.72
  L 228.96 173.50"
/>
<path stroke="#a4a4a4" vector-effect="non-scaling-stroke" d="
  M 228.96 173.50
  Q 229.01 170.39 228.88 167.22
  C 228.80 165.19 229.54 164.33 230.28 162.65
  Q 230.47 162.24 230.89 162.09
  Q 231.08 162.02 231.31 161.96"
/>
<path stroke="#cdcecf" vector-effect="non-scaling-stroke" d="
  M 231.31 161.96
  Q 232.14 162.57 232.95 162.56
  Q 233.61 162.56 233.12 162.11
  Q 232.62 161.65 231.60 161.37"
/>
<path stroke="#a4a4a4" vector-effect="non-scaling-stroke" d="
  M 231.60 161.37
  Q 228.05 160.30 227.10 163.42"
/>
<path stroke="#8b8b8b" vector-effect="non-scaling-stroke" d="
  M 231.60 161.37
  Q 231.55 161.77 231.31 161.96"
/>
<path stroke="#8b8b8b" vector-effect="non-scaling-stroke" d="
  M 228.96 173.50
  Q 228.47 173.97 228.12 174.10
  Q 227.56 174.31 227.54 173.71
  L 227.10 163.42"
/>
<path stroke="#a0a1a2" vector-effect="non-scaling-stroke" d="
  M 228.91 223.72
  Q 228.63 223.80 228.54 223.10
  Q 228.47 222.55 227.96 222.78
  Q 227.75 222.88 227.58 223.10
  Q 227.44 223.28 227.40 223.59
  Q 226.62 229.72 227.67 235.78"
/>
<path stroke="#8b8b8b" vector-effect="non-scaling-stroke" d="
  M 227.67 235.78
  Q 226.71 236.16 226.91 236.94"
/>
<path stroke="#8b8b8b" vector-effect="non-scaling-stroke" d="
  M 230.02 236.20
  Q 230.10 238.71 229.08 239.17"
/>
<path stroke="#777777" vector-effect="non-scaling-stroke" d="
  M 230.02 236.20
  Q 229.47 236.28 229.04 235.24
  Q 228.87 234.82 227.67 235.78"
/>
<path stroke="#dcddde" vector-effect="non-scaling-stroke" d="
  M 226.72 360.84
  C 228.10 358.06 231.41 358.02 233.67 359.81
  Q 233.92 360.01 234.14 359.76
  L 234.30 359.57
  Q 234.38 359.48 234.29 359.40
  Q 230.01 355.65 226.63 359.98
  Q 226.10 360.67 225.82 361.46
  Q 225.57 362.20 226.13 361.65
  Q 226.49 361.30 226.72 360.84"
/>
<path stroke="#9a9a9a" vector-effect="non-scaling-stroke" d="
  M 218.56 67.37
  L 218.55 568.85"
/>
<path stroke="#dcddde" vector-effect="non-scaling-stroke" d="
  M 218.55 568.85
  L 217.99 568.38
  Q 217.61 568.05 217.29 568.44
  Q 216.98 568.82 216.51 568.97"
/>
<path stroke="#8b8b8b" vector-effect="non-scaling-stroke" d="
  M 220.33 67.70
  L 220.17 540.29"
/>
<path stroke="#a4a4a4" vector-effect="non-scaling-stroke" d="
  M 220.17 540.29
  L 220.01 568.48
  Q 220.01 569.01 219.49 569.10
  Q 218.95 569.20 218.55 568.85"
/>
<path stroke="#9a9a9a" vector-effect="non-scaling-stroke" d="
  M 222.11 380.04
  Q 222.09 473.90 222.06 567.75
  Q 222.06 568.57 221.54 569.38"
/>
<path stroke="#a4a4a4" vector-effect="non-scaling-stroke" d="
  M 221.54 569.38
  Q 221.40 569.16 221.22 569.00
  Q 220.91 568.70 220.91 568.26
  L 220.98 563.22"
/>
<path stroke="#8b8b8b" vector-effect="non-scaling-stroke" d="
  M 220.98 563.22
  L 221.07 67.51"
/>
<path stroke="#cdcecf" vector-effect="non-scaling-stroke" d="
  M 220.98 563.22
  L 220.63 540.57
  Q 220.63 540.39 220.45 540.36
  Q 220.32 540.34 220.17 540.29"
/>
<path stroke="#dcddde" vector-effect="non-scaling-stroke" d="
  M 240.25 544.46
  L 240.04 544.10
  A 0.23 0.23 0.0 0 0 239.63 544.29
  Q 239.75 544.63 239.34 544.63
  Q 238.94 544.63 238.94 545.04
  L 239.23 568.04
  A 0.98 0.98 0.0 0 1 238.27 569.03
  L 221.54 569.38"
/>
<path stroke="#c3c4c5" vector-effect="non-scaling-stroke" d="
  M 225.92 445.35
  Q 225.63 444.71 225.66 445.41
  Q 225.67 445.55 225.77 445.63
  Q 225.90 445.74 225.95 445.90
  Q 227.13 449.20 230.57 449.70
  Q 231.21 449.79 231.68 449.33
  Q 232.00 449.02 231.61 448.82
  Q 231.42 448.72 231.26 448.86
  Q 230.98 449.11 230.61 449.05
  Q 227.36 448.53 225.92 445.35"
/>
<path stroke="#dcddde" vector-effect="non-scaling-stroke" d="
  M 240.11 581.96
  Q 238.26 578.02 239.17 574.29
  A 1.50 1.49 -82.5 0 0 237.75 572.44
  C 232.53 572.31 227.51 573.43 222.31 573.16
  Q 221.96 573.14 221.73 573.28
  Q 221.40 573.46 221.27 573.73"
/>
<path stroke="#b9babb" vector-effect="non-scaling-stroke" d="
  M 221.27 573.73
  Q 220.57 574.05 219.50 573.56
  Q 218.97 573.31 218.39 573.80"
/>
<path stroke="#dcddde" vector-effect="non-scaling-stroke" d="
  M 239.81 591.22
  Q 239.71 590.69 239.47 590.48
  Q 238.99 590.06 238.73 590.64
  Q 238.44 591.25 238.43 592.31"
/>
<path stroke="#c3c4c5" vector-effect="non-scaling-stroke" d="
  M 238.43 592.31
  L 238.03 585.68
  A 0.91 0.91 0.0 0 0 237.09 584.83
  Q 231.52 585.00 225.92 584.85
  Q 224.50 584.81 223.04 584.51
  Q 222.54 584.41 222.44 583.91
  L 222.10 582.25"
/>
<path stroke="#9a9a9a" vector-effect="non-scaling-stroke" d="
  M 222.10 582.25
  L 221.79 573.88"
/>
<path stroke="#afb0b1" vector-effect="non-scaling-stroke" d="
  M 221.79 573.88
  Q 221.54 573.61 221.27 573.73"
/>
<path stroke="#777777" vector-effect="non-scaling-stroke" d="
  M 221.79 573.88
  Q 221.00 573.83 221.02 574.25
  Q 221.33 582.23 220.35 590.05"
/>
<path stroke="#afb0b1" vector-effect="non-scaling-stroke" d="
  M 220.35 590.05
  Q 220.01 590.01 219.85 589.57
  Q 219.69 589.11 219.44 589.52
  Q 219.01 590.21 219.01 591.25"
/>
<path stroke="#464747" vector-effect="non-scaling-stroke" d="
  M 219.01 591.25
  Q 218.83 591.06 218.77 590.88
  Q 218.66 590.56 218.48 590.84
  L 218.26 591.17"
/>
<path stroke="#777777" vector-effect="non-scaling-stroke" d="
  M 219.0364 585.5677
  A 5.86 0.77 91.6 0 0 219.9697 579.7315
  A 5.86 0.77 91.6 0 0 219.3636 573.8523
  A 5.86 0.77 91.6 0 0 218.4303 579.6885
  A 5.86 0.77 91.6 0 0 219.0364 585.5677"
/>
<path stroke="#8b8b8b" vector-effect="non-scaling-stroke" d="
  M 222.10 582.25
  L 221.39 592.01"
/>
<path stroke="#313030" vector-effect="non-scaling-stroke" d="
  M 221.39 592.01
  Q 221.43 591.62 221.32 591.40
  A 0.36 0.36 0.0 0 0 220.73 591.33
  L 220.31 591.82"
/>
<path stroke="#9a9a9a" vector-effect="non-scaling-stroke" d="
  M 220.31 591.82
  Q 220.03 590.76 220.35 590.05"
/>
<path stroke="#cdcecf" vector-effect="non-scaling-stroke" d="
  M 238.43 592.31
  L 237.85 596.58"
/>
<path stroke="#c3c4c5" vector-effect="non-scaling-stroke" d="
  M 237.85 596.58
  L 236.78 598.44
  A 0.64 0.63 26.3 0 1 235.97 598.71
  Q 235.41 598.46 234.93 598.81
  Q 234.52 599.12 234.00 599.09
  Q 226.80 598.62 220.31 600.92"
/>
<path stroke="#5a5b5b" vector-effect="non-scaling-stroke" d="
  M 220.31 600.92
  L 221.39 592.01"
/>
<path stroke="#696a6a" vector-effect="non-scaling-stroke" d="
  M 220.31 591.82
  C 220.45 596.72 219.02 601.17 218.11 605.71
  Q 217.13 610.59 213.44 618.44
  Q 212.91 619.55 213.62 618.65
  Q 213.76 618.48 213.83 618.16"
/>
<path stroke="#dcddde" vector-effect="non-scaling-stroke" d="
  M 213.83 618.16
  Q 213.80 618.86 214.18 619.09
  Q 214.63 619.37 214.96 618.96
  Q 215.88 617.85 217.25 617.84
  Q 225.36 617.74 231.98 616.85"
/>
<path stroke="#9a9a9a" vector-effect="non-scaling-stroke" d="
  M 231.98 616.85
  Q 231.64 617.93 230.76 618.94"
/>
<path stroke="#696a6a" vector-effect="non-scaling-stroke" d="
  M 230.76 618.94
  C 229.75 620.16 228.63 621.22 226.95 621.29
  Q 220.32 621.56 214.01 621.96
  Q 213.51 621.99 213.14 622.32
  L 205.79 628.74"
/>
<path stroke="#9a9a9a" vector-effect="non-scaling-stroke" d="
  M 205.79 628.74
  Q 204.48 629.26 204.36 628.40"
/>
<path stroke="#696a6a" vector-effect="non-scaling-stroke" d="
  M 204.36 628.40
  Q 208.09 625.78 209.21 623.99
  Q 218.54 608.93 219.01 591.25"
/>
<path stroke="#a4a4a4" vector-effect="non-scaling-stroke" d="
  M 237.01 606.87
  L 231.98 616.85"
/>
<path stroke="#737474" vector-effect="non-scaling-stroke" d="
  M 213.83 618.16
  Q 217.32 612.31 219.54 605.14"
/>
<path stroke="#dcddde" vector-effect="non-scaling-stroke" d="
  M 219.54 605.14
  Q 226.85 603.54 234.79 603.84
  Q 235.29 603.86 235.62 603.48
  Q 237.70 601.12 237.85 596.58"
/>
<path stroke="#313030" vector-effect="non-scaling-stroke" d="
  M 204.36 628.40
  Q 203.54 628.72 202.98 629.34
  Q 202.65 629.71 202.17 629.82
  Q 201.67 629.93 201.18 629.87"
/>
<path stroke="#696a6a" vector-effect="non-scaling-stroke" d="
  M 220.31 600.92
  L 219.54 605.14"
/>
<path stroke="#777777" vector-effect="non-scaling-stroke" d="
  M 231.44 619.56
  L 231.02 619.71"
/>
<path stroke="#313030" vector-effect="non-scaling-stroke" d="
  M 231.02 619.71
  Q 231.19 618.93 230.76 618.94"
/>
<path stroke="#464747" vector-effect="non-scaling-stroke" d="
  M 231.02 619.71
  Q 229.73 620.73 229.00 622.23"
/>
<path stroke="#5a5b5b" vector-effect="non-scaling-stroke" d="
  M 229.00 622.23
  C 227.12 624.15 225.03 626.98 222.25 627.26
  Q 218.82 627.61 209.17 628.01
  C 207.83 628.07 206.96 628.65 205.88 629.30"
/>
<path stroke="#313030" vector-effect="non-scaling-stroke" d="
  M 205.88 629.30
  Q 205.90 628.98 205.79 628.74"
/>
<path stroke="#a0a1a2" vector-effect="non-scaling-stroke" d="
  M 229.04 622.79
  Q 229.13 622.42 229.00 622.23"
/>
<path stroke="#8b8b8b" vector-effect="non-scaling-stroke" d="
  M 222.28 629.19
  Q 219.39 630.13 214.51 629.87
  Q 212.38 629.76 205.55 630.60
  Q 204.97 630.67 205.20 630.13
  Q 205.38 629.72 205.88 629.30"
/>
<path stroke="#777777" vector-effect="non-scaling-stroke" d="
  M 65.82 628.17
  L 60.52 628.50"
/>
<path stroke="#313030" vector-effect="non-scaling-stroke" d="
  M 215.98 632.61
  Q 213.99 631.08 211.19 632.37
  Q 210.71 632.59 210.20 632.53
  Q 207.59 632.22 205.22 633.23
  Q 204.69 633.46 204.13 633.40
  Q 200.30 632.98 197.04 634.02
  Q 194.47 634.84 197.11 635.36
  Q 197.20 635.37 198.28 635.28"
/>
</g>
<path fill="#626060" d="
  M 228.47 12.83
  Q 219.63 11.64 210.04 11.86
  Q 208.36 10.17 207.93 11.19
  C 204.62 6.50 198.76 3.37 193.50 1.42
  Q 190.98 0.49 189.16 1.60
  L 174.06 1.02
  Q 177.84 0.22 181.50 0.26
  Q 194.02 0.41 206.50 1.52
  Q 219.96 2.73 228.47 12.83
  Z"
/>
<path fill="#d2d3d4" d="
  M 174.06 1.02
  L 189.16 1.60
  C 204.71 4.59 212.86 16.18 216.33 30.90
  Q 218.16 38.62 218.14 44.68
  L 218.55 62.18
  Q 217.70 61.89 216.48 62.02
  Q 216.57 57.68 216.23 47.01
  C 215.66 29.06 208.36 7.28 187.88 5.01
  Q 182.80 4.44 177.75 4.74
  Q 153.88 6.13 130.06 7.54
  Q 126.26 7.18 122.87 7.84
  Q 121.76 8.06 122.89 8.12
  Q 123.27 8.14 123.70 8.00
  L 34.81 13.43
  Q 27.98 13.66 32.39 14.14
  L 27.75 15.06
  Q 25.08 14.78 24.56 16.12
  Q 15.55 19.91 10.32 28.29
  C 2.02 41.59 1.46 58.46 2.03 73.75
  C 2.13 76.45 1.87 79.07 1.87 81.75
  Q 1.89 326.11 1.95 570.47
  C 1.95 577.69 2.39 584.40 3.74 591.20
  C 5.74 601.35 11.08 612.67 20.07 617.94
  Q 22.01 619.08 24.04 620.14
  Q 26.09 621.22 28.55 621.75
  Q 34.98 623.14 42.00 623.22
  Q 43.97 623.24 46.44 623.80
  L 53.61 624.19
  Q 53.69 624.10 54.00 624.12
  Q 115.35 627.87 176.70 631.63
  C 189.25 632.40 200.19 630.22 207.67 619.16
  Q 213.34 610.77 214.98 600.99
  Q 217.11 588.28 216.40 573.78
  L 218.39 573.80
  L 218.26 591.17
  Q 218.08 607.01 210.69 619.94
  Q 207.38 625.74 201.18 629.87
  Q 195.29 634.00 189.50 634.72
  Q 182.35 635.61 172.87 634.62
  Q 168.67 634.19 164.26 634.13
  Q 159.73 634.07 155.60 633.51
  C 151.19 632.91 146.91 633.26 142.61 632.87
  Q 137.03 632.36 131.30 632.07
  Q 125.86 631.79 119.98 631.37
  Q 114.83 631.00 108.96 631.05
  C 107.99 631.06 107.22 630.61 106.27 630.55
  Q 92.55 629.68 81.73 629.08
  Q 77.80 628.86 73.79 628.51
  Q 69.80 628.18 65.82 628.17
  Q 59.71 627.92 53.75 627.13
  Q 49.50 626.57 45.79 627.56
  Q 43.37 627.99 41.21 627.12
  L 23.71 623.53
  C 8.49 615.97 2.04 599.16 0.78 583.24
  Q 0.25 576.59 0.00 569.88
  L 0.00 68.75
  Q 0.28 62.88 0.54 57.01
  C 1.29 40.27 6.64 22.45 22.14 13.67
  Q 23.14 14.16 24.56 12.88
  Q 32.19 10.16 40.24 9.79
  Q 45.16 9.57 45.22 9.56
  Q 72.72 7.67 83.51 7.08
  Q 99.79 6.19 120.02 5.09
  Q 122.02 4.98 123.75 4.82
  C 130.81 4.17 137.12 4.01 143.75 3.53
  Q 156.73 2.61 169.78 1.69
  Q 172.34 0.24 174.06 1.02
  Z"
/>
<path fill="#000000" d="
  M 207.93 11.19
  L 211.22 15.78
  Q 211.51 16.20 211.54 16.71
  Q 211.57 17.27 211.98 17.63
  Q 212.35 17.95 212.56 18.39
  Q 218.52 30.85 219.03 44.71
  Q 218.64 44.94 218.14 44.68
  Q 218.16 38.62 216.33 30.90
  C 212.86 16.18 204.71 4.59 189.16 1.60
  Q 190.98 0.49 193.50 1.42
  C 198.76 3.37 204.62 6.50 207.93 11.19
  Z"
/>
<path fill="#626060" d="
  M 169.78 1.69
  Q 156.73 2.61 143.75 3.53
  C 137.12 4.01 130.81 4.17 123.75 4.82
  Q 122.02 4.98 120.02 5.09
  Q 99.79 6.19 83.51 7.08
  Q 72.72 7.67 45.22 9.56
  Q 45.16 9.57 40.24 9.79
  Q 32.19 10.16 24.56 12.88
  Q 23.93 12.83 24.00 12.57
  Q 31.23 9.53 40.00 8.99
  Q 102.00 5.15 164.00 1.35
  Q 166.95 1.17 169.78 1.69
  Z"
/>
<path fill="#000000" d="
  M 216.48 62.02
  L 216.49 67.04
  L 216.51 568.97
  L 216.40 573.78
  Q 217.11 588.28 214.98 600.99
  Q 213.34 610.77 207.67 619.16
  C 200.19 630.22 189.25 632.40 176.70 631.63
  Q 115.35 627.87 54.00 624.12
  Q 53.69 624.10 53.61 624.19
  Q 50.15 623.23 46.44 623.80
  Q 43.97 623.24 42.00 623.22
  Q 34.98 623.14 28.55 621.75
  Q 26.09 621.22 24.04 620.14
  Q 22.01 619.08 20.07 617.94
  C 11.08 612.67 5.74 601.35 3.74 591.20
  C 2.39 584.40 1.95 577.69 1.95 570.47
  Q 1.89 326.11 1.87 81.75
  C 1.87 79.07 2.13 76.45 2.03 73.75
  C 1.46 58.46 2.02 41.59 10.32 28.29
  Q 15.55 19.91 24.56 16.12
  L 27.75 15.06
  L 32.39 14.14
  Q 33.85 13.98 34.81 13.43
  L 123.70 8.00
  L 130.06 7.54
  Q 153.88 6.13 177.75 4.74
  Q 182.80 4.44 187.88 5.01
  C 208.36 7.28 215.66 29.06 216.23 47.01
  Q 216.57 57.68 216.48 62.02
  Z
  M 129.12 27.26
  L 129.00 26.31
  Q 128.89 25.46 128.38 26.14
  Q 127.92 26.75 128.15 27.47
  Q 128.25 27.80 128.58 27.71
  L 128.87 27.64
  A 0.35 0.35 0.0 0 0 129.12 27.26
  Z
  M 130.89 26.59
  Q 130.54 25.81 130.03 26.50
  Q 129.53 27.18 129.83 27.73
  Q 130.22 28.42 130.74 27.83
  Q 131.21 27.31 130.89 26.59
  Z"
/>
<path fill="#8c8d8e" d="
  M 130.06 7.54
  L 123.70 8.00
  Q 123.27 8.14 122.89 8.12
  Q 121.76 8.06 122.87 7.84
  Q 126.26 7.18 130.06 7.54
  Z"
/>
<path fill="#d2d3d4" d="
  M 210.04 11.86
  L 216.40 19.47
  Q 216.07 19.13 215.82 19.11
  Q 215.30 19.06 215.41 19.58
  L 215.66 20.71
  Q 214.56 19.11 213.62 17.44
  Q 213.52 17.27 213.34 17.36
  L 213.34 17.37
  Q 213.16 17.47 213.25 17.64
  Q 215.30 21.51 217.47 25.33
  Q 217.08 27.34 217.88 28.80
  Q 218.23 31.72 219.46 33.99
  Q 219.27 34.93 219.50 35.99
  Q 220.64 41.27 219.84 46.62
  Q 219.79 46.98 219.29 46.74
  L 219.03 44.71
  Q 218.52 30.85 212.56 18.39
  Q 212.35 17.95 211.98 17.63
  Q 211.57 17.27 211.54 16.71
  Q 211.51 16.20 211.22 15.78
  L 207.93 11.19
  Q 208.36 10.17 210.04 11.86
  Z"
/>
<path fill="#8c8d8e" d="
  M 228.47 12.83
  Q 233.01 18.16 235.40 24.57
  Q 234.58 23.56 234.10 23.45
  Q 233.22 21.86 231.82 20.65
  Q 231.44 20.32 230.94 20.29
  L 216.40 19.47
  L 210.04 11.86
  Q 219.63 11.64 228.47 12.83
  Z"
/>
<path fill="#8c8d8e" d="
  M 24.00 12.57
  Q 23.93 12.83 24.56 12.88
  Q 23.14 14.16 22.14 13.67
  L 24.00 12.57
  Z"
/>
<path fill="#8c8d8e" d="
  M 34.81 13.43
  Q 33.85 13.98 32.39 14.14
  Q 27.98 13.66 34.81 13.43
  Z"
/>
<path fill="#626060" d="
  M 27.75 15.06
  L 24.56 16.12
  Q 25.08 14.78 27.75 15.06
  Z"
/>
<path fill="#000000" d="
  M 215.66 20.71
  Q 217.05 24.50 219.50 24.86
  Q 220.43 26.16 217.47 25.33
  Q 215.30 21.51 213.25 17.64
  Q 213.16 17.47 213.34 17.37
  L 213.34 17.36
  Q 213.52 17.27 213.62 17.44
  Q 214.56 19.11 215.66 20.71
  Z"
/>
<path fill="#e6e7e7" d="
  M 216.40 19.47
  L 230.94 20.29
  Q 231.44 20.32 231.82 20.65
  Q 233.22 21.86 234.10 23.45
  Q 235.22 25.51 234.61 26.37
  Q 233.94 25.42 233.38 25.37
  Q 228.63 24.96 219.50 24.86
  Q 217.05 24.50 215.66 20.71
  L 215.41 19.58
  Q 215.30 19.06 215.82 19.11
  Q 216.07 19.13 216.40 19.47
  Z"
/>
<path fill="#b4b5b6" d="
  M 234.10 23.45
  Q 234.58 23.56 235.40 24.57
  L 238.26 33.93
  Q 229.50 33.08 223.00 33.13
  Q 221.84 33.14 221.12 32.99
  Q 220.63 32.88 220.37 32.93
  Q 219.61 33.07 219.91 33.69
  L 219.46 33.99
  Q 218.23 31.72 217.88 28.80
  Q 218.35 28.21 218.12 27.45
  Q 217.81 26.38 218.61 27.15
  Q 219.63 28.14 220.73 28.23
  Q 227.06 28.70 232.86 28.85
  Q 234.17 28.88 235.34 29.37
  Q 235.82 29.57 235.80 29.05
  Q 235.74 27.56 234.61 26.37
  Q 235.22 25.51 234.10 23.45
  Z"
/>
<path fill="#626060" d="
  M 219.50 24.86
  Q 228.63 24.96 233.38 25.37
  Q 233.94 25.42 234.61 26.37
  Q 235.74 27.56 235.80 29.05
  Q 235.82 29.57 235.34 29.37
  Q 234.17 28.88 232.86 28.85
  Q 227.06 28.70 220.73 28.23
  Q 219.63 28.14 218.61 27.15
  Q 217.81 26.38 218.12 27.45
  Q 218.35 28.21 217.88 28.80
  Q 217.08 27.34 217.47 25.33
  Q 220.43 26.16 219.50 24.86
  Z"
/>
<path fill="#8c8d8e" d="
  M 129.12 27.26
  A 0.35 0.35 0.0 0 1 128.87 27.64
  L 128.58 27.71
  Q 128.25 27.80 128.15 27.47
  Q 127.92 26.75 128.38 26.14
  Q 128.89 25.46 129.00 26.31
  L 129.12 27.26
  Z"
/>
<path fill="#8c8d8e" d="
  M 130.89 26.59
  Q 131.21 27.31 130.74 27.83
  Q 130.22 28.42 129.83 27.73
  Q 129.53 27.18 130.03 26.50
  Q 130.54 25.81 130.89 26.59
  Z"
/>
<path fill="#d2d3d4" d="
  M 238.26 33.93
  Q 238.86 36.94 239.22 39.76
  Q 240.69 51.42 240.03 63.38
  Q 239.58 58.00 239.42 52.75
  Q 239.28 47.98 239.26 43.23
  Q 239.25 41.75 238.71 40.36
  Q 238.21 39.06 237.97 37.78
  A 0.86 0.86 0.0 0 0 237.16 37.07
  L 220.30 36.35
  L 219.91 33.69
  Q 219.61 33.07 220.37 32.93
  Q 220.63 32.88 221.12 32.99
  Q 221.84 33.14 223.00 33.13
  Q 229.50 33.08 238.26 33.93
  Z"
/>
<path fill="#8c8d8e" d="
  M 219.91 33.69
  L 220.30 36.35
  Q 222.54 50.06 221.98 62.31
  Q 221.95 62.86 221.42 62.72
  Q 220.93 62.58 220.27 62.11
  L 219.29 46.74
  Q 219.79 46.98 219.84 46.62
  Q 220.64 41.27 219.50 35.99
  Q 219.27 34.93 219.46 33.99
  L 219.91 33.69
  Z"
/>
<path fill="#e6e7e7" d="
  M 240.03 63.38
  L 240.25 67.96
  Q 239.14 68.02 239.14 68.62
  Q 239.01 92.74 239.08 149.25
  Q 239.09 160.25 239.16 171.25
  Q 239.25 185.00 239.10 198.75
  Q 239.10 198.93 239.24 199.02
  Q 239.39 199.12 239.39 199.26
  Q 239.37 209.51 239.37 219.48
  Q 239.37 219.76 239.24 220.02
  Q 239.08 220.34 239.08 220.71
  Q 239.15 284.61 239.08 348.80
  Q 239.07 358.67 239.44 367.73
  Q 239.46 368.22 238.97 368.21
  Q 238.12 368.19 237.38 368.70
  A 0.26 0.26 0.0 0 1 236.97 368.52
  L 236.07 362.45
  Q 236.01 362.07 235.64 362.14
  L 235.22 362.21
  Q 235.00 362.25 235.03 362.47
  C 235.30 364.56 235.67 366.42 235.62 368.59
  Q 235.23 387.63 235.37 406.94
  A 0.26 0.26 0.0 0 1 235.01 407.18
  Q 233.20 406.34 231.72 407.39
  Q 231.52 407.53 231.39 407.32
  Q 231.28 407.13 231.36 407.06
  Q 231.82 406.69 231.22 406.59
  Q 230.05 406.41 228.86 406.22
  Q 228.37 406.14 228.26 405.66
  Q 227.58 402.71 226.27 399.94
  C 226.01 399.39 226.06 398.57 226.38 398.04
  Q 226.62 397.65 226.54 397.19
  Q 225.55 391.47 225.67 385.93
  Q 225.71 384.23 224.68 382.71
  Q 224.09 381.84 223.09 382.14
  Q 222.60 382.28 222.39 381.70
  Q 222.23 381.28 222.55 380.95
  L 222.76 380.75
  Q 223.30 380.21 222.54 380.08
  Q 222.36 380.05 222.11 380.04
  L 222.07 67.85
  A 0.75 0.74 29.5 0 0 221.96 67.46
  Q 221.46 66.63 221.07 67.51
  L 220.33 67.70
  Q 219.62 66.69 218.56 67.37
  Q 217.18 67.53 216.49 67.04
  L 216.48 62.02
  Q 217.70 61.89 218.55 62.18
  Q 218.57 62.78 219.25 62.78
  Q 219.99 62.79 220.27 62.11
  Q 220.93 62.58 221.42 62.72
  Q 221.95 62.86 221.98 62.31
  Q 222.54 50.06 220.30 36.35
  L 237.16 37.07
  A 0.86 0.86 0.0 0 1 237.97 37.78
  Q 238.21 39.06 238.71 40.36
  Q 239.25 41.75 239.26 43.23
  Q 239.28 47.98 239.42 52.75
  Q 239.58 58.00 240.03 63.38
  Z
  M 227.10 163.42
  Q 225.67 164.95 225.69 167.50
  Q 225.84 182.68 225.79 234.75
  Q 225.79 235.55 226.91 236.94
  Q 227.39 238.37 229.08 239.17
  Q 230.60 240.51 232.84 238.58
  Q 233.27 238.20 232.78 237.90
  L 230.02 236.20
  Q 229.05 234.68 229.03 233.75
  Q 228.93 228.72 228.91 223.72
  L 228.96 173.50
  Q 229.01 170.39 228.88 167.22
  C 228.80 165.19 229.54 164.33 230.28 162.65
  Q 230.47 162.24 230.89 162.09
  Q 231.08 162.02 231.31 161.96
  Q 232.14 162.57 232.95 162.56
  Q 233.61 162.56 233.12 162.11
  Q 232.62 161.65 231.60 161.37
  Q 228.05 160.30 227.10 163.42
  Z
  M 226.72 360.84
  C 228.10 358.06 231.41 358.02 233.67 359.81
  Q 233.92 360.01 234.14 359.76
  L 234.30 359.57
  Q 234.38 359.48 234.29 359.40
  Q 230.01 355.65 226.63 359.98
  Q 226.10 360.67 225.82 361.46
  Q 225.57 362.20 226.13 361.65
  Q 226.49 361.30 226.72 360.84
  Z"
/>
<path fill="#626060" d="
  M 218.14 44.68
  Q 218.64 44.94 219.03 44.71
  L 219.29 46.74
  L 220.27 62.11
  Q 219.99 62.79 219.25 62.78
  Q 218.57 62.78 218.55 62.18
  L 218.14 44.68
  Z"
/>
<path fill="#d2d3d4" d="
  M 216.49 67.04
  Q 217.18 67.53 218.56 67.37
  L 218.55 568.85
  L 217.99 568.38
  Q 217.61 568.05 217.29 568.44
  Q 216.98 568.82 216.51 568.97
  L 216.49 67.04
  Z"
/>
<path fill="#626060" d="
  M 220.33 67.70
  L 220.17 540.29
  L 220.01 568.48
  Q 220.01 569.01 219.49 569.10
  Q 218.95 569.20 218.55 568.85
  L 218.56 67.37
  Q 219.62 66.69 220.33 67.70
  Z"
/>
<path fill="#626060" d="
  M 222.11 380.04
  Q 222.09 473.90 222.06 567.75
  Q 222.06 568.57 221.54 569.38
  Q 221.40 569.16 221.22 569.00
  Q 220.91 568.70 220.91 568.26
  L 220.98 563.22
  L 221.07 67.51
  Q 221.46 66.63 221.96 67.46
  A 0.75 0.74 29.5 0 1 222.07 67.85
  L 222.11 380.04
  Z"
/>
<path fill="#b4b5b6" d="
  M 221.07 67.51
  L 220.98 563.22
  L 220.63 540.57
  Q 220.63 540.39 220.45 540.36
  Q 220.32 540.34 220.17 540.29
  L 220.33 67.70
  L 221.07 67.51
  Z"
/>
<path fill="#d2d3d4" d="
  M 240.25 67.96
  L 240.25 544.46
  L 240.04 544.10
  A 0.23 0.23 0.0 0 0 239.63 544.29
  Q 239.75 544.63 239.34 544.63
  Q 238.94 544.63 238.94 545.04
  L 239.23 568.04
  A 0.98 0.98 0.0 0 1 238.27 569.03
  L 221.54 569.38
  Q 222.06 568.57 222.06 567.75
  Q 222.09 473.90 222.11 380.04
  Q 222.36 380.05 222.54 380.08
  Q 223.30 380.21 222.76 380.75
  L 222.55 380.95
  Q 222.23 381.28 222.39 381.70
  Q 222.60 382.28 223.09 382.14
  Q 224.09 381.84 224.68 382.71
  Q 225.71 384.23 225.67 385.93
  Q 225.55 391.47 226.54 397.19
  Q 226.62 397.65 226.38 398.04
  C 226.06 398.57 226.01 399.39 226.27 399.94
  Q 227.58 402.71 228.26 405.66
  Q 228.37 406.14 228.86 406.22
  Q 230.05 406.41 231.22 406.59
  Q 231.82 406.69 231.36 407.06
  Q 231.28 407.13 231.39 407.32
  Q 231.52 407.53 231.72 407.39
  Q 233.20 406.34 235.01 407.18
  A 0.26 0.26 0.0 0 0 235.37 406.94
  Q 235.23 387.63 235.62 368.59
  C 235.67 366.42 235.30 364.56 235.03 362.47
  Q 235.00 362.25 235.22 362.21
  L 235.64 362.14
  Q 236.01 362.07 236.07 362.45
  L 236.97 368.52
  A 0.26 0.26 0.0 0 0 237.38 368.70
  Q 238.12 368.19 238.97 368.21
  Q 239.46 368.22 239.44 367.73
  Q 239.07 358.67 239.08 348.80
  Q 239.15 284.61 239.08 220.71
  Q 239.08 220.34 239.24 220.02
  Q 239.37 219.76 239.37 219.48
  Q 239.37 209.51 239.39 199.26
  Q 239.39 199.12 239.24 199.02
  Q 239.10 198.93 239.10 198.75
  Q 239.25 185.00 239.16 171.25
  Q 239.09 160.25 239.08 149.25
  Q 239.01 92.74 239.14 68.62
  Q 239.14 68.02 240.25 67.96
  Z
  M 225.92 445.35
  Q 225.63 444.71 225.66 445.41
  Q 225.67 445.55 225.77 445.63
  Q 225.90 445.74 225.95 445.90
  Q 227.13 449.20 230.57 449.70
  Q 231.21 449.79 231.68 449.33
  Q 232.00 449.02 231.61 448.82
  Q 231.42 448.72 231.26 448.86
  Q 230.98 449.11 230.61 449.05
  Q 227.36 448.53 225.92 445.35
  Z"
/>
<path fill="#626060" d="
  M 231.60 161.37
  Q 231.55 161.77 231.31 161.96
  Q 231.08 162.02 230.89 162.09
  Q 230.47 162.24 230.28 162.65
  C 229.54 164.33 228.80 165.19 228.88 167.22
  Q 229.01 170.39 228.96 173.50
  Q 228.47 173.97 228.12 174.10
  Q 227.56 174.31 227.54 173.71
  L 227.10 163.42
  Q 228.05 160.30 231.60 161.37
  Z"
/>
<path fill="#b4b5b6" d="
  M 231.60 161.37
  Q 232.62 161.65 233.12 162.11
  Q 233.61 162.56 232.95 162.56
  Q 232.14 162.57 231.31 161.96
  Q 231.55 161.77 231.60 161.37
  Z"
/>
<path fill="#b4b5b6" d="
  M 227.10 163.42
  L 227.54 173.71
  Q 227.56 174.31 228.12 174.10
  Q 228.47 173.97 228.96 173.50
  L 228.91 223.72
  Q 228.63 223.80 228.54 223.10
  Q 228.47 222.55 227.96 222.78
  Q 227.75 222.88 227.58 223.10
  Q 227.44 223.28 227.40 223.59
  Q 226.62 229.72 227.67 235.78
  Q 226.71 236.16 226.91 236.94
  Q 225.79 235.55 225.79 234.75
  Q 225.84 182.68 225.69 167.50
  Q 225.67 164.95 227.10 163.42
  Z"
/>
<path fill="#8c8d8e" d="
  M 228.91 223.72
  Q 228.93 228.72 229.03 233.75
  Q 229.05 234.68 230.02 236.20
  Q 229.47 236.28 229.04 235.24
  Q 228.87 234.82 227.67 235.78
  Q 226.62 229.72 227.40 223.59
  Q 227.44 223.28 227.58 223.10
  Q 227.75 222.88 227.96 222.78
  Q 228.47 222.55 228.54 223.10
  Q 228.63 223.80 228.91 223.72
  Z"
/>
<path fill="#626060" d="
  M 230.02 236.20
  Q 230.10 238.71 229.08 239.17
  Q 227.39 238.37 226.91 236.94
  Q 226.71 236.16 227.67 235.78
  Q 228.87 234.82 229.04 235.24
  Q 229.47 236.28 230.02 236.20
  Z"
/>
<path fill="#b4b5b6" d="
  M 230.02 236.20
  L 232.78 237.90
  Q 233.27 238.20 232.84 238.58
  Q 230.60 240.51 229.08 239.17
  Q 230.10 238.71 230.02 236.20
  Z"
/>
<path fill="#d2d3d4" d="
  M 226.72 360.84
  Q 226.49 361.30 226.13 361.65
  Q 225.57 362.20 225.82 361.46
  Q 226.10 360.67 226.63 359.98
  Q 230.01 355.65 234.29 359.40
  Q 234.38 359.48 234.30 359.57
  L 234.14 359.76
  Q 233.92 360.01 233.67 359.81
  C 231.41 358.02 228.10 358.06 226.72 360.84
  Z"
/>
<path fill="#b4b5b6" d="
  M 225.92 445.35
  Q 227.36 448.53 230.61 449.05
  Q 230.98 449.11 231.26 448.86
  Q 231.42 448.72 231.61 448.82
  Q 232.00 449.02 231.68 449.33
  Q 231.21 449.79 230.57 449.70
  Q 227.13 449.20 225.95 445.90
  Q 225.90 445.74 225.77 445.63
  Q 225.67 445.55 225.66 445.41
  Q 225.63 444.71 225.92 445.35
  Z"
/>
<path fill="#e6e7e7" d="
  M 220.17 540.29
  Q 220.32 540.34 220.45 540.36
  Q 220.63 540.39 220.63 540.57
  L 220.98 563.22
  L 220.91 568.26
  Q 220.91 568.70 221.22 569.00
  Q 221.40 569.16 221.54 569.38
  L 238.27 569.03
  A 0.98 0.98 0.0 0 0 239.23 568.04
  L 238.94 545.04
  Q 238.94 544.63 239.34 544.63
  Q 239.75 544.63 239.63 544.29
  A 0.23 0.23 0.0 0 1 240.04 544.10
  L 240.25 544.46
  L 240.11 581.96
  Q 238.26 578.02 239.17 574.29
  A 1.50 1.49 -82.5 0 0 237.75 572.44
  C 232.53 572.31 227.51 573.43 222.31 573.16
  Q 221.96 573.14 221.73 573.28
  Q 221.40 573.46 221.27 573.73
  Q 220.57 574.05 219.50 573.56
  Q 218.97 573.31 218.39 573.80
  L 216.40 573.78
  L 216.51 568.97
  Q 216.98 568.82 217.29 568.44
  Q 217.61 568.05 217.99 568.38
  L 218.55 568.85
  Q 218.95 569.20 219.49 569.10
  Q 220.01 569.01 220.01 568.48
  L 220.17 540.29
  Z"
/>
<path fill="#d2d3d4" d="
  M 240.11 581.96
  L 239.81 591.22
  Q 239.71 590.69 239.47 590.48
  Q 238.99 590.06 238.73 590.64
  Q 238.44 591.25 238.43 592.31
  L 238.03 585.68
  A 0.91 0.91 0.0 0 0 237.09 584.83
  Q 231.52 585.00 225.92 584.85
  Q 224.50 584.81 223.04 584.51
  Q 222.54 584.41 222.44 583.91
  L 222.10 582.25
  L 221.79 573.88
  Q 221.54 573.61 221.27 573.73
  Q 221.40 573.46 221.73 573.28
  Q 221.96 573.14 222.31 573.16
  C 227.51 573.43 232.53 572.31 237.75 572.44
  A 1.50 1.49 -82.5 0 1 239.17 574.29
  Q 238.26 578.02 240.11 581.96
  Z"
/>
<path fill="#8c8d8e" d="
  M 221.27 573.73
  Q 221.54 573.61 221.79 573.88
  Q 221.00 573.83 221.02 574.25
  Q 221.33 582.23 220.35 590.05
  Q 220.01 590.01 219.85 589.57
  Q 219.69 589.11 219.44 589.52
  Q 219.01 590.21 219.01 591.25
  Q 218.83 591.06 218.77 590.88
  Q 218.66 590.56 218.48 590.84
  L 218.26 591.17
  L 218.39 573.80
  Q 218.97 573.31 219.50 573.56
  Q 220.57 574.05 221.27 573.73
  Z
  M 219.0364 585.5677
  A 5.86 0.77 91.6 0 0 219.9697 579.7315
  A 5.86 0.77 91.6 0 0 219.3636 573.8523
  A 5.86 0.77 91.6 0 0 218.4303 579.6885
  A 5.86 0.77 91.6 0 0 219.0364 585.5677
  Z"
/>
<ellipse fill="#626060" cx="0.00" cy="0.00" transform="translate(219.20,579.71) rotate(91.6)" rx="5.86" ry="0.77"/>
<path fill="#626060" d="
  M 221.79 573.88
  L 222.10 582.25
  L 221.39 592.01
  Q 221.43 591.62 221.32 591.40
  A 0.36 0.36 0.0 0 0 220.73 591.33
  L 220.31 591.82
  Q 220.03 590.76 220.35 590.05
  Q 221.33 582.23 221.02 574.25
  Q 221.00 573.83 221.79 573.88
  Z"
/>
<path fill="#b4b5b6" d="
  M 222.10 582.25
  L 222.44 583.91
  Q 222.54 584.41 223.04 584.51
  Q 224.50 584.81 225.92 584.85
  Q 231.52 585.00 237.09 584.83
  A 0.91 0.91 0.0 0 1 238.03 585.68
  L 238.43 592.31
  L 237.85 596.58
  L 236.78 598.44
  A 0.64 0.63 26.3 0 1 235.97 598.71
  Q 235.41 598.46 234.93 598.81
  Q 234.52 599.12 234.00 599.09
  Q 226.80 598.62 220.31 600.92
  L 221.39 592.01
  L 222.10 582.25
  Z"
/>
<path fill="#d2d3d4" d="
  M 220.35 590.05
  Q 220.03 590.76 220.31 591.82
  C 220.45 596.72 219.02 601.17 218.11 605.71
  Q 217.13 610.59 213.44 618.44
  Q 212.91 619.55 213.62 618.65
  Q 213.76 618.48 213.83 618.16
  Q 213.80 618.86 214.18 619.09
  Q 214.63 619.37 214.96 618.96
  Q 215.88 617.85 217.25 617.84
  Q 225.36 617.74 231.98 616.85
  Q 231.64 617.93 230.76 618.94
  C 229.75 620.16 228.63 621.22 226.95 621.29
  Q 220.32 621.56 214.01 621.96
  Q 213.51 621.99 213.14 622.32
  L 205.79 628.74
  Q 204.48 629.26 204.36 628.40
  Q 208.09 625.78 209.21 623.99
  Q 218.54 608.93 219.01 591.25
  Q 219.01 590.21 219.44 589.52
  Q 219.69 589.11 219.85 589.57
  Q 220.01 590.01 220.35 590.05
  Z"
/>
<path fill="#e6e7e7" d="
  M 239.81 591.22
  Q 239.36 599.44 237.01 606.87
  L 231.98 616.85
  Q 225.36 617.74 217.25 617.84
  Q 215.88 617.85 214.96 618.96
  Q 214.63 619.37 214.18 619.09
  Q 213.80 618.86 213.83 618.16
  Q 217.32 612.31 219.54 605.14
  Q 226.85 603.54 234.79 603.84
  Q 235.29 603.86 235.62 603.48
  Q 237.70 601.12 237.85 596.58
  L 238.43 592.31
  Q 238.44 591.25 238.73 590.64
  Q 238.99 590.06 239.47 590.48
  Q 239.71 590.69 239.81 591.22
  Z"
/>
<path fill="#000000" d="
  M 219.01 591.25
  Q 218.54 608.93 209.21 623.99
  Q 208.09 625.78 204.36 628.40
  Q 203.54 628.72 202.98 629.34
  Q 202.65 629.71 202.17 629.82
  Q 201.67 629.93 201.18 629.87
  Q 207.38 625.74 210.69 619.94
  Q 218.08 607.01 218.26 591.17
  L 218.48 590.84
  Q 218.66 590.56 218.77 590.88
  Q 218.83 591.06 219.01 591.25
  Z"
/>
<path fill="#000000" d="
  M 221.39 592.01
  L 220.31 600.92
  L 219.54 605.14
  Q 217.32 612.31 213.83 618.16
  Q 213.76 618.48 213.62 618.65
  Q 212.91 619.55 213.44 618.44
  Q 217.13 610.59 218.11 605.71
  C 219.02 601.17 220.45 596.72 220.31 591.82
  L 220.73 591.33
  A 0.36 0.36 0.0 0 1 221.32 591.40
  Q 221.43 591.62 221.39 592.01
  Z"
/>
<path fill="#d2d3d4" d="
  M 237.85 596.58
  Q 237.70 601.12 235.62 603.48
  Q 235.29 603.86 234.79 603.84
  Q 226.85 603.54 219.54 605.14
  L 220.31 600.92
  Q 226.80 598.62 234.00 599.09
  Q 234.52 599.12 234.93 598.81
  Q 235.41 598.46 235.97 598.71
  A 0.64 0.63 26.3 0 0 236.78 598.44
  L 237.85 596.58
  Z"
/>
<path fill="#626060" d="
  M 237.01 606.87
  Q 235.36 613.74 231.44 619.56
  L 231.02 619.71
  Q 231.19 618.93 230.76 618.94
  Q 231.64 617.93 231.98 616.85
  L 237.01 606.87
  Z"
/>
<path fill="#000000" d="
  M 230.76 618.94
  Q 231.19 618.93 231.02 619.71
  Q 229.73 620.73 229.00 622.23
  C 227.12 624.15 225.03 626.98 222.25 627.26
  Q 218.82 627.61 209.17 628.01
  C 207.83 628.07 206.96 628.65 205.88 629.30
  Q 205.90 628.98 205.79 628.74
  L 213.14 622.32
  Q 213.51 621.99 214.01 621.96
  Q 220.32 621.56 226.95 621.29
  C 228.63 621.22 229.75 620.16 230.76 618.94
  Z"
/>
<path fill="#8c8d8e" d="
  M 231.44 619.56
  L 229.04 622.79
  Q 229.13 622.42 229.00 622.23
  Q 229.73 620.73 231.02 619.71
  L 231.44 619.56
  Z"
/>
<path fill="#b4b5b6" d="
  M 229.00 622.23
  Q 229.13 622.42 229.04 622.79
  L 222.28 629.19
  Q 219.39 630.13 214.51 629.87
  Q 212.38 629.76 205.55 630.60
  Q 204.97 630.67 205.20 630.13
  Q 205.38 629.72 205.88 629.30
  C 206.96 628.65 207.83 628.07 209.17 628.01
  Q 218.82 627.61 222.25 627.26
  C 225.03 626.98 227.12 624.15 229.00 622.23
  Z"
/>
<path fill="#626060" d="
  M 23.71 623.53
  L 41.21 627.12
  Q 32.61 627.34 24.80 624.13
  Q 24.23 623.89 23.71 623.53
  Z"
/>
<path fill="#626060" d="
  M 46.44 623.80
  Q 50.15 623.23 53.61 624.19
  L 46.44 623.80
  Z"
/>
<path fill="#8c8d8e" d="
  M 65.82 628.17
  L 60.52 628.50
  L 45.79 627.56
  Q 49.50 626.57 53.75 627.13
  Q 59.71 627.92 65.82 628.17
  Z"
/>
<path fill="#626060" d="
  M 65.82 628.17
  Q 69.80 628.18 73.79 628.51
  Q 77.80 628.86 81.73 629.08
  Q 92.55 629.68 106.27 630.55
  C 107.22 630.61 107.99 631.06 108.96 631.05
  Q 114.83 631.00 119.98 631.37
  Q 125.86 631.79 131.30 632.07
  Q 137.03 632.36 142.61 632.87
  C 146.91 633.26 151.19 632.91 155.60 633.51
  Q 159.73 634.07 164.26 634.13
  Q 168.67 634.19 172.87 634.62
  Q 182.35 635.61 189.50 634.72
  Q 195.29 634.00 201.18 629.87
  Q 201.67 629.93 202.17 629.82
  Q 202.65 629.71 202.98 629.34
  Q 203.54 628.72 204.36 628.40
  Q 204.48 629.26 205.79 628.74
  Q 205.90 628.98 205.88 629.30
  Q 205.38 629.72 205.20 630.13
  Q 204.97 630.67 205.55 630.60
  Q 212.38 629.76 214.51 629.87
  Q 219.39 630.13 222.28 629.19
  L 215.98 632.61
  Q 213.99 631.08 211.19 632.37
  Q 210.71 632.59 210.20 632.53
  Q 207.59 632.22 205.22 633.23
  Q 204.69 633.46 204.13 633.40
  Q 200.30 632.98 197.04 634.02
  Q 194.47 634.84 197.11 635.36
  Q 197.20 635.37 198.28 635.28
  Q 187.63 636.53 178.00 635.92
  Q 121.63 632.36 65.25 629.02
  Q 62.89 628.88 60.52 628.50
  L 65.82 628.17
  Z"
/>
<path fill="#000000" d="
  M 215.98 632.61
  C 210.66 634.93 204.05 635.42 198.28 635.28
  Q 197.20 635.37 197.11 635.36
  Q 194.47 634.84 197.04 634.02
  Q 200.30 632.98 204.13 633.40
  Q 204.69 633.46 205.22 633.23
  Q 207.59 632.22 210.20 632.53
  Q 210.71 632.59 211.19 632.37
  Q 213.99 631.08 215.98 632.61
  Z"
/>
</svg>
