<svg width="158" height="130" viewBox="0 0 158 130" fill="none" xmlns="http://www.w3.org/2000/svg">
<circle cx="3" cy="3" r="3" transform="matrix(-0.981808 0.189876 -0.218965 -0.975733 130.869 43.0425)" fill="url(#paint0_linear_294_1503)"/>
<circle opacity="0.17" cx="5" cy="5" r="5" transform="matrix(-0.981808 0.189876 -0.218965 -0.975733 147.395 28.9587)" fill="url(#paint1_linear_294_1503)"/>
<circle opacity="0.5" cx="7.5" cy="7.5" r="7.5" transform="matrix(-0.981808 0.189876 -0.218965 -0.975733 27.583 106.226)" fill="url(#paint2_linear_294_1503)"/>
<rect x="13.8379" y="0.0900879" width="129.182" height="129.18" rx="64.59" fill="url(#paint3_linear_294_1503)" fill-opacity="0.09"/>
<rect x="29.9199" y="16.1716" width="99.1702" height="99.1702" rx="49.5851" fill="url(#paint4_linear_294_1503)" fill-opacity="0.1"/>
<rect x="30.59" y="16.8417" width="97.83" height="97.83" rx="48.915" stroke="url(#paint5_linear_294_1503)" stroke-opacity="0.2" stroke-width="1.34014"/>
<g clip-path="url(#clip0_294_1503)">
<path d="M105.782 65.3447H99.5359C98.9533 65.3447 98.4812 65.8169 98.4812 66.3994V67.2905H91.9128C91.7744 67.2905 91.6372 67.3177 91.5095 67.3709L83.0959 70.853C82.1224 71.2563 81.366 72.0152 80.9668 72.9904C80.5671 73.9651 80.5733 75.0363 80.9841 76.007L81.0125 76.0741C81.2564 76.6501 81.6156 77.1399 82.0519 77.5272C80.7715 77.8745 79.4288 77.9025 78.1236 77.6038L69.8637 75.7124C68.8531 75.4813 67.8157 75.6621 66.9431 76.222C66.0709 76.7815 65.474 77.6491 65.263 78.6639C64.8449 80.6744 66.0767 82.6457 68.067 83.1516L77.9226 85.6565C78.7573 85.8683 79.6035 85.9737 80.4468 85.9737C81.7112 85.9737 82.9694 85.7369 84.1704 85.2655L96.7047 80.3497H98.4812V80.9047C98.4812 81.4872 98.9537 81.9593 99.5359 81.9593H105.782C106.365 81.9593 106.837 81.4872 106.837 80.9047V66.3994C106.837 65.8169 106.365 65.3447 105.782 65.3447ZM96.5049 78.2403C96.373 78.2403 96.2424 78.2651 96.1201 78.3128L83.4 83.302C81.8109 83.9249 80.0966 84.0321 78.4421 83.6118L68.5865 81.1069C67.6934 80.8799 67.1405 79.9954 67.3279 79.0932C67.4227 78.6375 67.6905 78.2482 68.0823 77.9973C68.3624 77.8172 68.6809 77.7245 69.0055 77.7245C69.1341 77.7245 69.2638 77.7389 69.3928 77.7686L77.6527 79.6596C79.6402 80.1145 81.6964 79.9686 83.5998 79.2369L85.9967 78.3153C86.0462 78.2984 86.0952 78.2803 86.1442 78.2613C88.2631 77.4444 90.9673 76.4045 91.5487 76.1808L91.6619 76.1371C92.2054 75.9283 92.4769 75.3177 92.268 74.7743C92.0591 74.2305 91.449 73.9594 90.9047 74.1683C90.9047 74.1683 90.8615 74.1851 90.7815 74.2156L85.2844 76.3295C84.3525 76.6315 83.3447 76.1726 82.955 75.2518L82.9262 75.1842C82.7362 74.736 82.7338 74.2408 82.9183 73.7901C83.1029 73.3393 83.4523 72.9883 83.9026 72.8021L92.1226 69.3999H98.4812V78.2403H96.5049ZM104.728 79.85H100.591V67.4541H104.728V79.85Z" fill="url(#paint6_linear_294_1503)"/>
<path d="M63.1087 64.904H61.1942V55.0492H61.4863C62.2662 55.0492 63.0449 54.8614 63.7383 54.5058C63.7708 54.4889 63.8029 54.4708 63.8334 54.4506L70.6638 49.9942C71.6076 49.5311 72.7546 49.6366 73.5992 50.2677L74.0923 50.6352C74.0622 50.6776 74.0334 50.7209 74.0042 50.7633C73.874 50.9529 73.7487 51.1461 73.6309 51.3434C72.9017 52.5617 72.4332 53.9323 72.261 55.3302C71.5421 55.4077 70.8763 55.7249 70.3581 56.2428C69.7578 56.843 69.427 57.6423 69.427 58.4926C69.427 60.2465 70.8541 61.6736 72.6079 61.6736H80.4159C80.8468 61.6736 81.2527 61.8417 81.5571 62.1453C81.8628 62.4518 82.0313 62.858 82.0317 63.289C82.0313 63.9325 81.6543 64.5126 81.0673 64.7684C80.9993 64.7985 80.9379 64.8208 80.8802 64.8368C80.8749 64.8385 80.8699 64.8401 80.8646 64.8418C80.7224 64.883 80.5716 64.904 80.4159 64.904H71.5442C70.962 64.904 70.4895 65.3761 70.4895 65.9587C70.4895 66.5412 70.962 67.0134 71.5442 67.0134H80.4159C80.6882 67.0134 80.9568 66.9837 81.218 66.9264C81.6609 66.9833 82.1096 67.0142 82.5558 67.0142C88.277 67.0142 92.9321 62.3595 92.9321 56.6379C92.9321 50.9166 88.277 46.262 82.5558 46.262C79.9195 46.262 77.396 47.266 75.4865 49.0441L74.8611 48.5773C73.3627 47.458 71.3188 47.2862 69.6552 48.1402C69.6227 48.1567 69.5914 48.1752 69.5605 48.195L62.7309 52.6511C62.3453 52.8402 61.916 52.9395 61.4863 52.9395H61.1938V52.558C61.1938 51.9754 60.7217 51.5033 60.1391 51.5033H53.8926C53.31 51.5033 52.8379 51.9754 52.8379 52.558V67.0632C52.8379 67.6458 53.31 68.1179 53.8926 68.1179H60.1391C60.7217 68.1179 61.1938 67.6458 61.1938 67.0632V67.0134H63.1087C63.6909 67.0134 64.1634 66.5412 64.1634 65.9587C64.1634 65.3761 63.6909 64.904 63.1087 64.904ZM71.5363 58.4926C71.5363 58.2059 71.6476 57.9364 71.8499 57.7346C71.9553 57.6291 72.0793 57.5488 72.2145 57.4956C72.2717 58.2009 72.4003 58.8914 72.598 59.5638C72.0118 59.5584 71.5363 59.0801 71.5363 58.4926ZM90.8223 56.6383C90.8223 60.7668 87.7798 64.1987 83.8185 64.8084C84.0303 64.333 84.1411 63.8097 84.1411 63.289C84.1411 62.65 83.98 62.0357 83.6784 61.4902C84.1362 61.4182 84.5589 61.2068 84.893 60.8727C85.3107 60.4553 85.5406 59.9004 85.5406 59.31V57.7502C85.5406 56.5316 84.549 55.5399 83.3303 55.5399H81.7829C81.7273 55.5399 81.6819 55.4946 81.6819 55.439V53.9665C81.6819 53.9109 81.7273 53.866 81.7829 53.866H82.5562H83.3303C83.3859 53.866 83.4312 53.9109 83.4312 53.9665C83.4312 54.5491 83.9034 55.0212 84.4859 55.0212C85.0681 55.0212 85.5406 54.5491 85.5406 53.9665C85.5406 52.8435 84.6973 51.9153 83.6113 51.7764V51.411C83.6113 50.8284 83.1391 50.3563 82.5566 50.3563C81.974 50.3563 81.5019 50.8284 81.5019 51.411V51.7764C80.4155 51.9153 79.5726 52.8435 79.5726 53.9665V55.439C79.5726 56.6576 80.5642 57.6493 81.7829 57.6493H83.3303C83.3859 57.6493 83.4312 57.6946 83.4312 57.7502V59.31C83.4312 59.3376 83.4214 59.3615 83.4016 59.3813C83.3818 59.4007 83.3583 59.4105 83.3303 59.4105H81.7829C81.7273 59.4105 81.6819 59.3652 81.6819 59.31V59.1671C81.6819 58.5845 81.2098 58.1124 80.6273 58.1124C80.0447 58.1124 79.5726 58.5845 79.5726 59.1671V59.31C79.5726 59.3957 79.5788 59.4802 79.5882 59.5638H74.8215C74.468 58.6335 74.2892 57.6518 74.2892 56.6383C74.2892 55.0929 74.7288 53.5459 75.5569 52.2395C75.7951 51.8642 76.0604 51.5061 76.3549 51.1729C77.9242 49.3922 80.1827 48.3713 82.5558 48.3713C87.114 48.3713 90.8223 52.0796 90.8223 56.6383ZM59.0844 66.0089H54.9473V53.6126H59.0844V66.0089Z" fill="url(#paint7_linear_294_1503)"/>
<path d="M68.1722 65.3742C67.9246 64.9956 67.4393 64.8213 67.0063 64.9453C66.5877 65.0656 66.2824 65.4401 66.2449 65.8735C66.207 66.3115 66.4612 66.7391 66.8609 66.9191C67.2568 67.0979 67.7335 67.0123 68.0416 66.7053C68.393 66.3543 68.4474 65.7866 68.1722 65.3742Z" fill="url(#paint8_linear_294_1503)"/>
</g>
<defs>
<linearGradient id="paint0_linear_294_1503" x1="3.38938" y1="5.19469" x2="5.65487" y2="2.58407" gradientUnits="userSpaceOnUse">
<stop stop-color="#00F5F0"/>
<stop offset="1" stop-color="#0066FF"/>
</linearGradient>
<linearGradient id="paint1_linear_294_1503" x1="5.64897" y1="8.65782" x2="9.42478" y2="4.30678" gradientUnits="userSpaceOnUse">
<stop stop-color="#00F5F0"/>
<stop offset="1" stop-color="#0066FF"/>
</linearGradient>
<linearGradient id="paint2_linear_294_1503" x1="8.47345" y1="12.9867" x2="14.1372" y2="6.46018" gradientUnits="userSpaceOnUse">
<stop stop-color="#00F5F0"/>
<stop offset="1" stop-color="#0066FF"/>
</linearGradient>
<linearGradient id="paint3_linear_294_1503" x1="78.2647" y1="0.581889" x2="78.4287" y2="129.27" gradientUnits="userSpaceOnUse">
<stop stop-color="#00F5F0"/>
<stop offset="1" stop-color="#0066FF"/>
</linearGradient>
<linearGradient id="paint4_linear_294_1503" x1="79.505" y1="-49.4951" x2="79.505" y2="272.138" gradientUnits="userSpaceOnUse">
<stop stop-color="#00F5F0"/>
<stop offset="0.467671" stop-color="#0066FF"/>
</linearGradient>
<linearGradient id="paint5_linear_294_1503" x1="79.505" y1="-156.036" x2="79.505" y2="205.131" gradientUnits="userSpaceOnUse">
<stop stop-color="#CAFF33"/>
<stop offset="0.716291" stop-color="#CAFF33" stop-opacity="0"/>
</linearGradient>
<linearGradient id="paint6_linear_294_1503" x1="88.7127" y1="83.205" x2="94.4207" y2="69.9229" gradientUnits="userSpaceOnUse">
<stop stop-color="#00F5F0"/>
<stop offset="1" stop-color="#0066FF"/>
</linearGradient>
<linearGradient id="paint7_linear_294_1503" x1="75.487" y1="65.1844" x2="81.9311" y2="51.5618" gradientUnits="userSpaceOnUse">
<stop stop-color="#00F5F0"/>
<stop offset="1" stop-color="#0066FF"/>
</linearGradient>
<linearGradient id="paint8_linear_294_1503" x1="67.4308" y1="66.7289" x2="68.2259" y2="65.8127" gradientUnits="userSpaceOnUse">
<stop stop-color="#00F5F0"/>
<stop offset="1" stop-color="#0066FF"/>
</linearGradient>
<clipPath id="clip0_294_1503">
<rect width="54" height="54" fill="white" transform="translate(52.8379 39.0901)"/>
</clipPath>
</defs>
</svg>
