<svg width="1920" height="2608" viewBox="0 0 1920 2608" fill="none" xmlns="http://www.w3.org/2000/svg">
<g opacity="0.7">
<path opacity="0.11" d="M272.875 1348.4C274.441 1348.51 276.189 1347.29 276.779 1345.67C277.37 1344.05 276.58 1342.66 275.014 1342.54C273.449 1342.43 271.701 1343.66 271.11 1345.27C270.519 1346.89 271.31 1348.29 272.875 1348.4Z" fill="white"/>
<path d="M276.197 1365.13C277.371 1365.21 278.682 1364.3 279.125 1363.08C279.568 1361.87 278.975 1360.82 277.801 1360.74C276.627 1360.66 275.317 1361.57 274.874 1362.79C274.431 1364 275.023 1365.05 276.197 1365.13Z" fill="white"/>
<path d="M334.174 1337.7C335.348 1337.79 336.658 1336.87 337.101 1335.66C337.544 1334.45 336.952 1333.4 335.778 1333.32C334.604 1333.23 333.293 1334.15 332.85 1335.36C332.407 1336.57 333 1337.62 334.174 1337.7Z" fill="white"/>
<path d="M214.824 1326.32C215.998 1326.4 217.309 1325.48 217.752 1324.27C218.194 1323.06 217.602 1322.01 216.428 1321.93C215.254 1321.84 213.944 1322.76 213.501 1323.97C213.058 1325.18 213.65 1326.23 214.824 1326.32Z" fill="white"/>
<path opacity="0.11" d="M131.863 1356.49C133.429 1356.6 135.177 1355.38 135.768 1353.77C136.358 1352.15 135.568 1350.75 134.003 1350.64C132.437 1350.53 130.689 1351.75 130.098 1353.37C129.508 1354.98 130.298 1356.38 131.863 1356.49Z" fill="white"/>
<path d="M116.711 1322.42C117.492 1322.48 118.366 1321.87 118.661 1321.06C118.956 1320.25 118.561 1319.56 117.779 1319.5C116.997 1319.45 116.124 1320.06 115.829 1320.86C115.534 1321.67 115.929 1322.37 116.711 1322.42Z" fill="white"/>
<path d="M257.771 1405.14C258.553 1405.19 259.426 1404.58 259.721 1403.78C260.016 1402.97 259.621 1402.27 258.84 1402.21C258.058 1402.16 257.185 1402.77 256.89 1403.58C256.595 1404.38 256.989 1405.08 257.771 1405.14Z" fill="white"/>
<path d="M547.625 1426.84C548.407 1426.89 549.28 1426.28 549.575 1425.48C549.87 1424.67 549.475 1423.97 548.693 1423.91C547.911 1423.86 547.038 1424.47 546.743 1425.28C546.448 1426.08 546.843 1426.78 547.625 1426.84Z" fill="white"/>
<path d="M739.9 1358.69C740.682 1358.75 741.555 1358.14 741.85 1357.33C742.145 1356.52 741.75 1355.82 740.969 1355.77C740.187 1355.71 739.314 1356.32 739.019 1357.13C738.723 1357.94 739.118 1358.64 739.9 1358.69Z" fill="white"/>
<path d="M756.148 1469.35C756.93 1469.41 757.803 1468.8 758.098 1467.99C758.393 1467.18 757.998 1466.48 757.217 1466.43C756.435 1466.37 755.562 1466.98 755.267 1467.79C754.972 1468.6 755.366 1469.3 756.148 1469.35Z" fill="white"/>
<path opacity="0.11" d="M97.0056 1340.54C97.7875 1340.59 98.6605 1339.98 98.9555 1339.18C99.2506 1338.37 98.8559 1337.67 98.0739 1337.62C97.292 1337.56 96.419 1338.17 96.124 1338.98C95.829 1339.78 96.2237 1340.48 97.0056 1340.54Z" fill="white"/>
<path opacity="0.11" d="M225.713 1457.61C226.494 1457.66 227.368 1457.05 227.663 1456.24C227.958 1455.44 227.563 1454.74 226.781 1454.68C225.999 1454.63 225.126 1455.24 224.831 1456.04C224.536 1456.85 224.931 1457.55 225.713 1457.61Z" fill="white"/>
<path opacity="0.11" d="M503.058 1462.07C503.84 1462.13 504.713 1461.52 505.008 1460.71C505.303 1459.9 504.909 1459.21 504.127 1459.15C503.345 1459.1 502.472 1459.71 502.177 1460.51C501.882 1461.32 502.276 1462.02 503.058 1462.07Z" fill="white"/>
<path d="M222.599 1247.35C223.381 1247.4 224.254 1246.79 224.549 1245.98C224.844 1245.18 224.45 1244.48 223.668 1244.42C222.886 1244.37 222.013 1244.98 221.718 1245.78C221.423 1246.59 221.817 1247.29 222.599 1247.35Z" fill="white"/>
<path d="M441.839 1259.75C442.621 1259.8 443.494 1259.19 443.789 1258.39C444.085 1257.58 443.69 1256.88 442.908 1256.82C442.126 1256.77 441.253 1257.38 440.958 1258.19C440.663 1258.99 441.058 1259.69 441.839 1259.75Z" fill="white"/>
<path d="M77.0993 1375.15C77.8812 1375.2 78.7542 1374.59 79.0493 1373.79C79.3443 1372.98 78.9496 1372.28 78.1677 1372.23C77.3858 1372.17 76.5128 1372.78 76.2178 1373.59C75.9227 1374.39 76.3174 1375.09 77.0993 1375.15Z" fill="white"/>
<path opacity="0.3" d="M235.285 1284.25C236.067 1284.3 236.94 1283.69 237.235 1282.89C237.53 1282.08 237.135 1281.38 236.353 1281.33C235.571 1281.27 234.698 1281.88 234.403 1282.69C234.108 1283.5 234.503 1284.19 235.285 1284.25Z" fill="white"/>
<path opacity="0.3" d="M91.0348 1404.64C91.8167 1404.69 92.6898 1404.08 92.9848 1403.27C93.2799 1402.47 92.8852 1401.77 92.1032 1401.71C91.3213 1401.66 90.4483 1402.27 90.1533 1403.08C89.8583 1403.88 90.2529 1404.58 91.0348 1404.64Z" fill="white"/>
<path opacity="0.3" d="M791.779 1363.84C792.561 1363.89 793.434 1363.28 793.729 1362.48C794.024 1361.67 793.629 1360.97 792.847 1360.91C792.066 1360.86 791.192 1361.47 790.897 1362.28C790.602 1363.08 790.997 1363.78 791.779 1363.84Z" fill="white"/>
<path opacity="0.11" d="M585.603 1287.84C586.385 1287.9 587.258 1287.29 587.553 1286.48C587.848 1285.67 587.454 1284.98 586.672 1284.92C585.89 1284.87 585.017 1285.48 584.722 1286.28C584.427 1287.09 584.821 1287.79 585.603 1287.84Z" fill="white"/>
<path opacity="0.11" d="M730.554 1424.04C731.336 1424.1 732.209 1423.49 732.504 1422.68C732.799 1421.87 732.405 1421.17 731.623 1421.12C730.841 1421.06 729.968 1421.67 729.673 1422.48C729.378 1423.29 729.772 1423.99 730.554 1424.04Z" fill="white"/>
<path opacity="0.3" d="M367.309 1412.04C368.874 1412.15 370.622 1410.93 371.213 1409.31C371.804 1407.69 371.014 1406.29 369.448 1406.18C367.882 1406.07 366.134 1407.3 365.544 1408.91C364.953 1410.53 365.743 1411.93 367.309 1412.04Z" fill="white"/>
<path opacity="0.11" d="M466.934 1374.03C468.499 1374.14 470.247 1372.92 470.838 1371.3C471.429 1369.69 470.639 1368.29 469.073 1368.18C467.507 1368.07 465.759 1369.29 465.169 1370.91C464.578 1372.52 465.368 1373.92 466.934 1374.03Z" fill="white"/>
<path d="M484.932 1322.79C486.105 1322.87 487.416 1321.96 487.859 1320.75C488.302 1319.53 487.709 1318.48 486.536 1318.4C485.362 1318.32 484.051 1319.23 483.608 1320.45C483.165 1321.66 483.758 1322.71 484.932 1322.79Z" fill="white"/>
<path d="M331.07 1469.51C332.244 1469.59 333.555 1468.67 333.998 1467.46C334.441 1466.25 333.848 1465.2 332.674 1465.12C331.5 1465.04 330.19 1465.95 329.747 1467.16C329.304 1468.38 329.896 1469.43 331.07 1469.51Z" fill="white"/>
<path d="M790.727 1531.79C791.9 1531.88 793.211 1530.96 793.654 1529.75C794.097 1528.54 793.504 1527.49 792.33 1527.4C791.157 1527.32 789.846 1528.24 789.403 1529.45C788.96 1530.66 789.553 1531.71 790.727 1531.79Z" fill="white"/>
<path d="M406.244 1347.27C407.418 1347.35 408.728 1346.44 409.171 1345.23C409.614 1344.01 409.022 1342.96 407.848 1342.88C406.674 1342.8 405.364 1343.71 404.921 1344.93C404.478 1346.14 405.07 1347.19 406.244 1347.27Z" fill="white"/>
<path d="M120.189 1438.19C121.363 1438.27 122.674 1437.36 123.117 1436.15C123.56 1434.93 122.967 1433.89 121.793 1433.8C120.62 1433.72 119.309 1434.64 118.866 1435.85C118.423 1437.06 119.016 1438.11 120.189 1438.19Z" fill="white"/>
<path d="M454.221 1526.16C455.395 1526.25 456.705 1525.33 457.148 1524.12C457.591 1522.91 456.998 1521.86 455.825 1521.78C454.651 1521.69 453.34 1522.61 452.897 1523.82C452.454 1525.03 453.047 1526.08 454.221 1526.16Z" fill="white"/>
<path d="M865.984 1453.06C867.158 1453.14 868.469 1452.23 868.912 1451.02C869.355 1449.8 868.762 1448.76 867.588 1448.67C866.414 1448.59 865.104 1449.51 864.661 1450.72C864.218 1451.93 864.81 1452.98 865.984 1453.06Z" fill="white"/>
<path d="M938.381 1375.01C939.555 1375.09 940.865 1374.17 941.308 1372.96C941.751 1371.75 941.159 1370.7 939.985 1370.62C938.811 1370.54 937.5 1371.45 937.057 1372.66C936.614 1373.88 937.207 1374.92 938.381 1375.01Z" fill="white"/>
<path opacity="0.3" d="M601.283 1332.46C602.849 1332.57 604.597 1331.35 605.188 1329.74C605.778 1328.12 604.988 1326.72 603.423 1326.61C601.857 1326.5 600.109 1327.72 599.518 1329.34C598.928 1330.95 599.718 1332.35 601.283 1332.46Z" fill="white"/>
<path d="M639.217 1228.61C640.782 1228.72 642.53 1227.5 643.121 1225.88C643.712 1224.27 642.922 1222.87 641.356 1222.76C639.791 1222.65 638.043 1223.87 637.452 1225.48C636.861 1227.1 637.651 1228.5 639.217 1228.61Z" fill="white"/>
<path d="M672.484 1369.77C673.658 1369.85 674.969 1368.93 675.412 1367.72C675.855 1366.51 675.262 1365.46 674.088 1365.38C672.914 1365.3 671.604 1366.21 671.161 1367.42C670.718 1368.64 671.31 1369.68 672.484 1369.77Z" fill="white"/>
<path opacity="0.3" d="M752.039 1317.55C753.605 1317.66 755.353 1316.44 755.943 1314.82C756.534 1313.2 755.744 1311.81 754.178 1311.7C752.613 1311.59 750.865 1312.81 750.274 1314.42C749.683 1316.04 750.474 1317.44 752.039 1317.55Z" fill="white"/>
<path opacity="0.3" d="M854.35 1431.25C855.915 1431.36 857.663 1430.14 858.254 1428.52C858.845 1426.91 858.055 1425.51 856.489 1425.4C854.923 1425.29 853.175 1426.51 852.585 1428.12C851.994 1429.74 852.784 1431.14 854.35 1431.25Z" fill="white"/>
<path opacity="0.3" d="M687.524 1422.53C689.089 1422.64 690.837 1421.42 691.428 1419.8C692.019 1418.19 691.228 1416.79 689.663 1416.68C688.097 1416.57 686.349 1417.79 685.758 1419.4C685.168 1421.02 685.958 1422.42 687.524 1422.53Z" fill="white"/>
<path opacity="0.11" d="M812.297 1383.29C813.863 1383.4 815.611 1382.18 816.201 1380.56C816.792 1378.95 816.002 1377.55 814.436 1377.44C812.871 1377.33 811.123 1378.55 810.532 1380.16C809.941 1381.78 810.731 1383.18 812.297 1383.29Z" fill="white"/>
<path opacity="0.3" d="M0.6329 1266.27C2.19844 1266.38 3.94649 1265.16 4.53722 1263.54C5.12796 1261.93 4.3377 1260.53 2.77216 1260.42C1.20663 1260.31 -0.541372 1261.53 -1.1321 1263.14C-1.72284 1264.76 -0.932638 1266.16 0.6329 1266.27Z" fill="white"/>
<path d="M16.6132 1331.9C17.787 1331.98 19.0977 1331.06 19.5406 1329.85C19.9836 1328.64 19.391 1327.59 18.2172 1327.51C17.0434 1327.43 15.7328 1328.34 15.2898 1329.55C14.8469 1330.77 15.4394 1331.81 16.6132 1331.9Z" fill="white"/>
<path opacity="0.11" d="M926.006 936.137C927.571 936.247 929.319 935.026 929.91 933.41C930.501 931.793 929.711 930.394 928.145 930.284C926.58 930.174 924.832 931.395 924.241 933.011C923.65 934.628 924.44 936.027 926.006 936.137Z" fill="white"/>
<path d="M938.326 952.87C939.5 952.953 940.811 952.037 941.254 950.825C941.696 949.613 941.104 948.564 939.93 948.481C938.756 948.399 937.446 949.315 937.003 950.526C936.56 951.738 937.152 952.788 938.326 952.87Z" fill="white"/>
<path d="M987.307 925.443C988.48 925.526 989.791 924.61 990.234 923.399C990.677 922.187 990.084 921.137 988.911 921.055C987.737 920.972 986.426 921.888 985.983 923.1C985.54 924.312 986.133 925.361 987.307 925.443Z" fill="white"/>
<path d="M867.951 914.054C869.125 914.137 870.436 913.221 870.878 912.009C871.321 910.797 870.729 909.748 869.555 909.666C868.381 909.583 867.071 910.499 866.628 911.711C866.185 912.922 866.777 913.972 867.951 914.054Z" fill="white"/>
<path opacity="0.11" d="M784.994 944.231C786.56 944.341 788.308 943.12 788.899 941.504C789.489 939.888 788.699 938.488 787.134 938.378C785.568 938.268 783.82 939.489 783.229 941.105C782.638 942.722 783.429 944.121 784.994 944.231Z" fill="white"/>
<path d="M769.84 910.164C770.621 910.219 771.494 909.609 771.79 908.802C772.085 907.995 771.69 907.296 770.908 907.241C770.126 907.186 769.253 907.796 768.958 908.603C768.663 909.41 769.058 910.109 769.84 910.164Z" fill="white"/>
<path d="M900.902 992.876C901.684 992.931 902.557 992.321 902.852 991.513C903.147 990.706 902.752 990.007 901.97 989.952C901.189 989.897 900.316 990.507 900.02 991.314C899.725 992.122 900.12 992.821 900.902 992.876Z" fill="white"/>
<path d="M1218.75 1014.58C1219.53 1014.63 1220.4 1014.02 1220.7 1013.21C1220.99 1012.41 1220.6 1011.71 1219.82 1011.65C1219.04 1011.6 1218.16 1012.21 1217.87 1013.02C1217.57 1013.82 1217.97 1014.52 1218.75 1014.58Z" fill="white"/>
<path d="M1393.03 946.431C1393.81 946.486 1394.68 945.876 1394.98 945.068C1395.27 944.261 1394.88 943.562 1394.1 943.507C1393.31 943.452 1392.44 944.062 1392.15 944.869C1391.85 945.677 1392.25 946.376 1393.03 946.431Z" fill="white"/>
<path d="M1409.27 1057.09C1410.05 1057.15 1410.92 1056.54 1411.22 1055.73C1411.51 1054.92 1411.12 1054.23 1410.34 1054.17C1409.56 1054.12 1408.68 1054.73 1408.39 1055.53C1408.09 1056.34 1408.49 1057.04 1409.27 1057.09Z" fill="white"/>
<path d="M442.496 923.175C443.278 923.23 444.151 922.62 444.446 921.813C444.741 921.005 444.346 920.306 443.564 920.251C442.782 920.196 441.909 920.806 441.614 921.614C441.319 922.421 441.714 923.12 442.496 923.175Z" fill="white"/>
<path opacity="0.11" d="M450.115 842.701C450.897 842.756 451.77 842.146 452.065 841.339C452.36 840.532 451.965 839.833 451.183 839.778C450.401 839.723 449.528 840.333 449.233 841.14C448.938 841.947 449.333 842.646 450.115 842.701Z" fill="white"/>
<path opacity="0.11" d="M376.908 872.066C377.69 872.121 378.563 871.512 378.858 870.704C379.153 869.897 378.758 869.198 377.976 869.143C377.194 869.088 376.321 869.698 376.026 870.505C375.731 871.312 376.126 872.011 376.908 872.066Z" fill="white"/>
<path opacity="0.11" d="M400.59 963.112C401.371 963.167 402.244 962.557 402.539 961.75C402.835 960.942 402.44 960.243 401.658 960.188C400.876 960.133 400.003 960.743 399.708 961.551C399.413 962.358 399.808 963.057 400.59 963.112Z" fill="white"/>
<path opacity="0.11" d="M750.138 928.277C750.92 928.332 751.793 927.722 752.088 926.915C752.383 926.108 751.989 925.409 751.207 925.354C750.425 925.299 749.552 925.909 749.257 926.716C748.962 927.523 749.356 928.222 750.138 928.277Z" fill="white"/>
<path opacity="0.11" d="M878.843 1045.34C879.625 1045.4 880.498 1044.79 880.793 1043.98C881.089 1043.17 880.694 1042.47 879.912 1042.42C879.13 1042.36 878.257 1042.97 877.962 1043.78C877.667 1044.59 878.062 1045.29 878.843 1045.34Z" fill="white"/>
<path opacity="0.11" d="M1156.19 1049.81C1156.97 1049.87 1157.84 1049.26 1158.14 1048.45C1158.43 1047.64 1158.04 1046.94 1157.26 1046.89C1156.47 1046.83 1155.6 1047.44 1155.31 1048.25C1155.01 1049.06 1155.41 1049.76 1156.19 1049.81Z" fill="white"/>
<path opacity="0.3" d="M530.029 891.188C530.811 891.243 531.684 890.633 531.979 889.826C532.274 889.019 531.879 888.32 531.097 888.265C530.316 888.21 529.442 888.819 529.147 889.627C528.852 890.434 529.247 891.133 530.029 891.188Z" fill="white"/>
<path d="M875.73 835.085C876.512 835.14 877.385 834.53 877.68 833.722C877.975 832.915 877.58 832.216 876.799 832.161C876.017 832.106 875.144 832.716 874.849 833.523C874.554 834.331 874.948 835.03 875.73 835.085Z" fill="white"/>
<path d="M1094.97 847.485C1095.75 847.54 1096.63 846.931 1096.92 846.123C1097.22 845.316 1096.82 844.617 1096.04 844.562C1095.26 844.507 1094.38 845.117 1094.09 845.924C1093.79 846.731 1094.19 847.43 1094.97 847.485Z" fill="white"/>
<path d="M730.228 962.89C731.01 962.945 731.883 962.335 732.178 961.527C732.473 960.72 732.079 960.021 731.297 959.966C730.515 959.911 729.642 960.521 729.347 961.328C729.052 962.136 729.446 962.835 730.228 962.89Z" fill="white"/>
<path opacity="0.3" d="M631.056 955.924C631.838 955.979 632.711 955.369 633.006 954.562C633.301 953.754 632.907 953.055 632.125 953C631.343 952.945 630.47 953.555 630.175 954.363C629.88 955.17 630.274 955.869 631.056 955.924Z" fill="white"/>
<path opacity="0.11" d="M548.031 857.084C548.813 857.139 549.686 856.529 549.981 855.721C550.276 854.914 549.881 854.215 549.099 854.16C548.317 854.105 547.444 854.715 547.149 855.522C546.854 856.33 547.249 857.029 548.031 857.084Z" fill="white"/>
<path opacity="0.3" d="M888.418 871.987C889.2 872.042 890.073 871.432 890.368 870.625C890.663 869.817 890.268 869.118 889.486 869.063C888.704 869.008 887.831 869.618 887.536 870.426C887.241 871.233 887.636 871.932 888.418 871.987Z" fill="white"/>
<path opacity="0.3" d="M744.168 992.375C744.95 992.43 745.823 991.82 746.118 991.013C746.413 990.206 746.018 989.507 745.236 989.452C744.454 989.397 743.581 990.007 743.286 990.814C742.991 991.621 743.386 992.32 744.168 992.375Z" fill="white"/>
<path opacity="0.3" d="M567.394 994.959C568.176 995.014 569.049 994.405 569.344 993.597C569.639 992.79 569.245 992.091 568.463 992.036C567.681 991.981 566.808 992.591 566.513 993.398C566.218 994.205 566.612 994.904 567.394 994.959Z" fill="white"/>
<path opacity="0.3" d="M553.117 894.082C553.899 894.137 554.772 893.527 555.067 892.719C555.362 891.912 554.967 891.213 554.185 891.158C553.403 891.103 552.53 891.713 552.235 892.52C551.94 893.328 552.335 894.027 553.117 894.082Z" fill="white"/>
<path opacity="0.3" d="M1444.91 951.577C1445.69 951.632 1446.56 951.022 1446.86 950.215C1447.15 949.408 1446.76 948.709 1445.98 948.654C1445.19 948.599 1444.32 949.209 1444.03 950.016C1443.73 950.823 1444.13 951.522 1444.91 951.577Z" fill="white"/>
<path opacity="0.11" d="M1228.73 875.584C1229.51 875.639 1230.38 875.029 1230.68 874.221C1230.97 873.414 1230.58 872.715 1229.8 872.66C1229.01 872.605 1228.14 873.215 1227.85 874.022C1227.55 874.83 1227.95 875.529 1228.73 875.584Z" fill="white"/>
<path opacity="0.11" d="M1383.68 1011.78C1384.46 1011.84 1385.34 1011.23 1385.63 1010.42C1385.93 1009.61 1385.53 1008.91 1384.75 1008.86C1383.97 1008.8 1383.09 1009.41 1382.8 1010.22C1382.5 1011.03 1382.9 1011.73 1383.68 1011.78Z" fill="white"/>
<path opacity="0.3" d="M1020.44 999.778C1022 999.888 1023.75 998.667 1024.34 997.05C1024.93 995.434 1024.14 994.034 1022.58 993.924C1021.01 993.814 1019.26 995.035 1018.67 996.652C1018.08 998.268 1018.87 999.668 1020.44 999.778Z" fill="white"/>
<path opacity="0.11" d="M1120.06 961.769C1121.63 961.879 1123.37 960.657 1123.96 959.041C1124.56 957.425 1123.77 956.025 1122.2 955.915C1120.63 955.805 1118.89 957.026 1118.3 958.643C1117.7 960.259 1118.5 961.658 1120.06 961.769Z" fill="white"/>
<path d="M1138.06 910.528C1139.23 910.611 1140.54 909.695 1140.99 908.483C1141.43 907.272 1140.84 906.222 1139.66 906.14C1138.49 906.057 1137.18 906.973 1136.74 908.185C1136.29 909.397 1136.89 910.446 1138.06 910.528Z" fill="white"/>
<path d="M984.197 1057.25C985.371 1057.33 986.682 1056.41 987.125 1055.2C987.568 1053.99 986.975 1052.94 985.801 1052.86C984.627 1052.77 983.317 1053.69 982.874 1054.9C982.431 1056.11 983.023 1057.16 984.197 1057.25Z" fill="white"/>
<path d="M1443.85 1119.53C1445.03 1119.61 1446.34 1118.7 1446.78 1117.48C1447.22 1116.27 1446.63 1115.22 1445.46 1115.14C1444.28 1115.06 1442.97 1115.97 1442.53 1117.19C1442.09 1118.4 1442.68 1119.45 1443.85 1119.53Z" fill="white"/>
<path d="M533.488 1030.08C534.662 1030.16 535.973 1029.25 536.416 1028.04C536.859 1026.82 536.266 1025.78 535.092 1025.69C533.918 1025.61 532.608 1026.53 532.165 1027.74C531.722 1028.95 532.314 1030 533.488 1030.08Z" fill="white"/>
<path d="M357.367 983.213C358.541 983.296 359.852 982.38 360.294 981.168C360.737 979.957 360.145 978.907 358.971 978.825C357.797 978.742 356.487 979.658 356.044 980.87C355.601 982.082 356.193 983.131 357.367 983.213Z" fill="white"/>
<path d="M354.656 923.014C355.83 923.097 357.141 922.181 357.584 920.969C358.026 919.757 357.434 918.708 356.26 918.625C355.086 918.543 353.776 919.459 353.333 920.671C352.89 921.882 353.482 922.932 354.656 923.014Z" fill="white"/>
<path d="M1059.37 935.011C1060.55 935.093 1061.86 934.178 1062.3 932.966C1062.74 931.754 1062.15 930.705 1060.98 930.622C1059.8 930.54 1058.49 931.455 1058.05 932.667C1057.61 933.879 1058.2 934.928 1059.37 935.011Z" fill="white"/>
<path d="M773.318 1025.93C774.492 1026.01 775.803 1025.1 776.246 1023.88C776.689 1022.67 776.096 1021.62 774.922 1021.54C773.748 1021.46 772.438 1022.37 771.995 1023.59C771.552 1024.8 772.145 1025.85 773.318 1025.93Z" fill="white"/>
<path d="M1107.35 1113.9C1108.52 1113.98 1109.83 1113.07 1110.28 1111.86C1110.72 1110.64 1110.13 1109.6 1108.95 1109.51C1107.78 1109.43 1106.47 1110.35 1106.03 1111.56C1105.58 1112.77 1106.18 1113.82 1107.35 1113.9Z" fill="white"/>
<path d="M1519.11 1040.8C1520.29 1040.88 1521.6 1039.97 1522.04 1038.76C1522.48 1037.54 1521.89 1036.49 1520.72 1036.41C1519.54 1036.33 1518.23 1037.25 1517.79 1038.46C1517.35 1039.67 1517.94 1040.72 1519.11 1040.8Z" fill="white"/>
<path d="M1582.51 962.749C1583.68 962.831 1584.99 961.916 1585.44 960.704C1585.88 959.492 1585.29 958.442 1584.11 958.36C1582.94 958.277 1581.63 959.193 1581.18 960.405C1580.74 961.617 1581.33 962.666 1582.51 962.749Z" fill="white"/>
<path opacity="0.3" d="M1254.41 920.201C1255.98 920.311 1257.73 919.09 1258.32 917.474C1258.91 915.857 1258.12 914.458 1256.55 914.348C1254.99 914.238 1253.24 915.459 1252.65 917.075C1252.06 918.691 1252.85 920.091 1254.41 920.201Z" fill="white"/>
<path d="M1292.35 816.348C1293.91 816.458 1295.66 815.237 1296.25 813.621C1296.84 812.004 1296.05 810.605 1294.49 810.495C1292.92 810.385 1291.17 811.606 1290.58 813.222C1289.99 814.838 1290.78 816.238 1292.35 816.348Z" fill="white"/>
<path d="M1315.61 957.505C1316.79 957.587 1318.1 956.671 1318.54 955.46C1318.98 954.248 1318.39 953.198 1317.22 953.116C1316.04 953.033 1314.73 953.949 1314.29 955.161C1313.85 956.373 1314.44 957.422 1315.61 957.505Z" fill="white"/>
<path opacity="0.3" d="M1405.17 905.288C1406.73 905.398 1408.48 904.176 1409.07 902.56C1409.66 900.944 1408.87 899.544 1407.31 899.434C1405.74 899.324 1403.99 900.545 1403.4 902.162C1402.81 903.778 1403.6 905.177 1405.17 905.288Z" fill="white"/>
<path opacity="0.3" d="M1498.48 1018.99C1500.04 1019.1 1501.79 1017.88 1502.38 1016.26C1502.97 1014.64 1502.18 1013.24 1500.62 1013.13C1499.05 1013.02 1497.3 1014.24 1496.71 1015.86C1496.12 1017.48 1496.91 1018.88 1498.48 1018.99Z" fill="white"/>
<path opacity="0.3" d="M1349.65 1010.27C1351.22 1010.38 1352.97 1009.16 1353.56 1007.54C1354.15 1005.92 1353.36 1004.52 1351.79 1004.41C1350.23 1004.3 1348.48 1005.52 1347.89 1007.14C1347.3 1008.76 1348.09 1010.16 1349.65 1010.27Z" fill="white"/>
<path opacity="0.3" d="M518.377 978.016C519.943 978.126 521.691 976.905 522.281 975.289C522.872 973.672 522.082 972.273 520.516 972.163C518.951 972.053 517.203 973.274 516.612 974.89C516.021 976.506 516.812 977.906 518.377 978.016Z" fill="white"/>
<path opacity="0.3" d="M433.002 889.506C434.568 889.616 436.316 888.395 436.906 886.778C437.497 885.162 436.707 883.762 435.141 883.652C433.576 883.542 431.828 884.763 431.237 886.38C430.646 887.996 431.437 889.396 433.002 889.506Z" fill="white"/>
<path opacity="0.11" d="M1465.42 971.028C1466.99 971.138 1468.74 969.917 1469.33 968.3C1469.92 966.684 1469.13 965.284 1467.56 965.174C1466 965.064 1464.25 966.285 1463.66 967.902C1463.07 969.518 1463.86 970.918 1465.42 971.028Z" fill="white"/>
<path opacity="0.3" d="M653.762 854.008C655.327 854.118 657.075 852.897 657.666 851.28C658.257 849.664 657.467 848.264 655.901 848.154C654.336 848.044 652.588 849.265 651.997 850.882C651.406 852.498 652.196 853.898 653.762 854.008Z" fill="white"/>
<path opacity="0.11" d="M626.201 822.065C627.767 822.175 629.515 820.954 630.106 819.338C630.696 817.722 629.906 816.322 628.34 816.212C626.775 816.102 625.027 817.323 624.436 818.939C623.845 820.556 624.636 821.955 626.201 822.065Z" fill="white"/>
<path opacity="0.3" d="M580.67 914.885C582.236 914.995 583.984 913.774 584.574 912.157C585.165 910.541 584.375 909.141 582.809 909.031C581.244 908.921 579.496 910.142 578.905 911.759C578.314 913.375 579.104 914.775 580.67 914.885Z" fill="white"/>
<path d="M669.744 919.636C670.918 919.718 672.229 918.803 672.671 917.591C673.114 916.379 672.522 915.33 671.348 915.247C670.174 915.165 668.864 916.08 668.421 917.292C667.978 918.504 668.57 919.553 669.744 919.636Z" fill="white"/>
<path opacity="0.11" d="M1587.23 1217.64C1588.79 1217.75 1590.54 1216.52 1591.13 1214.91C1591.72 1213.29 1590.93 1211.89 1589.37 1211.78C1587.8 1211.67 1586.05 1212.89 1585.46 1214.51C1584.87 1216.13 1585.66 1217.53 1587.23 1217.64Z" fill="white"/>
<path d="M1590.55 1234.37C1591.72 1234.45 1593.03 1233.53 1593.48 1232.32C1593.92 1231.11 1593.33 1230.06 1592.15 1229.98C1590.98 1229.89 1589.67 1230.81 1589.23 1232.02C1588.78 1233.23 1589.37 1234.28 1590.55 1234.37Z" fill="white"/>
<path d="M1638.53 1206.94C1639.7 1207.02 1641.01 1206.11 1641.45 1204.9C1641.9 1203.68 1641.31 1202.64 1640.13 1202.55C1638.96 1202.47 1637.65 1203.39 1637.2 1204.6C1636.76 1205.81 1637.35 1206.86 1638.53 1206.94Z" fill="white"/>
<path d="M1529.17 1195.55C1530.35 1195.63 1531.66 1194.72 1532.1 1193.51C1532.54 1192.29 1531.95 1191.24 1530.78 1191.16C1529.6 1191.08 1528.29 1191.99 1527.85 1193.21C1527.41 1194.42 1528 1195.47 1529.17 1195.55Z" fill="white"/>
<path opacity="0.11" d="M1446.22 1225.73C1447.78 1225.84 1449.53 1224.62 1450.12 1223C1450.71 1221.38 1449.92 1219.99 1448.36 1219.88C1446.79 1219.77 1445.04 1220.99 1444.45 1222.6C1443.86 1224.22 1444.65 1225.62 1446.22 1225.73Z" fill="white"/>
<path d="M1431.06 1191.66C1431.84 1191.72 1432.72 1191.11 1433.01 1190.3C1433.31 1189.49 1432.91 1188.79 1432.13 1188.74C1431.35 1188.68 1430.48 1189.29 1430.18 1190.1C1429.89 1190.91 1430.28 1191.61 1431.06 1191.66Z" fill="white"/>
<path d="M1562.12 1274.37C1562.9 1274.43 1563.78 1273.82 1564.07 1273.01C1564.37 1272.2 1563.97 1271.5 1563.19 1271.45C1562.41 1271.39 1561.54 1272 1561.24 1272.81C1560.95 1273.62 1561.34 1274.32 1562.12 1274.37Z" fill="white"/>
<path d="M1870.97 1296.07C1871.75 1296.13 1872.63 1295.52 1872.92 1294.71C1873.22 1293.9 1872.82 1293.2 1872.04 1293.15C1871.26 1293.09 1870.39 1293.7 1870.09 1294.51C1869.8 1295.32 1870.19 1296.02 1870.97 1296.07Z" fill="white"/>
<path d="M1094.72 1204.67C1095.5 1204.73 1096.37 1204.12 1096.67 1203.31C1096.96 1202.5 1096.57 1201.8 1095.78 1201.75C1095 1201.69 1094.13 1202.3 1093.83 1203.11C1093.54 1203.92 1093.93 1204.62 1094.72 1204.67Z" fill="white"/>
<path opacity="0.11" d="M1111.33 1124.2C1112.12 1124.26 1112.99 1123.65 1113.28 1122.84C1113.58 1122.03 1113.18 1121.33 1112.4 1121.28C1111.62 1121.22 1110.75 1121.83 1110.45 1122.64C1110.16 1123.45 1110.55 1124.15 1111.33 1124.2Z" fill="white"/>
<path opacity="0.11" d="M1038.13 1153.57C1038.91 1153.62 1039.78 1153.01 1040.08 1152.2C1040.37 1151.4 1039.98 1150.7 1039.2 1150.64C1038.42 1150.59 1037.54 1151.2 1037.25 1152C1036.95 1152.81 1037.35 1153.51 1038.13 1153.57Z" fill="white"/>
<path opacity="0.11" d="M1052.81 1244.61C1053.59 1244.66 1054.47 1244.06 1054.76 1243.25C1055.06 1242.44 1054.66 1241.74 1053.88 1241.69C1053.1 1241.63 1052.23 1242.24 1051.93 1243.05C1051.64 1243.86 1052.03 1244.55 1052.81 1244.61Z" fill="white"/>
<path opacity="0.11" d="M1411.36 1209.77C1412.14 1209.83 1413.01 1209.22 1413.31 1208.41C1413.6 1207.6 1413.21 1206.9 1412.43 1206.85C1411.65 1206.79 1410.77 1207.4 1410.48 1208.21C1410.18 1209.02 1410.58 1209.72 1411.36 1209.77Z" fill="white"/>
<path opacity="0.11" d="M1545.37 1198.64C1546.15 1198.7 1547.03 1198.09 1547.32 1197.28C1547.62 1196.47 1547.22 1195.78 1546.44 1195.72C1545.66 1195.67 1544.78 1196.28 1544.49 1197.08C1544.19 1197.89 1544.59 1198.59 1545.37 1198.64Z" fill="white"/>
<path opacity="0.11" d="M1817.41 1331.31C1818.19 1331.37 1819.06 1330.76 1819.36 1329.95C1819.65 1329.14 1819.26 1328.44 1818.48 1328.39C1817.69 1328.33 1816.82 1328.94 1816.53 1329.75C1816.23 1330.56 1816.63 1331.26 1817.41 1331.31Z" fill="white"/>
<path opacity="0.3" d="M1182.25 1172.68C1183.04 1172.74 1183.91 1172.13 1184.2 1171.32C1184.5 1170.52 1184.1 1169.82 1183.32 1169.76C1182.54 1169.71 1181.67 1170.32 1181.37 1171.12C1181.08 1171.93 1181.47 1172.63 1182.25 1172.68Z" fill="white"/>
<path d="M1536.95 1116.58C1537.73 1116.64 1538.61 1116.03 1538.9 1115.22C1539.2 1114.41 1538.8 1113.71 1538.02 1113.66C1537.24 1113.6 1536.37 1114.21 1536.07 1115.02C1535.78 1115.83 1536.17 1116.53 1536.95 1116.58Z" fill="white"/>
<path d="M1756.19 1128.98C1756.97 1129.04 1757.84 1128.43 1758.14 1127.62C1758.43 1126.81 1758.04 1126.12 1757.26 1126.06C1756.48 1126.01 1755.6 1126.62 1755.31 1127.42C1755.01 1128.23 1755.41 1128.93 1756.19 1128.98Z" fill="white"/>
<path d="M1391.45 1244.39C1392.23 1244.44 1393.1 1243.83 1393.4 1243.02C1393.69 1242.22 1393.3 1241.52 1392.52 1241.46C1391.73 1241.41 1390.86 1242.02 1390.57 1242.83C1390.27 1243.63 1390.67 1244.33 1391.45 1244.39Z" fill="white"/>
<path opacity="0.3" d="M1292.28 1237.42C1293.06 1237.48 1293.93 1236.87 1294.23 1236.06C1294.52 1235.25 1294.13 1234.55 1293.35 1234.5C1292.56 1234.44 1291.69 1235.05 1291.4 1235.86C1291.1 1236.67 1291.5 1237.37 1292.28 1237.42Z" fill="white"/>
<path opacity="0.11" d="M1218.26 1138.58C1219.04 1138.64 1219.91 1138.03 1220.21 1137.22C1220.5 1136.41 1220.11 1135.71 1219.32 1135.66C1218.54 1135.6 1217.67 1136.21 1217.37 1137.02C1217.08 1137.83 1217.47 1138.53 1218.26 1138.58Z" fill="white"/>
<path opacity="0.3" d="M1549.64 1153.49C1550.42 1153.54 1551.29 1152.93 1551.59 1152.12C1551.88 1151.32 1551.49 1150.62 1550.71 1150.56C1549.92 1150.51 1549.05 1151.12 1548.76 1151.93C1548.46 1152.73 1548.86 1153.43 1549.64 1153.49Z" fill="white"/>
<path opacity="0.3" d="M1405.39 1273.87C1406.17 1273.93 1407.04 1273.32 1407.34 1272.51C1407.63 1271.7 1407.24 1271.01 1406.46 1270.95C1405.67 1270.9 1404.8 1271.51 1404.51 1272.31C1404.21 1273.12 1404.61 1273.82 1405.39 1273.87Z" fill="white"/>
<path opacity="0.3" d="M1228.62 1276.45C1229.4 1276.51 1230.27 1275.9 1230.57 1275.09C1230.86 1274.29 1230.47 1273.59 1229.69 1273.53C1228.9 1273.48 1228.03 1274.09 1227.74 1274.89C1227.44 1275.7 1227.84 1276.4 1228.62 1276.45Z" fill="white"/>
<path opacity="0.3" d="M1223.34 1175.58C1224.12 1175.63 1224.99 1175.02 1225.29 1174.22C1225.58 1173.41 1225.19 1172.71 1224.41 1172.66C1223.62 1172.6 1222.75 1173.21 1222.46 1174.02C1222.16 1174.82 1222.56 1175.52 1223.34 1175.58Z" fill="white"/>
<path opacity="0.11" d="M1899.95 1157.08C1900.73 1157.14 1901.6 1156.53 1901.9 1155.72C1902.19 1154.91 1901.8 1154.21 1901.02 1154.16C1900.24 1154.1 1899.36 1154.71 1899.07 1155.52C1898.77 1156.33 1899.17 1157.03 1899.95 1157.08Z" fill="white"/>
<path opacity="0.3" d="M1681.66 1281.27C1683.22 1281.38 1684.97 1280.16 1685.56 1278.55C1686.15 1276.93 1685.36 1275.53 1683.8 1275.42C1682.23 1275.31 1680.48 1276.53 1679.89 1278.15C1679.3 1279.76 1680.09 1281.16 1681.66 1281.27Z" fill="white"/>
<path opacity="0.11" d="M1781.28 1243.27C1782.85 1243.38 1784.59 1242.16 1785.19 1240.54C1785.78 1238.92 1784.99 1237.52 1783.42 1237.41C1781.86 1237.3 1780.11 1238.52 1779.52 1240.14C1778.93 1241.76 1779.72 1243.16 1781.28 1243.27Z" fill="white"/>
<path d="M1799.28 1192.03C1800.46 1192.11 1801.77 1191.19 1802.21 1189.98C1802.65 1188.77 1802.06 1187.72 1800.89 1187.64C1799.71 1187.56 1798.4 1188.47 1797.96 1189.68C1797.52 1190.89 1798.11 1191.94 1799.28 1192.03Z" fill="white"/>
<path d="M1635.42 1338.74C1636.59 1338.83 1637.9 1337.91 1638.35 1336.7C1638.79 1335.49 1638.2 1334.44 1637.02 1334.35C1635.85 1334.27 1634.54 1335.19 1634.1 1336.4C1633.65 1337.61 1634.25 1338.66 1635.42 1338.74Z" fill="white"/>
<path d="M1194.71 1311.58C1195.88 1311.66 1197.2 1310.75 1197.64 1309.54C1198.08 1308.32 1197.49 1307.27 1196.31 1307.19C1195.14 1307.11 1193.83 1308.02 1193.39 1309.24C1192.94 1310.45 1193.54 1311.5 1194.71 1311.58Z" fill="white"/>
<path d="M1018.59 1264.71C1019.76 1264.8 1021.07 1263.88 1021.52 1262.67C1021.96 1261.46 1021.37 1260.41 1020.19 1260.32C1019.02 1260.24 1017.71 1261.16 1017.27 1262.37C1016.82 1263.58 1017.42 1264.63 1018.59 1264.71Z" fill="white"/>
<path d="M1015.88 1204.51C1017.05 1204.59 1018.36 1203.68 1018.81 1202.47C1019.25 1201.26 1018.66 1200.21 1017.48 1200.12C1016.31 1200.04 1015 1200.96 1014.56 1202.17C1014.11 1203.38 1014.71 1204.43 1015.88 1204.51Z" fill="white"/>
<path d="M1720.6 1216.51C1721.77 1216.59 1723.08 1215.67 1723.52 1214.46C1723.97 1213.25 1723.38 1212.2 1722.2 1212.12C1721.03 1212.04 1719.72 1212.95 1719.27 1214.16C1718.83 1215.38 1719.42 1216.42 1720.6 1216.51Z" fill="white"/>
<path d="M1434.54 1307.43C1435.71 1307.51 1437.02 1306.59 1437.47 1305.38C1437.91 1304.17 1437.32 1303.12 1436.14 1303.04C1434.97 1302.96 1433.66 1303.87 1433.22 1305.08C1432.77 1306.3 1433.37 1307.34 1434.54 1307.43Z" fill="white"/>
<path d="M1768.57 1395.4C1769.75 1395.48 1771.06 1394.57 1771.5 1393.36C1771.94 1392.14 1771.35 1391.09 1770.18 1391.01C1769 1390.93 1767.69 1391.84 1767.25 1393.06C1766.81 1394.27 1767.4 1395.32 1768.57 1395.4Z" fill="white"/>
<path opacity="0.3" d="M1915.62 1201.69C1917.18 1201.8 1918.93 1200.58 1919.52 1198.96C1920.11 1197.34 1919.32 1195.94 1917.76 1195.83C1916.19 1195.72 1914.44 1196.95 1913.85 1198.56C1913.26 1200.18 1914.05 1201.58 1915.62 1201.69Z" fill="white"/>
<path opacity="0.3" d="M1179.6 1259.52C1181.16 1259.63 1182.91 1258.4 1183.5 1256.79C1184.09 1255.17 1183.3 1253.77 1181.74 1253.66C1180.17 1253.55 1178.42 1254.77 1177.83 1256.39C1177.24 1258.01 1178.03 1259.41 1179.6 1259.52Z" fill="white"/>
<path opacity="0.3" d="M1094.22 1171C1095.79 1171.11 1097.54 1169.89 1098.13 1168.28C1098.72 1166.66 1097.93 1165.26 1096.36 1165.15C1094.8 1165.04 1093.05 1166.26 1092.46 1167.88C1091.87 1169.49 1092.66 1170.89 1094.22 1171Z" fill="white"/>
<path opacity="0.3" d="M1314.98 1135.5C1316.55 1135.61 1318.3 1134.39 1318.89 1132.78C1319.48 1131.16 1318.69 1129.76 1317.12 1129.65C1315.56 1129.54 1313.81 1130.76 1313.22 1132.38C1312.63 1133.99 1313.42 1135.39 1314.98 1135.5Z" fill="white"/>
<path opacity="0.11" d="M1287.42 1103.56C1288.99 1103.67 1290.74 1102.45 1291.33 1100.84C1291.92 1099.22 1291.13 1097.82 1289.56 1097.71C1288 1097.6 1286.25 1098.82 1285.66 1100.44C1285.07 1102.05 1285.86 1103.45 1287.42 1103.56Z" fill="white"/>
<path opacity="0.3" d="M1231.89 1196.38C1233.46 1196.49 1235.21 1195.27 1235.8 1193.65C1236.39 1192.04 1235.6 1190.64 1234.03 1190.53C1232.47 1190.42 1230.72 1191.64 1230.13 1193.26C1229.54 1194.87 1230.33 1196.27 1231.89 1196.38Z" fill="white"/>
<path d="M1330.96 1201.13C1332.14 1201.22 1333.45 1200.3 1333.89 1199.09C1334.33 1197.88 1333.74 1196.83 1332.57 1196.74C1331.39 1196.66 1330.08 1197.58 1329.64 1198.79C1329.2 1200 1329.79 1201.05 1330.96 1201.13Z" fill="white"/>
</g>
</svg>
