<svg width="1920" height="2969" viewBox="0 0 1920 2969" fill="none" xmlns="http://www.w3.org/2000/svg">
<g filter="url(#filter0_f_619_645)">
<path d="M1285.11 2363.52C1077.75 2558.65 93.6769 1988.31 -320.825 1547.83C-735.327 1107.35 1419.91 1413.57 1627.27 1218.44C1834.63 1023.3 1795.97 703.323 2210.48 1143.8C2624.98 1584.28 1492.47 2168.38 1285.11 2363.52Z" fill="url(#paint0_linear_619_645)" fill-opacity="0.5"/>
</g>
<g filter="url(#filter1_f_619_645)">
<path d="M1200.11 2363.52C992.748 2558.65 8.67682 1988.31 -405.825 1547.83C-820.327 1107.35 1334.91 1413.57 1542.27 1218.44C1749.63 1023.3 1710.97 703.323 2125.48 1143.8C2539.98 1584.28 1407.47 2168.38 1200.11 2363.52Z" fill="url(#paint1_linear_619_645)" fill-opacity="0.5"/>
</g>
<g filter="url(#filter2_f_619_645)">
<ellipse cx="952.5" cy="1536.43" rx="529.5" ry="193.434" transform="rotate(-180 952.5 1536.43)" fill="url(#paint2_linear_619_645)"/>
</g>
<defs>
<filter id="filter0_f_619_645" x="-939.382" y="356.598" width="3806.08" height="2612.07" filterUnits="userSpaceOnUse" color-interpolation-filters="sRGB">
<feFlood flood-opacity="0" result="BackgroundImageFix"/>
<feBlend mode="normal" in="SourceGraphic" in2="BackgroundImageFix" result="shape"/>
<feGaussianBlur stdDeviation="282.874" result="effect1_foregroundBlur_619_645"/>
</filter>
<filter id="filter1_f_619_645" x="-1024.38" y="356.598" width="3806.08" height="2612.07" filterUnits="userSpaceOnUse" color-interpolation-filters="sRGB">
<feFlood flood-opacity="0" result="BackgroundImageFix"/>
<feBlend mode="normal" in="SourceGraphic" in2="BackgroundImageFix" result="shape"/>
<feGaussianBlur stdDeviation="282.874" result="effect1_foregroundBlur_619_645"/>
</filter>
<filter id="filter2_f_619_645" x="-3.45999" y="916.54" width="1911.92" height="1239.79" filterUnits="userSpaceOnUse" color-interpolation-filters="sRGB">
<feFlood flood-opacity="0" result="BackgroundImageFix"/>
<feBlend mode="normal" in="SourceGraphic" in2="BackgroundImageFix" result="shape"/>
<feGaussianBlur stdDeviation="213.23" result="effect1_foregroundBlur_619_645"/>
</filter>
<linearGradient id="paint0_linear_619_645" x1="542.8" y1="2050.31" x2="1712.14" y2="2059.18" gradientUnits="userSpaceOnUse">
<stop stop-color="#00F5F0"/>
<stop offset="1" stop-color="#0066FF"/>
</linearGradient>
<linearGradient id="paint1_linear_619_645" x1="457.8" y1="2050.31" x2="1627.14" y2="2059.18" gradientUnits="userSpaceOnUse">
<stop stop-color="#00F5F0"/>
<stop offset="1" stop-color="#0066FF"/>
</linearGradient>
<linearGradient id="paint2_linear_619_645" x1="446" y1="1621.06" x2="800.415" y2="1093.03" gradientUnits="userSpaceOnUse">
<stop stop-color="#00F5F0"/>
<stop offset="1" stop-color="#0066FF"/>
</linearGradient>
</defs>
</svg>
