<svg width="184" height="184" viewBox="0 0 184 184" fill="none" xmlns="http://www.w3.org/2000/svg">
<circle cx="91.8095" cy="94.1788" r="40.5" transform="rotate(-27.6212 91.8095 94.1788)" fill="white" fill-opacity="0.38"/>
<circle cx="92.0113" cy="92.0118" r="68.0118" transform="rotate(-27.6212 92.0113 92.0118)" fill="white" fill-opacity="0.03"/>
<path d="M86.2198 102.814L81.4574 105.306C81.0076 105.541 80.5509 105.587 80.0875 105.442C79.624 105.296 79.2746 104.999 79.0392 104.549L75.7166 98.1994C75.4812 97.7496 75.4361 97.293 75.5811 96.8295C75.7262 96.366 76.0236 96.0166 76.4734 95.7812L81.2358 93.2893L83.7333 85.3094C83.973 84.5437 84.4896 84.1301 85.2832 84.0687C86.0768 84.0074 86.6604 84.3338 87.0342 85.0482L96.2961 102.749C96.6699 103.463 96.6054 104.129 96.1025 104.746C95.5997 105.363 94.9654 105.551 94.1996 105.312L86.2198 102.814Z" fill="white"/>
<path d="M105.963 99.0425C107.106 95.3892 106.855 91.3 104.941 87.6408C103.026 83.9816 99.8091 81.4448 96.1562 80.3009" stroke="white" stroke-width="2" stroke-miterlimit="10" stroke-linecap="round" stroke-linejoin="round"/>
<path d="M101.355 98.649C102.213 95.9095 102.025 92.8428 100.589 90.0979C99.1523 87.3531 96.7398 85.4504 94 84.5936" stroke="white" stroke-width="2" stroke-miterlimit="10" stroke-linecap="round" stroke-linejoin="round"/>
<path d="M96.5987 97.28C97.1704 95.4531 97.0449 93.4087 96.0876 91.5791C95.1302 89.7495 93.5222 88.4809 91.6953 87.9092" stroke="white" stroke-width="2" stroke-miterlimit="10" stroke-linecap="round" stroke-linejoin="round"/>
</svg>
