<svg width="107" height="121" viewBox="0 0 107 121" fill="none" xmlns="http://www.w3.org/2000/svg">
<path d="M52.875 114.13L50.9188 111.325L46.5985 112.527L46.3721 115.939L44.9495 116.335L45.9317 104.36L47.2714 103.987L54.2976 113.734L52.875 114.13ZM47.0376 105.828L46.677 111.265L50.1994 110.284L47.0828 105.816L47.0376 105.828ZM60.2248 106.416L58.9453 106.772C58.5204 105.974 57.6633 105.459 56.5118 105.779C55.157 106.156 54.5508 107.533 55.045 109.309C55.5518 111.131 56.7846 111.947 58.1394 111.57C59.2082 111.273 59.7511 110.514 59.7151 109.51L61.0021 109.152C61.2324 110.766 60.2286 112.23 58.4523 112.724C56.2846 113.327 54.4144 112.201 53.7128 109.68C53.0259 107.211 54.0237 105.231 56.1838 104.63C58.1407 104.085 59.6676 105.055 60.2248 106.416ZM67.947 104.268L66.6675 104.624C66.2427 103.826 65.3856 103.31 64.234 103.63C62.8793 104.007 62.2731 105.384 62.7673 107.161C63.2741 108.982 64.5069 109.799 65.8617 109.422C66.9304 109.124 67.4733 108.365 67.4373 107.361L68.7244 107.003C68.9547 108.618 67.9508 110.081 66.1745 110.575C64.0069 111.178 62.1367 110.053 61.4351 107.531C60.7482 105.062 61.746 103.082 63.9061 102.481C65.863 101.936 67.3898 102.906 67.947 104.268ZM71.8693 101.49C70.6425 101.831 70.0462 103.011 70.3257 104.336L74.5783 103.152C74.1838 101.851 73.1037 101.146 71.8693 101.49ZM75.1995 105.502L76.4865 105.143C76.6419 106.576 75.5978 107.953 73.8893 108.429C71.6464 109.053 69.8505 107.874 69.1657 105.413C68.4893 102.982 69.4155 100.948 71.5757 100.347C73.6906 99.7584 75.42 100.931 76.0796 103.302L76.2179 103.799L70.603 105.361L70.624 105.437C71.0407 106.934 72.1957 107.675 73.6032 107.284C74.5967 107.007 75.1864 106.3 75.1995 105.502ZM80.1183 97.9699C82.1129 97.4149 83.9116 98.6336 84.5944 101.087C85.2771 103.541 84.3738 105.511 82.4018 106.06C81.2804 106.372 80.2243 106.074 79.5189 105.346L79.4888 105.354L80.5694 109.238L79.2598 109.602L76.3551 99.1629L77.597 98.8174L77.9656 100.142L77.9957 100.134C78.2324 99.119 78.9818 98.2861 80.1183 97.9699ZM81.7954 104.988C83.1878 104.601 83.7489 103.236 83.2546 101.46C82.7625 99.6913 81.5753 98.8052 80.1828 99.1926C78.8431 99.5654 78.2624 100.976 78.7462 102.714C79.2321 104.461 80.4557 105.361 81.7954 104.988ZM84.7259 94.7984L86.0355 94.434L86.5611 96.3231L88.0815 95.9001L88.381 96.9764L86.8606 97.3994L88.1549 102.051C88.3538 102.766 88.7449 103.006 89.4148 102.819C89.5653 102.777 89.8601 102.671 89.9462 102.631L90.252 103.73C90.1044 103.811 89.7494 103.935 89.4408 104.02C88.0032 104.42 87.2829 103.988 86.8641 102.483L85.551 97.7638L84.3844 98.0885L84.0849 97.0122L85.2515 96.6875L84.7259 94.7984Z" fill="white"/>
<circle cx="50.5501" cy="49.9026" r="40.5" transform="rotate(-15.5491 50.5501 49.9026)" fill="#3377F4"/>
<path d="M40.1425 55.3938L49.9943 60.9565L59.5657 37.5335" stroke="white" stroke-width="5" stroke-linecap="round" stroke-linejoin="round"/>
</svg>
