<svg width="1531" height="1576" viewBox="0 0 1531 1576" fill="none" xmlns="http://www.w3.org/2000/svg">
<g clip-path="url(#clip0_222_564)">
<g opacity="0.7">
<path opacity="0.11" d="M391.995 892.722C392.85 892.618 393.705 891.746 393.905 890.774C394.105 889.802 393.574 889.098 392.718 889.202C391.863 889.306 391.008 890.178 390.808 891.15C390.608 892.122 391.139 892.826 391.995 892.722Z" fill="white"/>
<path d="M395.031 901.784C395.673 901.706 396.314 901.053 396.464 900.324C396.614 899.595 396.215 899.068 395.574 899.145C394.933 899.223 394.292 899.877 394.142 900.606C393.992 901.335 394.39 901.862 395.031 901.784Z" fill="white"/>
<path d="M424.371 880.217C425.012 880.139 425.654 879.485 425.804 878.756C425.953 878.028 425.555 877.5 424.914 877.578C424.273 877.656 423.631 878.31 423.482 879.038C423.332 879.767 423.73 880.295 424.371 880.217Z" fill="white"/>
<path d="M358.949 886.441C359.591 886.363 360.232 885.709 360.382 884.98C360.532 884.252 360.133 883.724 359.492 883.802C358.851 883.88 358.21 884.533 358.06 885.262C357.91 885.991 358.308 886.519 358.949 886.441Z" fill="white"/>
<path opacity="0.11" d="M316.296 912.202C317.152 912.098 318.007 911.226 318.207 910.254C318.407 909.282 317.875 908.578 317.02 908.682C316.165 908.786 315.31 909.658 315.11 910.63C314.91 911.602 315.441 912.306 316.296 912.202Z" fill="white"/>
<path d="M305.576 894.637C306.003 894.585 306.431 894.149 306.53 893.664C306.63 893.178 306.365 892.826 305.938 892.878C305.51 892.93 305.083 893.366 304.983 893.851C304.883 894.337 305.149 894.689 305.576 894.637Z" fill="white"/>
<path d="M382.613 927.304C383.04 927.253 383.468 926.817 383.567 926.331C383.667 925.846 383.402 925.494 382.975 925.546C382.547 925.598 382.12 926.034 382.02 926.519C381.921 927.005 382.186 927.356 382.613 927.304Z" fill="white"/>
<path d="M551.331 906.825C551.758 906.773 552.185 906.338 552.285 905.852C552.385 905.367 552.12 905.015 551.693 905.067C551.265 905.119 550.838 905.554 550.738 906.04C550.638 906.526 550.904 906.877 551.331 906.825Z" fill="white"/>
<path d="M645.451 849.082C645.878 849.031 646.306 848.595 646.405 848.109C646.505 847.624 646.24 847.272 645.813 847.324C645.385 847.376 644.958 847.812 644.858 848.297C644.758 848.783 645.024 849.134 645.451 849.082Z" fill="white"/>
<path d="M662.436 909.628C662.864 909.576 663.291 909.141 663.391 908.655C663.491 908.169 663.225 907.818 662.798 907.87C662.371 907.922 661.943 908.357 661.844 908.843C661.744 909.328 662.009 909.68 662.436 909.628Z" fill="white"/>
<path d="M129.42 936.605C129.847 936.553 130.274 936.117 130.374 935.632C130.474 935.146 130.209 934.795 129.781 934.847C129.354 934.898 128.927 935.334 128.827 935.82C128.727 936.305 128.993 936.657 129.42 936.605Z" fill="white"/>
<path opacity="0.11" d="M127.584 890.519C128.011 890.467 128.438 890.032 128.538 889.546C128.638 889.061 128.373 888.709 127.945 888.761C127.518 888.813 127.091 889.248 126.991 889.734C126.891 890.22 127.157 890.571 127.584 890.519Z" fill="white"/>
<path opacity="0.11" d="M90.1483 914.791C90.5756 914.739 91.0028 914.303 91.1027 913.818C91.2025 913.332 90.9371 912.981 90.5099 913.032C90.0827 913.084 89.6554 913.52 89.5556 914.005C89.4557 914.491 89.7211 914.843 90.1483 914.791Z" fill="white"/>
<path opacity="0.11" d="M104.833 964.464C105.26 964.412 105.687 963.976 105.787 963.491C105.887 963.005 105.622 962.654 105.194 962.706C104.767 962.758 104.34 963.193 104.24 963.679C104.14 964.164 104.406 964.516 104.833 964.464Z" fill="white"/>
<path opacity="0.11" d="M296.255 906.915C296.682 906.863 297.109 906.427 297.209 905.942C297.309 905.456 297.044 905.104 296.616 905.156C296.189 905.208 295.762 905.644 295.662 906.129C295.562 906.615 295.828 906.966 296.255 906.915Z" fill="white"/>
<path opacity="0.11" d="M374.561 959.162C374.989 959.11 375.416 958.675 375.516 958.189C375.616 957.704 375.35 957.352 374.923 957.404C374.496 957.456 374.068 957.891 373.969 958.377C373.869 958.862 374.134 959.214 374.561 959.162Z" fill="white"/>
<path opacity="0.11" d="M524.956 932.321C525.383 932.27 525.81 931.834 525.91 931.348C526.01 930.863 525.745 930.511 525.318 930.563C524.89 930.615 524.463 931.051 524.363 931.536C524.263 932.022 524.529 932.373 524.956 932.321Z" fill="white"/>
<path opacity="0.3" d="M169.546 910.294C169.973 910.242 170.4 909.807 170.5 909.321C170.6 908.835 170.335 908.484 169.907 908.536C169.48 908.588 169.053 909.023 168.953 909.509C168.853 909.994 169.119 910.346 169.546 910.294Z" fill="white"/>
<path d="M357.31 841.184C357.738 841.133 358.165 840.697 358.265 840.211C358.365 839.726 358.099 839.374 357.672 839.426C357.245 839.478 356.818 839.914 356.718 840.399C356.618 840.885 356.883 841.236 357.31 841.184Z" fill="white"/>
<path d="M476.855 824.958C477.283 824.906 477.71 824.47 477.81 823.985C477.91 823.499 477.644 823.148 477.217 823.2C476.79 823.252 476.362 823.687 476.263 824.173C476.163 824.658 476.428 825.01 476.855 824.958Z" fill="white"/>
<path d="M288.045 928.495C288.472 928.444 288.899 928.008 288.999 927.522C289.099 927.037 288.834 926.685 288.406 926.737C287.979 926.789 287.552 927.225 287.452 927.71C287.352 928.196 287.618 928.547 288.045 928.495Z" fill="white"/>
<path opacity="0.3" d="M233.87 935.075C234.297 935.023 234.725 934.587 234.824 934.102C234.924 933.616 234.659 933.265 234.232 933.316C233.804 933.368 233.377 933.804 233.277 934.29C233.177 934.775 233.443 935.127 233.87 935.075Z" fill="white"/>
<path opacity="0.11" d="M181.631 888.246C182.058 888.195 182.485 887.759 182.585 887.273C182.685 886.788 182.42 886.436 181.992 886.488C181.565 886.54 181.138 886.976 181.038 887.461C180.938 887.947 181.204 888.298 181.631 888.246Z" fill="white"/>
<path opacity="0.3" d="M366.907 860.607C367.334 860.555 367.762 860.119 367.861 859.634C367.961 859.148 367.696 858.796 367.269 858.848C366.841 858.9 366.414 859.336 366.314 859.821C366.215 860.307 366.48 860.659 366.907 860.607Z" fill="white"/>
<path opacity="0.3" d="M297.769 943.612C298.197 943.561 298.624 943.125 298.724 942.639C298.824 942.154 298.558 941.802 298.131 941.854C297.704 941.906 297.276 942.342 297.177 942.827C297.077 943.313 297.342 943.664 297.769 943.612Z" fill="white"/>
<path opacity="0.3" d="M202.315 963.775C202.743 963.723 203.17 963.288 203.27 962.802C203.369 962.316 203.104 961.965 202.677 962.017C202.25 962.069 201.822 962.504 201.723 962.99C201.623 963.475 201.888 963.827 202.315 963.775Z" fill="white"/>
<path opacity="0.3" d="M191.99 907.574C192.417 907.522 192.845 907.086 192.944 906.601C193.044 906.115 192.779 905.764 192.352 905.815C191.924 905.867 191.497 906.303 191.397 906.789C191.297 907.274 191.563 907.626 191.99 907.574Z" fill="white"/>
<path opacity="0.3" d="M673.903 846.488C674.33 846.436 674.758 846.001 674.858 845.515C674.957 845.03 674.692 844.678 674.265 844.73C673.838 844.782 673.41 845.217 673.31 845.703C673.211 846.189 673.476 846.54 673.903 846.488Z" fill="white"/>
<path opacity="0.11" d="M556.72 825.55C557.147 825.499 557.574 825.063 557.674 824.577C557.774 824.092 557.508 823.74 557.081 823.792C556.654 823.844 556.227 824.28 556.127 824.765C556.027 825.251 556.292 825.602 556.72 825.55Z" fill="white"/>
<path opacity="0.11" d="M645.233 886.843C645.661 886.791 646.088 886.355 646.188 885.87C646.287 885.384 646.022 885.033 645.595 885.084C645.168 885.136 644.74 885.572 644.641 886.058C644.541 886.543 644.806 886.895 645.233 886.843Z" fill="white"/>
<path opacity="0.3" d="M447.802 918.534C448.657 918.43 449.513 917.558 449.713 916.587C449.912 915.615 449.381 914.911 448.526 915.015C447.671 915.118 446.816 915.991 446.616 916.963C446.416 917.934 446.947 918.638 447.802 918.534Z" fill="white"/>
<path opacity="0.11" d="M498.891 886.605C499.746 886.502 500.602 885.63 500.801 884.658C501.001 883.686 500.47 882.982 499.615 883.086C498.76 883.19 497.904 884.062 497.705 885.034C497.505 886.006 498.036 886.709 498.891 886.605Z" fill="white"/>
<path d="M504.836 855.868C505.477 855.791 506.119 855.137 506.268 854.408C506.418 853.679 506.02 853.152 505.379 853.229C504.738 853.307 504.096 853.961 503.946 854.69C503.797 855.419 504.195 855.946 504.836 855.868Z" fill="white"/>
<path d="M432.448 954.707C433.09 954.63 433.731 953.976 433.881 953.247C434.031 952.518 433.632 951.991 432.991 952.069C432.35 952.146 431.709 952.8 431.559 953.529C431.409 954.258 431.807 954.785 432.448 954.707Z" fill="white"/>
<path d="M685.769 941.102C686.41 941.024 687.051 940.37 687.201 939.641C687.351 938.913 686.953 938.385 686.311 938.463C685.67 938.541 685.029 939.195 684.879 939.923C684.729 940.652 685.128 941.18 685.769 941.102Z" fill="white"/>
<path d="M186.57 987.127C187.211 987.05 187.852 986.396 188.002 985.667C188.152 984.938 187.753 984.411 187.112 984.489C186.471 984.566 185.83 985.22 185.68 985.949C185.53 986.678 185.928 987.205 186.57 987.127Z" fill="white"/>
<path d="M87.8039 979.397C88.4451 979.319 89.0864 978.665 89.2362 977.936C89.3861 977.207 88.9877 976.68 88.3465 976.758C87.7053 976.835 87.0641 977.489 86.9142 978.218C86.7644 978.947 87.1627 979.474 87.8039 979.397Z" fill="white"/>
<path d="M81.8801 945.811C82.5213 945.733 83.1625 945.079 83.3124 944.35C83.4622 943.622 83.0639 943.094 82.4227 943.172C81.7815 943.25 81.1402 943.904 80.9904 944.632C80.8405 945.361 81.2389 945.889 81.8801 945.811Z" fill="white"/>
<path d="M464.073 877.971C464.715 877.893 465.356 877.24 465.506 876.511C465.656 875.782 465.257 875.254 464.616 875.332C463.975 875.41 463.334 876.064 463.184 876.793C463.034 877.522 463.432 878.049 464.073 877.971Z" fill="white"/>
<path d="M316.028 959.406C316.669 959.329 317.31 958.675 317.46 957.946C317.61 957.217 317.211 956.69 316.57 956.767C315.929 956.845 315.288 957.499 315.138 958.228C314.988 958.957 315.386 959.484 316.028 959.406Z" fill="white"/>
<path d="M503.277 973.552C503.918 973.474 504.559 972.82 504.709 972.091C504.859 971.362 504.46 970.835 503.819 970.913C503.178 970.99 502.537 971.644 502.387 972.373C502.237 973.102 502.635 973.629 503.277 973.552Z" fill="white"/>
<path d="M720.66 888.837C721.302 888.759 721.943 888.106 722.093 887.377C722.242 886.648 721.844 886.12 721.203 886.198C720.562 886.276 719.921 886.93 719.771 887.659C719.621 888.387 720.019 888.915 720.66 888.837Z" fill="white"/>
<path d="M749.184 838.208C749.825 838.13 750.466 837.477 750.616 836.748C750.766 836.019 750.368 835.491 749.726 835.569C749.085 835.647 748.444 836.301 748.294 837.03C748.144 837.758 748.543 838.286 749.184 838.208Z" fill="white"/>
<path opacity="0.3" d="M568.508 848.997C569.363 848.893 570.219 848.021 570.419 847.049C570.618 846.077 570.087 845.373 569.232 845.477C568.377 845.581 567.522 846.453 567.322 847.425C567.122 848.397 567.653 849.1 568.508 848.997Z" fill="white"/>
<path d="M581.343 786.547C582.198 786.443 583.054 785.571 583.254 784.599C583.453 783.627 582.922 782.923 582.067 783.027C581.212 783.131 580.357 784.003 580.157 784.975C579.957 785.947 580.488 786.651 581.343 786.547Z" fill="white"/>
<path d="M604.384 863.509C605.025 863.431 605.666 862.777 605.816 862.048C605.966 861.319 605.568 860.792 604.927 860.87C604.285 860.947 603.644 861.601 603.494 862.33C603.344 863.059 603.743 863.586 604.384 863.509Z" fill="white"/>
<path opacity="0.3" d="M648.973 824.648C649.828 824.544 650.684 823.672 650.883 822.7C651.083 821.728 650.552 821.025 649.697 821.128C648.842 821.232 647.986 822.104 647.787 823.076C647.587 824.048 648.118 824.752 648.973 824.648Z" fill="white"/>
<path opacity="0.3" d="M712.75 877.795C713.605 877.691 714.46 876.819 714.66 875.847C714.86 874.875 714.328 874.172 713.473 874.275C712.618 874.379 711.763 875.251 711.563 876.223C711.363 877.195 711.894 877.899 712.75 877.795Z" fill="white"/>
<path opacity="0.3" d="M621.839 890.546C622.695 890.442 623.55 889.57 623.75 888.598C623.949 887.626 623.418 886.922 622.563 887.026C621.708 887.13 620.853 888.002 620.653 888.974C620.453 889.946 620.984 890.65 621.839 890.546Z" fill="white"/>
<path opacity="0.3" d="M174.538 959.431C175.393 959.327 176.248 958.455 176.448 957.483C176.648 956.511 176.116 955.808 175.261 955.911C174.406 956.015 173.551 956.887 173.351 957.859C173.151 958.831 173.682 959.535 174.538 959.431Z" fill="white"/>
<path opacity="0.3" d="M121.792 918.664C122.647 918.56 123.502 917.688 123.702 916.716C123.902 915.744 123.37 915.041 122.515 915.144C121.66 915.248 120.805 916.12 120.605 917.092C120.405 918.064 120.936 918.768 121.792 918.664Z" fill="white"/>
<path opacity="0.11" d="M686.445 855.261C687.3 855.157 688.155 854.285 688.355 853.313C688.555 852.341 688.024 851.637 687.169 851.741C686.313 851.845 685.458 852.717 685.258 853.689C685.058 854.661 685.59 855.365 686.445 855.261Z" fill="white"/>
<path opacity="0.3" d="M238.611 875.324C239.466 875.22 240.321 874.348 240.521 873.376C240.721 872.404 240.19 871.701 239.335 871.805C238.479 871.908 237.624 872.78 237.424 873.752C237.224 874.724 237.756 875.428 238.611 875.324Z" fill="white"/>
<path opacity="0.11" d="M221.333 860.27C222.188 860.166 223.043 859.294 223.243 858.322C223.443 857.35 222.911 856.646 222.056 856.75C221.201 856.854 220.346 857.726 220.146 858.698C219.946 859.67 220.477 860.373 221.333 860.27Z" fill="white"/>
<path opacity="0.3" d="M203.57 917.315C204.425 917.211 205.28 916.339 205.48 915.367C205.68 914.395 205.149 913.691 204.294 913.795C203.438 913.899 202.583 914.771 202.383 915.743C202.183 916.715 202.715 917.419 203.57 917.315Z" fill="white"/>
<path d="M252.115 910.561C252.757 910.483 253.398 909.829 253.548 909.1C253.698 908.371 253.299 907.844 252.658 907.922C252.017 907.999 251.376 908.653 251.226 909.382C251.076 910.111 251.474 910.638 252.115 910.561Z" fill="white"/>
<path opacity="0.11" d="M714.865 591.626C715.72 591.522 716.575 590.65 716.775 589.678C716.975 588.706 716.444 588.002 715.588 588.106C714.733 588.21 713.878 589.082 713.678 590.054C713.478 591.026 714.01 591.73 714.865 591.626Z" fill="white"/>
<path d="M717.901 600.69C718.542 600.612 719.183 599.958 719.333 599.229C719.483 598.5 719.084 597.973 718.443 598.051C717.802 598.129 717.161 598.782 717.011 599.511C716.861 600.24 717.259 600.768 717.901 600.69Z" fill="white"/>
<path d="M747.241 579.121C747.883 579.043 748.524 578.389 748.674 577.66C748.824 576.932 748.425 576.404 747.784 576.482C747.143 576.56 746.502 577.214 746.352 577.942C746.202 578.671 746.6 579.199 747.241 579.121Z" fill="white"/>
<path d="M681.819 585.345C682.46 585.267 683.101 584.614 683.251 583.885C683.401 583.156 683.002 582.628 682.361 582.706C681.72 582.784 681.079 583.438 680.929 584.167C680.779 584.896 681.177 585.423 681.819 585.345Z" fill="white"/>
<path opacity="0.11" d="M639.167 611.105C640.022 611.001 640.877 610.129 641.077 609.157C641.277 608.185 640.745 607.482 639.89 607.586C639.035 607.689 638.18 608.561 637.98 609.533C637.78 610.505 638.311 611.209 639.167 611.105Z" fill="white"/>
<path d="M628.444 593.541C628.871 593.49 629.299 593.054 629.399 592.568C629.498 592.083 629.233 591.731 628.806 591.783C628.379 591.835 627.951 592.271 627.851 592.756C627.752 593.242 628.017 593.593 628.444 593.541Z" fill="white"/>
<path d="M705.483 626.208C705.911 626.157 706.338 625.721 706.438 625.235C706.537 624.75 706.272 624.398 705.845 624.45C705.418 624.502 704.99 624.938 704.891 625.423C704.791 625.909 705.056 626.26 705.483 626.208Z" fill="white"/>
<path d="M874.199 605.73C874.626 605.678 875.054 605.242 875.153 604.757C875.253 604.271 874.988 603.92 874.561 603.972C874.133 604.024 873.706 604.459 873.606 604.945C873.506 605.43 873.772 605.782 874.199 605.73Z" fill="white"/>
<path d="M968.321 547.988C968.748 547.936 969.176 547.5 969.276 547.015C969.375 546.529 969.11 546.178 968.683 546.229C968.256 546.281 967.828 546.717 967.728 547.203C967.629 547.688 967.894 548.04 968.321 547.988Z" fill="white"/>
<path d="M985.304 608.535C985.731 608.483 986.158 608.048 986.258 607.562C986.358 607.077 986.092 606.725 985.665 606.777C985.238 606.829 984.811 607.265 984.711 607.75C984.611 608.236 984.876 608.587 985.304 608.535Z" fill="white"/>
<path d="M452.291 635.509C452.718 635.457 453.145 635.021 453.245 634.536C453.345 634.05 453.08 633.699 452.652 633.751C452.225 633.802 451.798 634.238 451.698 634.724C451.598 635.209 451.864 635.561 452.291 635.509Z" fill="white"/>
<path opacity="0.11" d="M450.454 589.423C450.881 589.371 451.308 588.935 451.408 588.449C451.508 587.964 451.243 587.612 450.816 587.664C450.388 587.716 449.961 588.152 449.861 588.637C449.761 589.123 450.027 589.474 450.454 589.423Z" fill="white"/>
<path opacity="0.11" d="M413.017 613.694C413.445 613.642 413.872 613.206 413.972 612.721C414.072 612.235 413.806 611.884 413.379 611.936C412.952 611.987 412.525 612.423 412.425 612.909C412.325 613.394 412.59 613.746 413.017 613.694Z" fill="white"/>
<path opacity="0.11" d="M427.704 663.368C428.131 663.316 428.558 662.881 428.658 662.395C428.758 661.91 428.493 661.558 428.066 661.61C427.638 661.662 427.211 662.097 427.111 662.583C427.011 663.068 427.277 663.42 427.704 663.368Z" fill="white"/>
<path opacity="0.11" d="M619.125 605.819C619.552 605.767 619.979 605.331 620.079 604.845C620.179 604.36 619.914 604.008 619.486 604.06C619.059 604.112 618.632 604.548 618.532 605.033C618.432 605.519 618.698 605.87 619.125 605.819Z" fill="white"/>
<path opacity="0.11" d="M697.432 658.066C697.859 658.014 698.286 657.578 698.386 657.093C698.486 656.607 698.22 656.255 697.793 656.307C697.366 656.359 696.939 656.795 696.839 657.28C696.739 657.766 697.004 658.117 697.432 658.066Z" fill="white"/>
<path opacity="0.11" d="M847.827 631.225C848.254 631.174 848.682 630.738 848.781 630.252C848.881 629.767 848.616 629.415 848.189 629.467C847.761 629.519 847.334 629.955 847.234 630.44C847.134 630.926 847.4 631.277 847.827 631.225Z" fill="white"/>
<path opacity="0.3" d="M492.415 609.199C492.842 609.147 493.269 608.711 493.369 608.226C493.469 607.74 493.204 607.389 492.776 607.44C492.349 607.492 491.922 607.928 491.822 608.413C491.722 608.899 491.988 609.251 492.415 609.199Z" fill="white"/>
<path d="M680.182 540.088C680.609 540.037 681.036 539.601 681.136 539.115C681.236 538.63 680.97 538.278 680.543 538.33C680.116 538.382 679.689 538.818 679.589 539.303C679.489 539.789 679.754 540.14 680.182 540.088Z" fill="white"/>
<path d="M799.725 523.861C800.152 523.809 800.579 523.374 800.679 522.888C800.779 522.402 800.513 522.051 800.086 522.103C799.659 522.155 799.232 522.59 799.132 523.076C799.032 523.561 799.297 523.913 799.725 523.861Z" fill="white"/>
<path d="M610.915 627.401C611.342 627.349 611.769 626.913 611.869 626.428C611.969 625.942 611.704 625.591 611.276 625.642C610.849 625.694 610.422 626.13 610.322 626.615C610.222 627.101 610.488 627.453 610.915 627.401Z" fill="white"/>
<path opacity="0.3" d="M556.74 633.978C557.167 633.926 557.595 633.49 557.694 633.005C557.794 632.519 557.529 632.168 557.102 632.22C556.674 632.272 556.247 632.707 556.147 633.193C556.048 633.678 556.313 634.03 556.74 633.978Z" fill="white"/>
<path opacity="0.11" d="M504.5 587.151C504.927 587.099 505.354 586.664 505.454 586.178C505.554 585.693 505.289 585.341 504.861 585.393C504.434 585.445 504.007 585.881 503.907 586.366C503.807 586.852 504.073 587.203 504.5 587.151Z" fill="white"/>
<path opacity="0.3" d="M689.777 559.51C690.204 559.458 690.632 559.022 690.732 558.537C690.831 558.051 690.566 557.7 690.139 557.752C689.712 557.803 689.284 558.239 689.184 558.725C689.085 559.21 689.35 559.562 689.777 559.51Z" fill="white"/>
<path opacity="0.3" d="M620.64 642.516C621.067 642.464 621.494 642.029 621.594 641.543C621.694 641.058 621.428 640.706 621.001 640.758C620.574 640.81 620.147 641.246 620.047 641.731C619.947 642.217 620.212 642.568 620.64 642.516Z" fill="white"/>
<path opacity="0.3" d="M525.184 662.68C525.612 662.628 526.039 662.193 526.139 661.707C526.239 661.222 525.973 660.87 525.546 660.922C525.119 660.974 524.692 661.41 524.592 661.895C524.492 662.381 524.757 662.732 525.184 662.68Z" fill="white"/>
<path opacity="0.3" d="M514.86 606.478C515.287 606.426 515.715 605.99 515.815 605.505C515.914 605.019 515.649 604.668 515.222 604.72C514.795 604.771 514.367 605.207 514.267 605.693C514.168 606.178 514.433 606.53 514.86 606.478Z" fill="white"/>
<path opacity="0.3" d="M996.774 545.392C997.202 545.34 997.629 544.905 997.729 544.419C997.828 543.934 997.563 543.582 997.136 543.634C996.709 543.686 996.281 544.121 996.182 544.607C996.082 545.092 996.347 545.444 996.774 545.392Z" fill="white"/>
<path opacity="0.11" d="M879.589 524.456C880.016 524.404 880.443 523.968 880.543 523.483C880.643 522.997 880.378 522.646 879.95 522.697C879.523 522.749 879.096 523.185 878.996 523.671C878.896 524.156 879.162 524.508 879.589 524.456Z" fill="white"/>
<path opacity="0.11" d="M968.102 585.747C968.53 585.695 968.957 585.26 969.057 584.774C969.157 584.289 968.891 583.937 968.464 583.989C968.037 584.041 967.609 584.476 967.51 584.962C967.41 585.448 967.675 585.799 968.102 585.747Z" fill="white"/>
<path opacity="0.3" d="M770.671 617.44C771.527 617.336 772.382 616.464 772.582 615.492C772.781 614.52 772.25 613.816 771.395 613.92C770.54 614.024 769.685 614.896 769.485 615.868C769.285 616.84 769.816 617.544 770.671 617.44Z" fill="white"/>
<path opacity="0.11" d="M821.761 585.509C822.616 585.405 823.472 584.533 823.672 583.561C823.871 582.589 823.34 581.885 822.485 581.989C821.63 582.093 820.775 582.965 820.575 583.937C820.375 584.909 820.906 585.612 821.761 585.509Z" fill="white"/>
<path d="M827.707 554.772C828.348 554.694 828.99 554.04 829.14 553.312C829.289 552.583 828.891 552.055 828.25 552.133C827.609 552.211 826.967 552.865 826.818 553.594C826.668 554.322 827.066 554.85 827.707 554.772Z" fill="white"/>
<path d="M755.318 653.611C755.959 653.533 756.6 652.879 756.75 652.15C756.9 651.421 756.501 650.894 755.86 650.972C755.219 651.05 754.578 651.703 754.428 652.432C754.278 653.161 754.676 653.689 755.318 653.611Z" fill="white"/>
<path d="M1008.64 640.005C1009.28 639.927 1009.92 639.273 1010.07 638.545C1010.22 637.816 1009.82 637.288 1009.18 637.366C1008.54 637.444 1007.9 638.098 1007.75 638.827C1007.6 639.555 1008 640.083 1008.64 640.005Z" fill="white"/>
<path d="M509.439 686.031C510.08 685.953 510.721 685.299 510.871 684.57C511.021 683.842 510.623 683.314 509.981 683.392C509.34 683.47 508.699 684.124 508.549 684.852C508.399 685.581 508.797 686.109 509.439 686.031Z" fill="white"/>
<path d="M410.675 678.3C411.316 678.223 411.957 677.569 412.107 676.84C412.257 676.111 411.859 675.584 411.218 675.662C410.576 675.739 409.935 676.393 409.785 677.122C409.635 677.851 410.034 678.378 410.675 678.3Z" fill="white"/>
<path d="M404.751 644.715C405.392 644.637 406.034 643.983 406.183 643.254C406.333 642.526 405.935 641.998 405.294 642.076C404.653 642.154 404.011 642.808 403.861 643.536C403.712 644.265 404.11 644.793 404.751 644.715Z" fill="white"/>
<path d="M786.944 576.877C787.585 576.799 788.226 576.145 788.376 575.416C788.526 574.687 788.127 574.16 787.486 574.238C786.845 574.315 786.204 574.969 786.054 575.698C785.904 576.427 786.302 576.954 786.944 576.877Z" fill="white"/>
<path d="M638.898 658.31C639.539 658.232 640.18 657.578 640.33 656.849C640.48 656.121 640.082 655.593 639.44 655.671C638.799 655.749 638.158 656.403 638.008 657.131C637.858 657.86 638.256 658.388 638.898 658.31Z" fill="white"/>
<path d="M826.147 672.455C826.788 672.377 827.429 671.723 827.579 670.994C827.729 670.266 827.331 669.738 826.689 669.816C826.048 669.894 825.407 670.548 825.257 671.276C825.107 672.005 825.505 672.533 826.147 672.455Z" fill="white"/>
<path d="M1043.53 587.741C1044.17 587.663 1044.81 587.01 1044.96 586.281C1045.11 585.552 1044.72 585.024 1044.07 585.102C1043.43 585.18 1042.79 585.834 1042.64 586.563C1042.49 587.291 1042.89 587.819 1043.53 587.741Z" fill="white"/>
<path d="M1072.05 537.113C1072.69 537.036 1073.34 536.382 1073.49 535.653C1073.64 534.924 1073.24 534.397 1072.6 534.474C1071.95 534.552 1071.31 535.206 1071.16 535.935C1071.01 536.664 1071.41 537.191 1072.05 537.113Z" fill="white"/>
<path opacity="0.3" d="M891.377 547.9C892.233 547.796 893.088 546.924 893.288 545.952C893.488 544.98 892.956 544.276 892.101 544.38C891.246 544.484 890.391 545.356 890.191 546.328C889.991 547.3 890.522 548.004 891.377 547.9Z" fill="white"/>
<path d="M904.213 485.45C905.069 485.346 905.924 484.474 906.124 483.502C906.324 482.53 905.792 481.827 904.937 481.93C904.082 482.034 903.227 482.906 903.027 483.878C902.827 484.85 903.358 485.554 904.213 485.45Z" fill="white"/>
<path d="M927.254 562.412C927.895 562.334 928.537 561.68 928.686 560.951C928.836 560.223 928.438 559.695 927.797 559.773C927.156 559.851 926.514 560.504 926.364 561.233C926.215 561.962 926.613 562.49 927.254 562.412Z" fill="white"/>
<path opacity="0.3" d="M971.844 523.552C972.699 523.448 973.555 522.576 973.754 521.604C973.954 520.632 973.423 519.928 972.568 520.032C971.713 520.136 970.858 521.008 970.658 521.98C970.458 522.952 970.989 523.656 971.844 523.552Z" fill="white"/>
<path opacity="0.3" d="M1035.62 576.698C1036.47 576.594 1037.33 575.722 1037.53 574.75C1037.73 573.778 1037.2 573.075 1036.34 573.179C1035.49 573.282 1034.63 574.154 1034.43 575.126C1034.23 576.098 1034.76 576.802 1035.62 576.698Z" fill="white"/>
<path opacity="0.3" d="M944.709 589.449C945.565 589.345 946.42 588.473 946.62 587.501C946.82 586.529 946.288 585.826 945.433 585.929C944.578 586.033 943.723 586.905 943.523 587.877C943.323 588.849 943.854 589.553 944.709 589.449Z" fill="white"/>
<path opacity="0.3" d="M497.408 658.334C498.263 658.23 499.118 657.358 499.318 656.386C499.518 655.415 498.987 654.711 498.131 654.815C497.276 654.919 496.421 655.791 496.221 656.762C496.021 657.734 496.553 658.438 497.408 658.334Z" fill="white"/>
<path opacity="0.3" d="M444.66 617.569C445.515 617.465 446.37 616.593 446.57 615.621C446.77 614.649 446.239 613.945 445.383 614.049C444.528 614.153 443.673 615.025 443.473 615.997C443.273 616.969 443.804 617.673 444.66 617.569Z" fill="white"/>
<path opacity="0.11" d="M1009.31 554.164C1010.17 554.06 1011.03 553.188 1011.23 552.216C1011.43 551.244 1010.89 550.541 1010.04 550.645C1009.18 550.748 1008.33 551.62 1008.13 552.592C1007.93 553.564 1008.46 554.268 1009.31 554.164Z" fill="white"/>
<path opacity="0.3" d="M561.48 574.229C562.335 574.125 563.19 573.253 563.39 572.281C563.59 571.309 563.059 570.606 562.204 570.709C561.349 570.813 560.493 571.685 560.293 572.657C560.094 573.629 560.625 574.333 561.48 574.229Z" fill="white"/>
<path opacity="0.11" d="M544.203 559.173C545.058 559.069 545.913 558.197 546.113 557.225C546.313 556.253 545.782 555.55 544.926 555.653C544.071 555.757 543.216 556.629 543.016 557.601C542.816 558.573 543.347 559.277 544.203 559.173Z" fill="white"/>
<path opacity="0.3" d="M526.439 616.219C527.294 616.116 528.149 615.244 528.349 614.272C528.549 613.3 528.018 612.596 527.163 612.7C526.308 612.804 525.452 613.676 525.252 614.648C525.053 615.62 525.584 616.323 526.439 616.219Z" fill="white"/>
<path d="M574.987 609.465C575.628 609.387 576.269 608.733 576.419 608.004C576.569 607.275 576.17 606.748 575.529 606.826C574.888 606.903 574.247 607.557 574.097 608.286C573.947 609.015 574.345 609.542 574.987 609.465Z" fill="white"/>
<path opacity="0.11" d="M1093.48 680.031C1094.33 679.927 1095.19 679.055 1095.39 678.083C1095.59 677.111 1095.06 676.408 1094.2 676.512C1093.35 676.615 1092.49 677.487 1092.29 678.459C1092.09 679.431 1092.62 680.135 1093.48 680.031Z" fill="white"/>
<path d="M1096.51 689.094C1097.16 689.016 1097.8 688.362 1097.95 687.633C1098.1 686.905 1097.7 686.377 1097.06 686.455C1096.42 686.533 1095.77 687.186 1095.62 687.915C1095.47 688.644 1095.87 689.172 1096.51 689.094Z" fill="white"/>
<path d="M1125.85 667.526C1126.49 667.448 1127.14 666.795 1127.29 666.066C1127.44 665.337 1127.04 664.81 1126.4 664.887C1125.76 664.965 1125.11 665.619 1124.96 666.348C1124.81 667.077 1125.21 667.604 1125.85 667.526Z" fill="white"/>
<path d="M1060.43 673.749C1061.07 673.672 1061.71 673.018 1061.86 672.289C1062.01 671.56 1061.62 671.033 1060.97 671.111C1060.33 671.188 1059.69 671.842 1059.54 672.571C1059.39 673.3 1059.79 673.827 1060.43 673.749Z" fill="white"/>
<path opacity="0.11" d="M1017.78 699.509C1018.63 699.405 1019.49 698.533 1019.69 697.561C1019.89 696.589 1019.36 695.886 1018.5 695.99C1017.65 696.093 1016.79 696.965 1016.59 697.937C1016.39 698.909 1016.92 699.613 1017.78 699.509Z" fill="white"/>
<path d="M1007.06 681.945C1007.48 681.894 1007.91 681.458 1008.01 680.972C1008.11 680.487 1007.85 680.135 1007.42 680.187C1006.99 680.239 1006.56 680.675 1006.46 681.16C1006.36 681.646 1006.63 681.997 1007.06 681.945Z" fill="white"/>
<path d="M1084.09 714.613C1084.52 714.561 1084.95 714.126 1085.05 713.64C1085.15 713.155 1084.88 712.803 1084.46 712.855C1084.03 712.907 1083.6 713.342 1083.5 713.828C1083.4 714.314 1083.67 714.665 1084.09 714.613Z" fill="white"/>
<path d="M1252.81 694.134C1253.24 694.082 1253.67 693.646 1253.77 693.161C1253.87 692.675 1253.6 692.324 1253.17 692.376C1252.75 692.428 1252.32 692.863 1252.22 693.349C1252.12 693.834 1252.39 694.186 1252.81 694.134Z" fill="white"/>
<path d="M1346.93 636.392C1347.36 636.34 1347.79 635.904 1347.89 635.419C1347.99 634.933 1347.72 634.582 1347.3 634.633C1346.87 634.685 1346.44 635.121 1346.34 635.607C1346.24 636.092 1346.51 636.444 1346.93 636.392Z" fill="white"/>
<path d="M1363.92 696.937C1364.35 696.885 1364.77 696.449 1364.87 695.964C1364.97 695.478 1364.71 695.127 1364.28 695.179C1363.85 695.23 1363.42 695.666 1363.33 696.152C1363.23 696.637 1363.49 696.989 1363.92 696.937Z" fill="white"/>
<path d="M830.901 723.914C831.328 723.862 831.756 723.426 831.856 722.94C831.955 722.455 831.69 722.103 831.263 722.155C830.836 722.207 830.408 722.643 830.308 723.128C830.209 723.614 830.474 723.965 830.901 723.914Z" fill="white"/>
<path opacity="0.11" d="M829.065 677.828C829.493 677.776 829.92 677.341 830.02 676.855C830.12 676.369 829.854 676.018 829.427 676.07C829 676.122 828.572 676.557 828.473 677.043C828.373 677.528 828.638 677.88 829.065 677.828Z" fill="white"/>
<path opacity="0.11" d="M791.63 702.099C792.057 702.047 792.484 701.612 792.584 701.126C792.684 700.641 792.419 700.289 791.991 700.341C791.564 700.393 791.137 700.829 791.037 701.314C790.937 701.8 791.203 702.151 791.63 702.099Z" fill="white"/>
<path opacity="0.11" d="M806.314 751.773C806.742 751.721 807.169 751.286 807.269 750.8C807.368 750.314 807.103 749.963 806.676 750.015C806.249 750.067 805.821 750.502 805.722 750.988C805.622 751.473 805.887 751.825 806.314 751.773Z" fill="white"/>
<path opacity="0.11" d="M997.737 694.222C998.164 694.17 998.592 693.734 998.692 693.249C998.791 692.763 998.526 692.412 998.099 692.464C997.672 692.515 997.244 692.951 997.144 693.437C997.045 693.922 997.31 694.274 997.737 694.222Z" fill="white"/>
<path opacity="0.11" d="M1076.04 746.466C1076.46 746.414 1076.89 745.978 1076.99 745.492C1077.09 745.007 1076.82 744.655 1076.4 744.707C1075.97 744.759 1075.54 745.195 1075.44 745.68C1075.34 746.166 1075.61 746.517 1076.04 746.466Z" fill="white"/>
<path opacity="0.11" d="M1226.44 719.631C1226.87 719.579 1227.29 719.143 1227.39 718.658C1227.49 718.172 1227.23 717.821 1226.8 717.873C1226.37 717.924 1225.95 718.36 1225.85 718.846C1225.75 719.331 1226.01 719.683 1226.44 719.631Z" fill="white"/>
<path opacity="0.3" d="M871.027 697.603C871.454 697.551 871.882 697.115 871.982 696.63C872.081 696.144 871.816 695.793 871.389 695.845C870.962 695.896 870.534 696.332 870.434 696.818C870.335 697.303 870.6 697.655 871.027 697.603Z" fill="white"/>
<path d="M1058.79 628.493C1059.22 628.441 1059.65 628.006 1059.75 627.52C1059.85 627.034 1059.58 626.683 1059.15 626.735C1058.73 626.787 1058.3 627.222 1058.2 627.708C1058.1 628.193 1058.36 628.545 1058.79 628.493Z" fill="white"/>
<path d="M1178.34 612.266C1178.76 612.215 1179.19 611.779 1179.29 611.293C1179.39 610.808 1179.13 610.456 1178.7 610.508C1178.27 610.56 1177.84 610.996 1177.74 611.481C1177.64 611.967 1177.91 612.318 1178.34 612.266Z" fill="white"/>
<path d="M989.526 715.805C989.954 715.754 990.381 715.318 990.481 714.832C990.58 714.347 990.315 713.995 989.888 714.047C989.461 714.099 989.033 714.535 988.933 715.02C988.834 715.506 989.099 715.857 989.526 715.805Z" fill="white"/>
<path opacity="0.3" d="M935.351 722.383C935.779 722.331 936.206 721.896 936.306 721.41C936.406 720.925 936.14 720.573 935.713 720.625C935.286 720.677 934.859 721.113 934.759 721.598C934.659 722.084 934.924 722.435 935.351 722.383Z" fill="white"/>
<path opacity="0.11" d="M883.112 675.555C883.539 675.503 883.967 675.068 884.067 674.582C884.166 674.097 883.901 673.745 883.474 673.797C883.047 673.849 882.619 674.284 882.519 674.77C882.42 675.256 882.685 675.607 883.112 675.555Z" fill="white"/>
<path opacity="0.3" d="M1068.39 647.915C1068.82 647.863 1069.24 647.428 1069.34 646.942C1069.44 646.457 1069.18 646.105 1068.75 646.157C1068.32 646.209 1067.9 646.645 1067.8 647.13C1067.7 647.616 1067.96 647.967 1068.39 647.915Z" fill="white"/>
<path opacity="0.3" d="M999.252 730.922C999.679 730.87 1000.11 730.434 1000.21 729.949C1000.31 729.463 1000.04 729.112 999.613 729.163C999.186 729.215 998.759 729.651 998.659 730.136C998.559 730.622 998.825 730.974 999.252 730.922Z" fill="white"/>
<path opacity="0.3" d="M903.797 751.084C904.224 751.032 904.651 750.596 904.751 750.111C904.851 749.625 904.586 749.274 904.158 749.326C903.731 749.377 903.304 749.813 903.204 750.299C903.104 750.784 903.37 751.136 903.797 751.084Z" fill="white"/>
<path opacity="0.3" d="M893.472 694.883C893.899 694.831 894.326 694.395 894.426 693.91C894.526 693.424 894.26 693.072 893.833 693.124C893.406 693.176 892.979 693.612 892.879 694.097C892.779 694.583 893.044 694.935 893.472 694.883Z" fill="white"/>
<path opacity="0.3" d="M1375.38 633.797C1375.81 633.745 1376.24 633.309 1376.34 632.824C1376.44 632.338 1376.17 631.987 1375.75 632.039C1375.32 632.091 1374.89 632.526 1374.79 633.012C1374.69 633.497 1374.96 633.849 1375.38 633.797Z" fill="white"/>
<path opacity="0.11" d="M1258.2 612.86C1258.63 612.808 1259.06 612.372 1259.16 611.887C1259.26 611.401 1258.99 611.05 1258.56 611.102C1258.14 611.154 1257.71 611.589 1257.61 612.075C1257.51 612.56 1257.77 612.912 1258.2 612.86Z" fill="white"/>
<path opacity="0.11" d="M1346.72 674.152C1347.14 674.1 1347.57 673.664 1347.67 673.179C1347.77 672.693 1347.5 672.341 1347.08 672.393C1346.65 672.445 1346.22 672.881 1346.12 673.366C1346.02 673.852 1346.29 674.203 1346.72 674.152Z" fill="white"/>
<path opacity="0.3" d="M1149.28 705.843C1150.14 705.739 1150.99 704.867 1151.19 703.895C1151.39 702.923 1150.86 702.22 1150.01 702.323C1149.15 702.427 1148.3 703.299 1148.1 704.271C1147.9 705.243 1148.43 705.947 1149.28 705.843Z" fill="white"/>
<path opacity="0.11" d="M1200.37 673.914C1201.23 673.81 1202.08 672.938 1202.28 671.966C1202.48 670.995 1201.95 670.291 1201.1 670.395C1200.24 670.498 1199.39 671.371 1199.19 672.342C1198.99 673.314 1199.52 674.018 1200.37 673.914Z" fill="white"/>
<path d="M1206.32 643.178C1206.96 643.1 1207.6 642.446 1207.75 641.717C1207.9 640.988 1207.5 640.461 1206.86 640.539C1206.22 640.616 1205.58 641.27 1205.43 641.999C1205.28 642.728 1205.68 643.255 1206.32 643.178Z" fill="white"/>
<path d="M1133.93 742.016C1134.57 741.938 1135.21 741.284 1135.36 740.556C1135.51 739.827 1135.11 739.299 1134.47 739.377C1133.83 739.455 1133.19 740.109 1133.04 740.838C1132.89 741.566 1133.29 742.094 1133.93 742.016Z" fill="white"/>
<path d="M1387.25 728.411C1387.89 728.333 1388.53 727.679 1388.68 726.95C1388.83 726.221 1388.43 725.694 1387.79 725.772C1387.15 725.849 1386.51 726.503 1386.36 727.232C1386.21 727.961 1386.61 728.488 1387.25 728.411Z" fill="white"/>
<path d="M888.051 774.436C888.692 774.358 889.333 773.704 889.483 772.976C889.633 772.247 889.235 771.719 888.594 771.797C887.952 771.875 887.311 772.529 887.161 773.258C887.011 773.986 887.41 774.514 888.051 774.436Z" fill="white"/>
<path d="M789.286 766.706C789.928 766.628 790.569 765.974 790.719 765.245C790.869 764.517 790.47 763.989 789.829 764.067C789.188 764.145 788.547 764.799 788.397 765.527C788.247 766.256 788.645 766.784 789.286 766.706Z" fill="white"/>
<path d="M783.363 733.12C784.004 733.042 784.645 732.389 784.795 731.66C784.945 730.931 784.546 730.403 783.905 730.481C783.264 730.559 782.623 731.213 782.473 731.942C782.323 732.67 782.721 733.198 783.363 733.12Z" fill="white"/>
<path d="M1165.56 665.281C1166.2 665.203 1166.84 664.549 1166.99 663.82C1167.14 663.092 1166.74 662.564 1166.1 662.642C1165.46 662.72 1164.82 663.373 1164.67 664.102C1164.52 664.831 1164.91 665.359 1165.56 665.281Z" fill="white"/>
<path d="M1017.51 746.715C1018.15 746.637 1018.79 745.983 1018.94 745.255C1019.09 744.526 1018.69 743.998 1018.05 744.076C1017.41 744.154 1016.77 744.808 1016.62 745.537C1016.47 746.265 1016.87 746.793 1017.51 746.715Z" fill="white"/>
<path d="M1204.76 760.86C1205.4 760.782 1206.04 760.129 1206.19 759.4C1206.34 758.671 1205.94 758.143 1205.3 758.221C1204.66 758.299 1204.02 758.953 1203.87 759.682C1203.72 760.411 1204.12 760.938 1204.76 760.86Z" fill="white"/>
<path d="M1422.14 676.147C1422.78 676.069 1423.43 675.415 1423.58 674.686C1423.72 673.957 1423.33 673.43 1422.69 673.508C1422.04 673.585 1421.4 674.239 1421.25 674.968C1421.1 675.697 1421.5 676.224 1422.14 676.147Z" fill="white"/>
<path d="M1450.67 625.518C1451.31 625.44 1451.95 624.786 1452.1 624.057C1452.25 623.328 1451.85 622.801 1451.21 622.879C1450.57 622.956 1449.93 623.61 1449.78 624.339C1449.63 625.068 1450.02 625.595 1450.67 625.518Z" fill="white"/>
<path opacity="0.3" d="M1269.98 636.3C1270.84 636.196 1271.69 635.324 1271.89 634.352C1272.09 633.38 1271.56 632.676 1270.71 632.78C1269.85 632.884 1269 633.756 1268.8 634.728C1268.6 635.7 1269.13 636.404 1269.98 636.3Z" fill="white"/>
<path d="M1282.82 573.856C1283.68 573.752 1284.54 572.88 1284.73 571.908C1284.93 570.936 1284.4 570.232 1283.55 570.336C1282.69 570.44 1281.84 571.312 1281.64 572.284C1281.44 573.256 1281.97 573.959 1282.82 573.856Z" fill="white"/>
<path d="M1305.87 650.817C1306.51 650.739 1307.15 650.085 1307.3 649.357C1307.45 648.628 1307.05 648.1 1306.41 648.178C1305.77 648.256 1305.13 648.91 1304.98 649.639C1304.83 650.367 1305.22 650.895 1305.87 650.817Z" fill="white"/>
<path opacity="0.3" d="M1350.46 611.957C1351.31 611.853 1352.17 610.981 1352.37 610.009C1352.57 609.037 1352.03 608.333 1351.18 608.437C1350.32 608.541 1349.47 609.413 1349.27 610.385C1349.07 611.357 1349.6 612.06 1350.46 611.957Z" fill="white"/>
<path opacity="0.3" d="M1414.23 665.104C1415.09 665 1415.94 664.128 1416.14 663.156C1416.34 662.184 1415.81 661.48 1414.96 661.584C1414.1 661.688 1413.25 662.56 1413.05 663.532C1412.85 664.504 1413.38 665.208 1414.23 665.104Z" fill="white"/>
<path opacity="0.3" d="M1323.32 677.855C1324.18 677.751 1325.03 676.879 1325.23 675.907C1325.43 674.935 1324.9 674.231 1324.04 674.335C1323.19 674.439 1322.33 675.311 1322.13 676.283C1321.93 677.255 1322.47 677.958 1323.32 677.855Z" fill="white"/>
<path opacity="0.3" d="M876.019 746.74C876.874 746.636 877.729 745.764 877.929 744.792C878.129 743.82 877.598 743.116 876.743 743.22C875.888 743.324 875.032 744.196 874.832 745.168C874.633 746.14 875.164 746.844 876.019 746.74Z" fill="white"/>
<path opacity="0.3" d="M823.272 705.974C824.127 705.87 824.982 704.998 825.182 704.026C825.382 703.054 824.851 702.351 823.996 702.454C823.141 702.558 822.285 703.43 822.085 704.402C821.886 705.374 822.417 706.078 823.272 705.974Z" fill="white"/>
<path opacity="0.11" d="M1387.93 642.57C1388.78 642.466 1389.64 641.594 1389.84 640.622C1390.04 639.65 1389.51 638.946 1388.65 639.05C1387.79 639.154 1386.94 640.026 1386.74 640.998C1386.54 641.97 1387.07 642.673 1387.93 642.57Z" fill="white"/>
<path opacity="0.3" d="M940.092 662.633C940.947 662.529 941.803 661.657 942.003 660.685C942.202 659.713 941.671 659.01 940.816 659.113C939.961 659.217 939.106 660.089 938.906 661.061C938.706 662.033 939.237 662.737 940.092 662.633Z" fill="white"/>
<path opacity="0.11" d="M922.814 647.578C923.669 647.475 924.524 646.603 924.724 645.631C924.924 644.659 924.393 643.955 923.538 644.059C922.683 644.163 921.827 645.035 921.627 646.007C921.428 646.979 921.959 647.682 922.814 647.578Z" fill="white"/>
<path opacity="0.3" d="M905.052 704.623C905.907 704.52 906.763 703.648 906.963 702.676C907.162 701.704 906.631 701 905.776 701.104C904.921 701.208 904.066 702.08 903.866 703.052C903.666 704.024 904.197 704.727 905.052 704.623Z" fill="white"/>
<path d="M953.597 697.869C954.238 697.791 954.879 697.138 955.029 696.409C955.179 695.68 954.781 695.153 954.14 695.23C953.498 695.308 952.857 695.962 952.707 696.691C952.557 697.42 952.956 697.947 953.597 697.869Z" fill="white"/>
</g>
</g>
<defs>
<clipPath id="clip0_222_564">
<rect width="1010.67" height="1213.74" fill="white" transform="translate(713.251) rotate(35.9903)"/>
</clipPath>
</defs>
</svg>
